<ttFont>
<head>
    <!-- Most of this table will be recalculated by the compiler -->
    <tableVersion value="1.0"/>
    <fontRevision value="1.0"/>
    <checkSumAdjustment value="0xae1c910e"/>
    <magicNumber value="0x5f0f3cf5"/>
    <flags value="00000000 00011011"/>
    <unitsPerEm value="1000"/>
    <created value="Tue Jan  8 12:46:00 2013"/>
    <modified value="Thu Nov  6 12:31:28 2014"/>
    <xMin value="-56"/>
    <yMin value="-276"/>
    <xMax value="1258"/>
    <yMax value="1064"/>
    <macStyle value="00000000 00000000"/>
    <lowestRecPPEM value="9"/>
    <fontDirectionHint value="2"/>
    <indexToLocFormat value="0"/>
    <glyphDataFormat value="0"/>
  </head>
    <TTGlyph name=".notdef" xMin="66" yMin="0" xMax="530" yMax="650">
      <contour>
        <pt x="66" y="650" on="1"/>
        <pt x="530" y="650" on="1"/>
        <pt x="530" y="0" on="1"/>
        <pt x="66" y="0" on="1"/>
      </contour>
      <contour>
        <pt x="456" y="604" on="1"/>
        <pt x="140" y="604" on="1"/>
        <pt x="299" y="367" on="1"/>
      </contour>
      <contour>
        <pt x="484" y="88" on="1"/>
        <pt x="484" y="562" on="1"/>
        <pt x="326" y="325" on="1"/>
      </contour>
      <contour>
        <pt x="456" y="47" on="1"/>
        <pt x="299" y="283" on="1"/>
        <pt x="140" y="47" on="1"/>
      </contour>
      <contour>
        <pt x="113" y="88" on="1"/>
        <pt x="270" y="325" on="1"/>
        <pt x="113" y="562" on="1"/>
      </contour>
    </TTGlyph>
    <TTGlyph name="A" xMin="15" yMin="0" xMax="671" yMax="663">
      <contour>
        <pt x="500" y="151" on="1"/>
        <pt x="180" y="151" on="1"/>
        <pt x="128" y="11" on="1"/>
        <pt x="125" y="4" on="0"/>
        <pt x="119" y="0" on="0"/>
        <pt x="111" y="0" on="1"/>
        <pt x="15" y="0" on="1"/>
        <pt x="278" y="663" on="1"/>
        <pt x="382" y="663" on="1"/>
        <pt x="390" y="663" on="0"/>
        <pt x="397" y="659" on="0"/>
        <pt x="400" y="651" on="1"/>
        <pt x="671" y="0" on="1"/>
        <pt x="573" y="0" on="1"/>
        <pt x="565" y="0" on="0"/>
        <pt x="558" y="3" on="0"/>
        <pt x="555" y="11" on="1"/>
      </contour>
      <contour>
        <pt x="464" y="237" on="1"/>
        <pt x="410" y="373" on="1"/>
        <pt x="399" y="399" on="0"/>
        <pt x="377" y="456" on="0"/>
        <pt x="356" y="508" on="0"/>
        <pt x="339" y="551" on="0"/>
        <pt x="335" y="564" on="1"/>
        <pt x="330" y="550" on="0"/>
        <pt x="315" y="507" on="0"/>
        <pt x="296" y="456" on="0"/>
        <pt x="275" y="401" on="0"/>
        <pt x="265" y="374" on="1"/>
        <pt x="213" y="237" on="1"/>
      </contour>
    </TTGlyph>
    <TTGlyph name="AE" xMin="3" yMin="0" xMax="919" yMax="663">
      <contour>
        <pt x="128" y="11" on="1"/>
        <pt x="123" y="3" on="0"/>
        <pt x="116" y="0" on="0"/>
        <pt x="107" y="0" on="1"/>
        <pt x="3" y="0" on="1"/>
        <pt x="423" y="663" on="1"/>
        <pt x="908" y="663" on="1"/>
        <pt x="908" y="574" on="1"/>
        <pt x="565" y="574" on="1"/>
        <pt x="565" y="386" on="1"/>
        <pt x="872" y="386" on="1"/>
        <pt x="872" y="297" on="1"/>
        <pt x="565" y="297" on="1"/>
        <pt x="565" y="89" on="1"/>
        <pt x="919" y="89" on="1"/>
        <pt x="919" y="0" on="1"/>
        <pt x="459" y="0" on="1"/>
        <pt x="459" y="151" on="1"/>
        <pt x="216" y="151" on="1"/>
      </contour>
      <contour>
        <pt x="269" y="237" on="1"/>
        <pt x="459" y="237" on="1"/>
        <pt x="459" y="554" on="1"/>
        <pt x="433" y="505" on="0"/>
        <pt x="363" y="385" on="0"/>
        <pt x="321" y="319" on="1"/>
      </contour>
    </TTGlyph>
    <TTGlyph name="AEacute" xMin="3" yMin="0" xMax="919" yMax="910">
      <component glyphName="AE" x="0" y="0" flags="0x204"/>
      <component glyphName="acute.cap" x="401" y="0" flags="0x4"/>
    </TTGlyph>
    <TTGlyph name="Aacute" xMin="15" yMin="0" xMax="671" yMax="910">
      <component glyphName="A" x="0" y="0" flags="0x204"/>
      <component glyphName="acute.cap" x="143" y="0" flags="0x4"/>
    </TTGlyph>
    <TTGlyph name="Abreve" xMin="15" yMin="0" xMax="671" yMax="884">
      <component glyphName="A" x="0" y="0" flags="0x204"/>
      <component glyphName="breve.cap" x="135" y="0" flags="0x4"/>
    </TTGlyph>
    <TTGlyph name="Acaron" xMin="15" yMin="0" xMax="671" yMax="899">
      <component glyphName="A" x="0" y="0" flags="0x204"/>
      <component glyphName="caron.cap" x="135" y="0" flags="0x4"/>
    </TTGlyph>
    <TTGlyph name="Acircumflex" xMin="15" yMin="0" xMax="671" yMax="883">
      <component glyphName="A" x="0" y="0" flags="0x204"/>
      <component glyphName="circumflex.cap" x="135" y="-16" flags="0x4"/>
    </TTGlyph>
    <TTGlyph name="Adieresis" xMin="15" yMin="0" xMax="671" yMax="855">
      <component glyphName="A" x="0" y="0" flags="0x204"/>
      <component glyphName="dieresis.cap" x="135" y="0" flags="0x4"/>
    </TTGlyph>
    <TTGlyph name="Agrave" xMin="15" yMin="0" xMax="671" yMax="914">
      <component glyphName="A" x="0" y="0" flags="0x204"/>
      <component glyphName="grave.cap" x="133" y="0" flags="0x4"/>
    </TTGlyph>
    <TTGlyph name="Amacron" xMin="15" yMin="0" xMax="671" yMax="842">
      <component glyphName="A" x="0" y="0" flags="0x204"/>
      <component glyphName="macron.cap" x="134" y="0" flags="0x4"/>
    </TTGlyph>
    <TTGlyph name="Aogonek" xMin="15" yMin="-210" xMax="676" yMax="663">
      <contour>
        <pt x="500" y="151" on="1"/>
        <pt x="180" y="151" on="1"/>
        <pt x="128" y="11" on="1"/>
        <pt x="125" y="4" on="0"/>
        <pt x="119" y="0" on="0"/>
        <pt x="111" y="0" on="1"/>
        <pt x="15" y="0" on="1"/>
        <pt x="278" y="663" on="1"/>
        <pt x="382" y="663" on="1"/>
        <pt x="390" y="663" on="0"/>
        <pt x="397" y="659" on="0"/>
        <pt x="400" y="651" on="1"/>
        <pt x="671" y="0" on="1"/>
        <pt x="626" y="0" on="1"/>
        <pt x="609" y="0" on="0"/>
        <pt x="578" y="-17" on="0"/>
        <pt x="554" y="-45" on="0"/>
        <pt x="540" y="-79" on="0"/>
        <pt x="540" y="-95" on="1"/>
        <pt x="540" y="-116" on="0"/>
        <pt x="567" y="-140" on="0"/>
        <pt x="593" y="-140" on="1"/>
        <pt x="601" y="-140" on="0"/>
        <pt x="625" y="-138" on="0"/>
        <pt x="635" y="-136" on="1"/>
        <pt x="659" y="-132" on="1"/>
        <pt x="676" y="-185" on="1"/>
        <pt x="626" y="-210" on="0"/>
        <pt x="577" y="-210" on="1"/>
        <pt x="523" y="-210" on="0"/>
        <pt x="453" y="-155" on="0"/>
        <pt x="453" y="-112" on="1"/>
        <pt x="453" y="-73" on="0"/>
        <pt x="508" y="-3" on="0"/>
        <pt x="550" y="23" on="1"/>
      </contour>
      <contour>
        <pt x="464" y="237" on="1"/>
        <pt x="410" y="373" on="1"/>
        <pt x="399" y="399" on="0"/>
        <pt x="377" y="456" on="0"/>
        <pt x="356" y="508" on="0"/>
        <pt x="339" y="551" on="0"/>
        <pt x="335" y="564" on="1"/>
        <pt x="330" y="550" on="0"/>
        <pt x="315" y="507" on="0"/>
        <pt x="296" y="456" on="0"/>
        <pt x="275" y="401" on="0"/>
        <pt x="265" y="374" on="1"/>
        <pt x="213" y="237" on="1"/>
      </contour>
    </TTGlyph>
    <TTGlyph name="Aring" xMin="15" yMin="0" xMax="671" yMax="866">
      <contour>
        <pt x="395" y="750" on="1"/>
        <pt x="395" y="804" on="0"/>
        <pt x="339" y="804" on="1"/>
        <pt x="283" y="804" on="0"/>
        <pt x="283" y="750" on="1"/>
        <pt x="283" y="696" on="0"/>
        <pt x="339" y="696" on="1"/>
        <pt x="395" y="696" on="0"/>
      </contour>
      <contour>
        <pt x="274" y="652" on="1"/>
        <pt x="250" y="667" on="0"/>
        <pt x="219" y="715" on="0"/>
        <pt x="219" y="750" on="1"/>
        <pt x="219" y="777" on="0"/>
        <pt x="238" y="820" on="0"/>
        <pt x="271" y="850" on="0"/>
        <pt x="314" y="866" on="0"/>
        <pt x="339" y="866" on="1"/>
        <pt x="364" y="866" on="0"/>
        <pt x="407" y="850" on="0"/>
        <pt x="440" y="820" on="0"/>
        <pt x="459" y="777" on="0"/>
        <pt x="459" y="750" on="1"/>
        <pt x="459" y="715" on="0"/>
        <pt x="426" y="661" on="0"/>
        <pt x="400" y="651" on="1"/>
        <pt x="671" y="0" on="1"/>
        <pt x="573" y="0" on="1"/>
        <pt x="565" y="0" on="0"/>
        <pt x="558" y="3" on="0"/>
        <pt x="555" y="11" on="1"/>
        <pt x="500" y="151" on="1"/>
        <pt x="180" y="151" on="1"/>
        <pt x="128" y="11" on="1"/>
        <pt x="125" y="4" on="0"/>
        <pt x="119" y="0" on="0"/>
        <pt x="111" y="0" on="1"/>
        <pt x="15" y="0" on="1"/>
      </contour>
      <contour>
        <pt x="464" y="237" on="1"/>
        <pt x="410" y="373" on="1"/>
        <pt x="399" y="399" on="0"/>
        <pt x="377" y="456" on="0"/>
        <pt x="356" y="508" on="0"/>
        <pt x="339" y="551" on="0"/>
        <pt x="335" y="564" on="1"/>
        <pt x="330" y="550" on="0"/>
        <pt x="315" y="507" on="0"/>
        <pt x="296" y="456" on="0"/>
        <pt x="275" y="401" on="0"/>
        <pt x="265" y="374" on="1"/>
        <pt x="213" y="237" on="1"/>
      </contour>
    </TTGlyph>
    <TTGlyph name="Aringacute" xMin="15" yMin="0" xMax="671" yMax="1064">
      <component glyphName="Aring" x="0" y="0" flags="0x204"/>
      <component glyphName="acute.cap" x="143" y="154" flags="0x4"/>
    </TTGlyph>
    <TTGlyph name="Atilde" xMin="15" yMin="0" xMax="671" yMax="865">
      <component glyphName="A" x="0" y="0" flags="0x204"/>
      <component glyphName="tilde.cap" x="134" y="0" flags="0x4"/>
    </TTGlyph>
    <TTGlyph name="B" xMin="73" yMin="0" xMax="591" yMax="663">
      <contour>
        <pt x="326" y="663" on="1"/>
        <pt x="389" y="663" on="0"/>
        <pt x="473" y="642" on="0"/>
        <pt x="501" y="616" on="1"/>
        <pt x="546" y="576" on="0"/>
        <pt x="546" y="503" on="1"/>
        <pt x="546" y="460" on="0"/>
        <pt x="510" y="386" on="0"/>
        <pt x="482" y="354" on="1"/>
        <pt x="528" y="333" on="0"/>
        <pt x="591" y="252" on="0"/>
        <pt x="591" y="191" on="1"/>
        <pt x="591" y="109" on="0"/>
        <pt x="542" y="60" on="1"/>
        <pt x="513" y="31" on="0"/>
        <pt x="423" y="0" on="0"/>
        <pt x="357" y="0" on="1"/>
        <pt x="73" y="0" on="1"/>
        <pt x="73" y="663" on="1"/>
      </contour>
      <contour>
        <pt x="179" y="89" on="1"/>
        <pt x="349" y="89" on="1"/>
        <pt x="390" y="89" on="0"/>
        <pt x="439" y="102" on="0"/>
        <pt x="454" y="116" on="1"/>
        <pt x="482" y="142" on="0"/>
        <pt x="482" y="194" on="1"/>
        <pt x="482" y="243" on="0"/>
        <pt x="459" y="266" on="1"/>
        <pt x="445" y="280" on="0"/>
        <pt x="400" y="292" on="0"/>
        <pt x="362" y="292" on="1"/>
        <pt x="179" y="292" on="1"/>
      </contour>
      <contour>
        <pt x="179" y="377" on="1"/>
        <pt x="378" y="377" on="1"/>
        <pt x="406" y="377" on="0"/>
        <pt x="418" y="396" on="1"/>
        <pt x="429" y="413" on="0"/>
        <pt x="442" y="462" on="0"/>
        <pt x="442" y="485" on="1"/>
        <pt x="442" y="530" on="0"/>
        <pt x="420" y="551" on="1"/>
        <pt x="406" y="563" on="0"/>
        <pt x="363" y="574" on="0"/>
        <pt x="326" y="574" on="1"/>
        <pt x="179" y="574" on="1"/>
      </contour>
    </TTGlyph>
    <TTGlyph name="C" xMin="38" yMin="-10" xMax="645" yMax="673">
      <contour>
        <pt x="645" y="121" on="1"/>
        <pt x="618" y="93" on="0"/>
        <pt x="552" y="45" on="0"/>
        <pt x="477" y="10" on="0"/>
        <pt x="395" y="-10" on="0"/>
        <pt x="353" y="-10" on="1"/>
        <pt x="284" y="-10" on="0"/>
        <pt x="168" y="40" on="0"/>
        <pt x="85" y="131" on="0"/>
        <pt x="38" y="257" on="0"/>
        <pt x="38" y="332" on="1"/>
        <pt x="38" y="406" on="0"/>
        <pt x="89" y="531" on="0"/>
        <pt x="176" y="622" on="0"/>
        <pt x="292" y="673" on="0"/>
        <pt x="357" y="673" on="1"/>
        <pt x="456" y="673" on="0"/>
        <pt x="598" y="569" on="0"/>
        <pt x="632" y="483" on="1"/>
        <pt x="561" y="438" on="1"/>
        <pt x="493" y="505" on="1"/>
        <pt x="460" y="537" on="0"/>
        <pt x="395" y="571" on="0"/>
        <pt x="350" y="571" on="1"/>
        <pt x="306" y="571" on="0"/>
        <pt x="232" y="540" on="0"/>
        <pt x="178" y="479" on="0"/>
        <pt x="148" y="389" on="0"/>
        <pt x="148" y="331" on="1"/>
        <pt x="148" y="277" on="0"/>
        <pt x="175" y="188" on="0"/>
        <pt x="229" y="125" on="0"/>
        <pt x="310" y="91" on="0"/>
        <pt x="365" y="91" on="1"/>
        <pt x="397" y="91" on="0"/>
        <pt x="475" y="111" on="0"/>
        <pt x="516" y="131" on="1"/>
        <pt x="603" y="174" on="1"/>
      </contour>
    </TTGlyph>
    <TTGlyph name="Cacute" xMin="38" yMin="-10" xMax="645" yMax="910">
      <component glyphName="C" x="0" y="0" flags="0x204"/>
      <component glyphName="acute.cap" x="167" y="0" flags="0x4"/>
    </TTGlyph>
    <TTGlyph name="Ccaron" xMin="38" yMin="-10" xMax="645" yMax="899">
      <component glyphName="C" x="0" y="0" flags="0x204"/>
      <component glyphName="caron.cap" x="156" y="0" flags="0x4"/>
    </TTGlyph>
    <TTGlyph name="Ccedilla" xMin="38" yMin="-234" xMax="646" yMax="673">
      <contour>
        <pt x="646" y="121" on="1"/>
        <pt x="595" y="67" on="0"/>
        <pt x="449" y="-6" on="0"/>
        <pt x="368" y="-9" on="1"/>
        <pt x="363" y="-17" on="0"/>
        <pt x="357" y="-31" on="0"/>
        <pt x="357" y="-37" on="1"/>
        <pt x="357" y="-48" on="0"/>
        <pt x="392" y="-59" on="0"/>
        <pt x="433" y="-75" on="0"/>
        <pt x="468" y="-105" on="0"/>
        <pt x="468" y="-134" on="1"/>
        <pt x="468" y="-178" on="0"/>
        <pt x="379" y="-234" on="0"/>
        <pt x="290" y="-234" on="1"/>
        <pt x="279" y="-178" on="1"/>
        <pt x="340" y="-167" on="1"/>
        <pt x="363" y="-163" on="0"/>
        <pt x="379" y="-149" on="0"/>
        <pt x="379" y="-141" on="1"/>
        <pt x="379" y="-132" on="0"/>
        <pt x="347" y="-120" on="0"/>
        <pt x="310" y="-105" on="0"/>
        <pt x="278" y="-84" on="0"/>
        <pt x="278" y="-64" on="1"/>
        <pt x="278" y="-51" on="0"/>
        <pt x="295" y="-21" on="0"/>
        <pt x="308" y="-7" on="1"/>
        <pt x="248" y="1" on="0"/>
        <pt x="149" y="57" on="0"/>
        <pt x="78" y="146" on="0"/>
        <pt x="38" y="263" on="0"/>
        <pt x="38" y="332" on="1"/>
        <pt x="38" y="406" on="0"/>
        <pt x="88" y="531" on="0"/>
        <pt x="175" y="622" on="0"/>
        <pt x="291" y="673" on="0"/>
        <pt x="356" y="673" on="1"/>
        <pt x="455" y="673" on="0"/>
        <pt x="597" y="571" on="0"/>
        <pt x="631" y="483" on="1"/>
        <pt x="560" y="438" on="1"/>
        <pt x="492" y="505" on="1"/>
        <pt x="460" y="537" on="0"/>
        <pt x="394" y="571" on="0"/>
        <pt x="349" y="571" on="1"/>
        <pt x="305" y="571" on="0"/>
        <pt x="232" y="540" on="0"/>
        <pt x="178" y="479" on="0"/>
        <pt x="148" y="389" on="0"/>
        <pt x="148" y="331" on="1"/>
        <pt x="148" y="277" on="0"/>
        <pt x="175" y="188" on="0"/>
        <pt x="229" y="125" on="0"/>
        <pt x="311" y="91" on="0"/>
        <pt x="366" y="91" on="1"/>
        <pt x="398" y="91" on="0"/>
        <pt x="476" y="111" on="0"/>
        <pt x="517" y="131" on="1"/>
        <pt x="604" y="174" on="1"/>
      </contour>
    </TTGlyph>
    <TTGlyph name="Ccircumflex" xMin="38" yMin="-10" xMax="645" yMax="899">
      <component glyphName="C" x="0" y="0" flags="0x204"/>
      <component glyphName="circumflex.cap" x="158" y="0" flags="0x4"/>
    </TTGlyph>
    <TTGlyph name="Cdotaccent" xMin="38" yMin="-10" xMax="645" yMax="843">
      <component glyphName="C" x="0" y="0" flags="0x204"/>
      <component glyphName="dotaccent.cap" x="155" y="0" flags="0x4"/>
    </TTGlyph>
    <TTGlyph name="D" xMin="73" yMin="0" xMax="665" yMax="663">
      <contour>
        <pt x="73" y="0" on="1"/>
        <pt x="73" y="663" on="1"/>
        <pt x="278" y="663" on="1"/>
        <pt x="383" y="663" on="0"/>
        <pt x="532" y="618" on="0"/>
        <pt x="580" y="569" on="1"/>
        <pt x="621" y="528" on="0"/>
        <pt x="665" y="410" on="0"/>
        <pt x="665" y="332" on="1"/>
        <pt x="665" y="254" on="0"/>
        <pt x="621" y="136" on="0"/>
        <pt x="580" y="95" on="1"/>
        <pt x="532" y="46" on="0"/>
        <pt x="383" y="0" on="0"/>
        <pt x="278" y="0" on="1"/>
      </contour>
      <contour>
        <pt x="556" y="332" on="1"/>
        <pt x="556" y="397" on="0"/>
        <pt x="523" y="487" on="0"/>
        <pt x="492" y="516" on="1"/>
        <pt x="457" y="548" on="0"/>
        <pt x="351" y="572" on="0"/>
        <pt x="273" y="572" on="1"/>
        <pt x="179" y="572" on="1"/>
        <pt x="179" y="91" on="1"/>
        <pt x="273" y="91" on="1"/>
        <pt x="351" y="91" on="0"/>
        <pt x="457" y="116" on="0"/>
        <pt x="492" y="148" on="1"/>
        <pt x="523" y="177" on="0"/>
        <pt x="556" y="267" on="0"/>
      </contour>
    </TTGlyph>
    <TTGlyph name="Dcaron" xMin="73" yMin="0" xMax="665" yMax="899">
      <component glyphName="D" x="0" y="0" flags="0x204"/>
      <component glyphName="caron.cap" x="154" y="0" flags="0x4"/>
    </TTGlyph>
    <TTGlyph name="Dcroat" xMin="4" yMin="0" xMax="685" yMax="663">
      <contour>
        <pt x="93" y="0" on="1"/>
        <pt x="93" y="298" on="1"/>
        <pt x="4" y="298" on="1"/>
        <pt x="4" y="380" on="1"/>
        <pt x="93" y="380" on="1"/>
        <pt x="93" y="663" on="1"/>
        <pt x="298" y="663" on="1"/>
        <pt x="403" y="663" on="0"/>
        <pt x="552" y="618" on="0"/>
        <pt x="600" y="569" on="1"/>
        <pt x="641" y="528" on="0"/>
        <pt x="685" y="410" on="0"/>
        <pt x="685" y="332" on="1"/>
        <pt x="685" y="254" on="0"/>
        <pt x="641" y="136" on="0"/>
        <pt x="600" y="95" on="1"/>
        <pt x="552" y="46" on="0"/>
        <pt x="403" y="0" on="0"/>
        <pt x="298" y="0" on="1"/>
      </contour>
      <contour>
        <pt x="576" y="332" on="1"/>
        <pt x="576" y="397" on="0"/>
        <pt x="543" y="487" on="0"/>
        <pt x="512" y="516" on="1"/>
        <pt x="477" y="548" on="0"/>
        <pt x="371" y="572" on="0"/>
        <pt x="293" y="572" on="1"/>
        <pt x="199" y="572" on="1"/>
        <pt x="199" y="380" on="1"/>
        <pt x="348" y="380" on="1"/>
        <pt x="348" y="298" on="1"/>
        <pt x="199" y="298" on="1"/>
        <pt x="199" y="91" on="1"/>
        <pt x="293" y="91" on="1"/>
        <pt x="371" y="91" on="0"/>
        <pt x="477" y="116" on="0"/>
        <pt x="512" y="148" on="1"/>
        <pt x="543" y="177" on="0"/>
        <pt x="576" y="267" on="0"/>
      </contour>
    </TTGlyph>
    <TTGlyph name="Delta" xMin="40" yMin="0" xMax="634" yMax="663">
      <contour>
        <pt x="40" y="40" on="1"/>
        <pt x="40" y="52" on="0"/>
        <pt x="41" y="69" on="0"/>
        <pt x="45" y="86" on="0"/>
        <pt x="52" y="105" on="0"/>
        <pt x="57" y="119" on="1"/>
        <pt x="272" y="663" on="1"/>
        <pt x="377" y="663" on="1"/>
        <pt x="385" y="663" on="0"/>
        <pt x="391" y="658" on="0"/>
        <pt x="394" y="651" on="1"/>
        <pt x="618" y="117" on="1"/>
        <pt x="623" y="105" on="0"/>
        <pt x="630" y="87" on="0"/>
        <pt x="633" y="70" on="0"/>
        <pt x="634" y="52" on="0"/>
        <pt x="634" y="39" on="1"/>
        <pt x="634" y="0" on="1"/>
        <pt x="40" y="0" on="1"/>
      </contour>
      <contour>
        <pt x="433" y="89" on="1"/>
        <pt x="452" y="89" on="0"/>
        <pt x="504" y="88" on="0"/>
        <pt x="524" y="86" on="1"/>
        <pt x="519" y="95" on="0"/>
        <pt x="505" y="128" on="0"/>
        <pt x="489" y="166" on="0"/>
        <pt x="473" y="205" on="0"/>
        <pt x="467" y="221" on="1"/>
        <pt x="400" y="385" on="1"/>
        <pt x="380" y="435" on="0"/>
        <pt x="341" y="534" on="0"/>
        <pt x="330" y="566" on="1"/>
        <pt x="325" y="551" on="0"/>
        <pt x="310" y="509" on="0"/>
        <pt x="293" y="462" on="0"/>
        <pt x="274" y="412" on="0"/>
        <pt x="265" y="388" on="1"/>
        <pt x="180" y="165" on="1"/>
        <pt x="172" y="142" on="0"/>
        <pt x="153" y="100" on="0"/>
        <pt x="146" y="86" on="1"/>
        <pt x="166" y="88" on="0"/>
        <pt x="218" y="89" on="0"/>
        <pt x="237" y="89" on="1"/>
      </contour>
    </TTGlyph>
    <TTGlyph name="E" xMin="73" yMin="0" xMax="533" yMax="663">
      <contour>
        <pt x="522" y="663" on="1"/>
        <pt x="522" y="574" on="1"/>
        <pt x="179" y="574" on="1"/>
        <pt x="179" y="386" on="1"/>
        <pt x="486" y="386" on="1"/>
        <pt x="486" y="297" on="1"/>
        <pt x="179" y="297" on="1"/>
        <pt x="179" y="89" on="1"/>
        <pt x="533" y="89" on="1"/>
        <pt x="533" y="0" on="1"/>
        <pt x="73" y="0" on="1"/>
        <pt x="73" y="663" on="1"/>
      </contour>
    </TTGlyph>
    <TTGlyph name="Eacute" xMin="73" yMin="0" xMax="533" yMax="910">
      <component glyphName="E" x="0" y="0" flags="0x204"/>
      <component glyphName="acute.cap" x="107" y="0" flags="0x4"/>
    </TTGlyph>
    <TTGlyph name="Ebreve" xMin="73" yMin="0" xMax="533" yMax="884">
      <component glyphName="E" x="0" y="0" flags="0x204"/>
      <component glyphName="breve.cap" x="98" y="0" flags="0x4"/>
    </TTGlyph>
    <TTGlyph name="Ecaron" xMin="73" yMin="0" xMax="533" yMax="899">
      <component glyphName="E" x="0" y="0" flags="0x204"/>
      <component glyphName="caron.cap" x="105" y="0" flags="0x4"/>
    </TTGlyph>
    <TTGlyph name="Ecircumflex" xMin="73" yMin="0" xMax="533" yMax="899">
      <component glyphName="E" x="0" y="0" flags="0x204"/>
      <component glyphName="circumflex.cap" x="97" y="0" flags="0x4"/>
    </TTGlyph>
    <TTGlyph name="Edieresis" xMin="73" yMin="0" xMax="533" yMax="855">
      <component glyphName="E" x="0" y="0" flags="0x204"/>
      <component glyphName="dieresis.cap" x="99" y="0" flags="0x4"/>
    </TTGlyph>
    <TTGlyph name="Edotaccent" xMin="73" yMin="0" xMax="533" yMax="843">
      <component glyphName="E" x="0" y="0" flags="0x204"/>
      <component glyphName="dotaccent.cap" x="104" y="0" flags="0x4"/>
    </TTGlyph>
    <TTGlyph name="Egrave" xMin="73" yMin="0" xMax="533" yMax="914">
      <component glyphName="E" x="0" y="0" flags="0x204"/>
      <component glyphName="grave.cap" x="106" y="0" flags="0x4"/>
    </TTGlyph>
    <TTGlyph name="Emacron" xMin="73" yMin="0" xMax="533" yMax="842">
      <component glyphName="E" x="0" y="0" flags="0x204"/>
      <component glyphName="macron.cap" x="96" y="0" flags="0x4"/>
    </TTGlyph>
    <TTGlyph name="Eng" xMin="73" yMin="-230" xMax="659" yMax="663">
      <contour>
        <pt x="289" y="349" on="1"/>
        <pt x="211" y="447" on="0"/>
        <pt x="175" y="497" on="1"/>
        <pt x="175" y="0" on="1"/>
        <pt x="73" y="0" on="1"/>
        <pt x="73" y="663" on="1"/>
        <pt x="148" y="663" on="1"/>
        <pt x="157" y="663" on="0"/>
        <pt x="166" y="660" on="0"/>
        <pt x="172" y="652" on="1"/>
        <pt x="442" y="314" on="1"/>
        <pt x="481" y="265" on="0"/>
        <pt x="540" y="188" on="0"/>
        <pt x="557" y="164" on="1"/>
        <pt x="557" y="663" on="1"/>
        <pt x="659" y="663" on="1"/>
        <pt x="659" y="-28" on="1"/>
        <pt x="659" y="-125" on="0"/>
        <pt x="569" y="-230" on="0"/>
        <pt x="475" y="-230" on="1"/>
        <pt x="445" y="-230" on="0"/>
        <pt x="379" y="-213" on="0"/>
        <pt x="356" y="-199" on="1"/>
        <pt x="372" y="-134" on="1"/>
        <pt x="381" y="-136" on="0"/>
        <pt x="406" y="-138" on="0"/>
        <pt x="430" y="-140" on="0"/>
        <pt x="452" y="-141" on="0"/>
        <pt x="459" y="-141" on="1"/>
        <pt x="514" y="-141" on="0"/>
        <pt x="557" y="-91" on="0"/>
        <pt x="557" y="-36" on="1"/>
        <pt x="557" y="13" on="1"/>
      </contour>
    </TTGlyph>
    <TTGlyph name="Eogonek" xMin="73" yMin="-211" xMax="533" yMax="663">
      <contour>
        <pt x="522" y="663" on="1"/>
        <pt x="522" y="574" on="1"/>
        <pt x="180" y="574" on="1"/>
        <pt x="180" y="386" on="1"/>
        <pt x="486" y="386" on="1"/>
        <pt x="486" y="297" on="1"/>
        <pt x="180" y="297" on="1"/>
        <pt x="180" y="89" on="1"/>
        <pt x="533" y="89" on="1"/>
        <pt x="533" y="0" on="1"/>
        <pt x="475" y="0" on="1"/>
        <pt x="460" y="0" on="0"/>
        <pt x="439" y="-12" on="0"/>
        <pt x="428" y="-24" on="1"/>
        <pt x="414" y="-39" on="0"/>
        <pt x="394" y="-78" on="0"/>
        <pt x="394" y="-96" on="1"/>
        <pt x="394" y="-117" on="0"/>
        <pt x="421" y="-141" on="0"/>
        <pt x="447" y="-141" on="1"/>
        <pt x="455" y="-141" on="0"/>
        <pt x="479" y="-139" on="0"/>
        <pt x="490" y="-137" on="1"/>
        <pt x="514" y="-133" on="1"/>
        <pt x="531" y="-185" on="1"/>
        <pt x="507" y="-198" on="0"/>
        <pt x="455" y="-211" on="0"/>
        <pt x="431" y="-211" on="1"/>
        <pt x="404" y="-211" on="0"/>
        <pt x="359" y="-196" on="0"/>
        <pt x="326" y="-170" on="0"/>
        <pt x="308" y="-134" on="0"/>
        <pt x="308" y="-113" on="1"/>
        <pt x="308" y="-82" on="0"/>
        <pt x="343" y="-24" on="0"/>
        <pt x="372" y="0" on="1"/>
        <pt x="73" y="0" on="1"/>
        <pt x="73" y="663" on="1"/>
      </contour>
    </TTGlyph>
    <TTGlyph name="Eth" xMin="4" yMin="0" xMax="685" yMax="663">
      <contour>
        <pt x="93" y="0" on="1"/>
        <pt x="93" y="298" on="1"/>
        <pt x="4" y="298" on="1"/>
        <pt x="4" y="380" on="1"/>
        <pt x="93" y="380" on="1"/>
        <pt x="93" y="663" on="1"/>
        <pt x="298" y="663" on="1"/>
        <pt x="403" y="663" on="0"/>
        <pt x="552" y="618" on="0"/>
        <pt x="600" y="569" on="1"/>
        <pt x="641" y="528" on="0"/>
        <pt x="685" y="410" on="0"/>
        <pt x="685" y="332" on="1"/>
        <pt x="685" y="254" on="0"/>
        <pt x="641" y="136" on="0"/>
        <pt x="600" y="95" on="1"/>
        <pt x="552" y="46" on="0"/>
        <pt x="403" y="0" on="0"/>
        <pt x="298" y="0" on="1"/>
      </contour>
      <contour>
        <pt x="576" y="332" on="1"/>
        <pt x="576" y="397" on="0"/>
        <pt x="543" y="487" on="0"/>
        <pt x="512" y="516" on="1"/>
        <pt x="477" y="548" on="0"/>
        <pt x="371" y="572" on="0"/>
        <pt x="293" y="572" on="1"/>
        <pt x="199" y="572" on="1"/>
        <pt x="199" y="380" on="1"/>
        <pt x="348" y="380" on="1"/>
        <pt x="348" y="298" on="1"/>
        <pt x="199" y="298" on="1"/>
        <pt x="199" y="91" on="1"/>
        <pt x="293" y="91" on="1"/>
        <pt x="371" y="91" on="0"/>
        <pt x="477" y="116" on="0"/>
        <pt x="512" y="148" on="1"/>
        <pt x="543" y="177" on="0"/>
        <pt x="576" y="267" on="0"/>
      </contour>
    </TTGlyph>
    <TTGlyph name="Euro" xMin="31" yMin="-10" xMax="596" yMax="673">
      <contour>
        <pt x="102" y="419" on="1"/>
        <pt x="112" y="478" on="0"/>
        <pt x="160" y="572" on="0"/>
        <pt x="230" y="638" on="0"/>
        <pt x="317" y="673" on="0"/>
        <pt x="365" y="673" on="1"/>
        <pt x="444" y="673" on="0"/>
        <pt x="560" y="591" on="0"/>
        <pt x="592" y="519" on="1"/>
        <pt x="529" y="480" on="1"/>
        <pt x="482" y="524" on="1"/>
        <pt x="450" y="554" on="0"/>
        <pt x="398" y="581" on="0"/>
        <pt x="366" y="581" on="1"/>
        <pt x="306" y="581" on="0"/>
        <pt x="220" y="501" on="0"/>
        <pt x="206" y="420" on="1"/>
        <pt x="414" y="420" on="1"/>
        <pt x="414" y="356" on="1"/>
        <pt x="199" y="356" on="1"/>
        <pt x="198" y="351" on="0"/>
        <pt x="198" y="334" on="0"/>
        <pt x="198" y="329" on="1"/>
        <pt x="198" y="316" on="0"/>
        <pt x="199" y="302" on="0"/>
        <pt x="200" y="297" on="1"/>
        <pt x="414" y="297" on="1"/>
        <pt x="414" y="232" on="1"/>
        <pt x="210" y="232" on="1"/>
        <pt x="221" y="162" on="0"/>
        <pt x="312" y="83" on="0"/>
        <pt x="376" y="83" on="1"/>
        <pt x="406" y="83" on="0"/>
        <pt x="470" y="102" on="0"/>
        <pt x="499" y="118" on="1"/>
        <pt x="557" y="151" on="1"/>
        <pt x="596" y="104" on="1"/>
        <pt x="576" y="78" on="0"/>
        <pt x="523" y="36" on="0"/>
        <pt x="462" y="6" on="0"/>
        <pt x="398" y="-10" on="0"/>
        <pt x="367" y="-10" on="1"/>
        <pt x="315" y="-10" on="0"/>
        <pt x="226" y="25" on="0"/>
        <pt x="157" y="88" on="0"/>
        <pt x="112" y="178" on="0"/>
        <pt x="104" y="233" on="1"/>
        <pt x="31" y="233" on="1"/>
        <pt x="31" y="286" on="1"/>
        <pt x="96" y="296" on="1"/>
        <pt x="95" y="305" on="0"/>
        <pt x="94" y="322" on="0"/>
        <pt x="94" y="332" on="1"/>
        <pt x="94" y="336" on="0"/>
        <pt x="94" y="352" on="0"/>
        <pt x="95" y="356" on="1"/>
        <pt x="31" y="356" on="1"/>
        <pt x="31" y="410" on="1"/>
      </contour>
    </TTGlyph>
    <TTGlyph name="Euro.lprop" xMin="35" yMin="-10" xMax="600" yMax="673">
      <component glyphName="Euro" x="4" y="0" flags="0x4"/>
    </TTGlyph>
    <TTGlyph name="Euro.oprop" xMin="39" yMin="-8" xMax="559" yMax="496">
      <component glyphName="Euro.otab" x="1" y="0" flags="0x4"/>
    </TTGlyph>
    <TTGlyph name="Euro.otab" xMin="38" yMin="-8" xMax="558" yMax="496">
      <contour>
        <pt x="38" y="216" on="1"/>
        <pt x="105" y="225" on="1"/>
        <pt x="105" y="257" on="1"/>
        <pt x="38" y="257" on="1"/>
        <pt x="38" y="297" on="1"/>
        <pt x="112" y="307" on="1"/>
        <pt x="121" y="349" on="0"/>
        <pt x="162" y="419" on="0"/>
        <pt x="221" y="469" on="0"/>
        <pt x="296" y="496" on="0"/>
        <pt x="338" y="496" on="1"/>
        <pt x="376" y="496" on="0"/>
        <pt x="443" y="473" on="0"/>
        <pt x="497" y="432" on="0"/>
        <pt x="537" y="376" on="0"/>
        <pt x="548" y="344" on="1"/>
        <pt x="484" y="314" on="1"/>
        <pt x="449" y="350" on="1"/>
        <pt x="417" y="383" on="0"/>
        <pt x="365" y="409" on="0"/>
        <pt x="333" y="409" on="1"/>
        <pt x="291" y="409" on="0"/>
        <pt x="225" y="357" on="0"/>
        <pt x="212" y="308" on="1"/>
        <pt x="378" y="308" on="1"/>
        <pt x="378" y="257" on="1"/>
        <pt x="205" y="257" on="1"/>
        <pt x="205" y="243" on="1"/>
        <pt x="205" y="232" on="0"/>
        <pt x="206" y="227" on="1"/>
        <pt x="378" y="227" on="1"/>
        <pt x="378" y="175" on="1"/>
        <pt x="214" y="175" on="1"/>
        <pt x="243" y="80" on="0"/>
        <pt x="354" y="80" on="1"/>
        <pt x="379" y="80" on="0"/>
        <pt x="436" y="96" on="0"/>
        <pt x="470" y="110" on="1"/>
        <pt x="525" y="134" on="1"/>
        <pt x="558" y="82" on="1"/>
        <pt x="514" y="43" on="0"/>
        <pt x="400" y="-8" on="0"/>
        <pt x="344" y="-8" on="1"/>
        <pt x="251" y="-8" on="0"/>
        <pt x="131" y="90" on="0"/>
        <pt x="113" y="175" on="1"/>
        <pt x="38" y="175" on="1"/>
      </contour>
    </TTGlyph>
    <TTGlyph name="F" xMin="73" yMin="0" xMax="512" yMax="663">
      <contour>
        <pt x="179" y="386" on="1"/>
        <pt x="475" y="386" on="1"/>
        <pt x="475" y="297" on="1"/>
        <pt x="179" y="297" on="1"/>
        <pt x="179" y="0" on="1"/>
        <pt x="73" y="0" on="1"/>
        <pt x="73" y="663" on="1"/>
        <pt x="512" y="663" on="1"/>
        <pt x="512" y="574" on="1"/>
        <pt x="179" y="574" on="1"/>
      </contour>
    </TTGlyph>
    <TTGlyph name="G" xMin="38" yMin="-10" xMax="667" yMax="673">
      <contour>
        <pt x="511" y="512" on="1"/>
        <pt x="473" y="544" on="0"/>
        <pt x="406" y="572" on="0"/>
        <pt x="361" y="572" on="1"/>
        <pt x="317" y="572" on="0"/>
        <pt x="239" y="541" on="0"/>
        <pt x="181" y="481" on="0"/>
        <pt x="148" y="391" on="0"/>
        <pt x="148" y="331" on="1"/>
        <pt x="148" y="213" on="0"/>
        <pt x="266" y="91" on="0"/>
        <pt x="365" y="91" on="1"/>
        <pt x="387" y="91" on="0"/>
        <pt x="438" y="98" on="0"/>
        <pt x="488" y="111" on="0"/>
        <pt x="533" y="128" on="0"/>
        <pt x="551" y="137" on="1"/>
        <pt x="561" y="142" on="0"/>
        <pt x="564" y="151" on="0"/>
        <pt x="564" y="160" on="1"/>
        <pt x="564" y="259" on="1"/>
        <pt x="441" y="259" on="1"/>
        <pt x="441" y="342" on="1"/>
        <pt x="650" y="342" on="1"/>
        <pt x="659" y="342" on="0"/>
        <pt x="667" y="337" on="0"/>
        <pt x="667" y="329" on="1"/>
        <pt x="667" y="0" on="1"/>
        <pt x="595" y="0" on="1"/>
        <pt x="572" y="62" on="1"/>
        <pt x="532" y="41" on="1"/>
        <pt x="481" y="15" on="0"/>
        <pt x="392" y="-10" on="0"/>
        <pt x="350" y="-10" on="1"/>
        <pt x="281" y="-10" on="0"/>
        <pt x="166" y="42" on="0"/>
        <pt x="83" y="133" on="0"/>
        <pt x="38" y="258" on="0"/>
        <pt x="38" y="331" on="1"/>
        <pt x="38" y="404" on="0"/>
        <pt x="89" y="529" on="0"/>
        <pt x="178" y="621" on="0"/>
        <pt x="298" y="673" on="0"/>
        <pt x="367" y="673" on="1"/>
        <pt x="415" y="673" on="0"/>
        <pt x="501" y="648" on="0"/>
        <pt x="573" y="603" on="0"/>
        <pt x="630" y="539" on="0"/>
        <pt x="650" y="501" on="1"/>
        <pt x="580" y="455" on="1"/>
      </contour>
    </TTGlyph>
    <TTGlyph name="Gbreve" xMin="38" yMin="-10" xMax="667" yMax="884">
      <component glyphName="G" x="0" y="0" flags="0x204"/>
      <component glyphName="breve.cap" x="167" y="0" flags="0x4"/>
    </TTGlyph>
    <TTGlyph name="Gcircumflex" xMin="38" yMin="-10" xMax="667" yMax="899">
      <component glyphName="G" x="0" y="0" flags="0x204"/>
      <component glyphName="circumflex.cap" x="166" y="0" flags="0x4"/>
    </TTGlyph>
    <TTGlyph name="Gcommaaccent" xMin="38" yMin="-276" xMax="667" yMax="673">
      <component glyphName="G" x="0" y="0" flags="0x204"/>
      <component glyphName="commaaccent" x="166" y="0" flags="0x4"/>
    </TTGlyph>
    <TTGlyph name="Gdotaccent" xMin="38" yMin="-10" xMax="667" yMax="843">
      <component glyphName="G" x="0" y="0" flags="0x204"/>
      <component glyphName="dotaccent.cap" x="163" y="0" flags="0x4"/>
    </TTGlyph>
    <TTGlyph name="H" xMin="73" yMin="0" xMax="635" yMax="663">
      <contour>
        <pt x="529" y="297" on="1"/>
        <pt x="179" y="297" on="1"/>
        <pt x="179" y="0" on="1"/>
        <pt x="73" y="0" on="1"/>
        <pt x="73" y="663" on="1"/>
        <pt x="179" y="663" on="1"/>
        <pt x="179" y="389" on="1"/>
        <pt x="529" y="389" on="1"/>
        <pt x="529" y="663" on="1"/>
        <pt x="635" y="663" on="1"/>
        <pt x="635" y="0" on="1"/>
        <pt x="529" y="0" on="1"/>
      </contour>
    </TTGlyph>
    <TTGlyph name="Hbar" xMin="11" yMin="0" xMax="723" yMax="663">
      <contour>
        <pt x="542" y="297" on="1"/>
        <pt x="192" y="297" on="1"/>
        <pt x="192" y="0" on="1"/>
        <pt x="86" y="0" on="1"/>
        <pt x="86" y="492" on="1"/>
        <pt x="11" y="492" on="1"/>
        <pt x="11" y="569" on="1"/>
        <pt x="86" y="569" on="1"/>
        <pt x="86" y="663" on="1"/>
        <pt x="192" y="663" on="1"/>
        <pt x="192" y="569" on="1"/>
        <pt x="542" y="569" on="1"/>
        <pt x="542" y="663" on="1"/>
        <pt x="648" y="663" on="1"/>
        <pt x="648" y="569" on="1"/>
        <pt x="723" y="569" on="1"/>
        <pt x="723" y="492" on="1"/>
        <pt x="648" y="492" on="1"/>
        <pt x="648" y="0" on="1"/>
        <pt x="542" y="0" on="1"/>
      </contour>
      <contour>
        <pt x="542" y="389" on="1"/>
        <pt x="542" y="492" on="1"/>
        <pt x="192" y="492" on="1"/>
        <pt x="192" y="389" on="1"/>
      </contour>
    </TTGlyph>
    <TTGlyph name="Hcircumflex" xMin="73" yMin="0" xMax="635" yMax="899">
      <component glyphName="H" x="0" y="0" flags="0x204"/>
      <component glyphName="circumflex.cap" x="150" y="0" flags="0x4"/>
    </TTGlyph>
    <TTGlyph name="I" xMin="76" yMin="0" xMax="182" yMax="663">
      <contour>
        <pt x="76" y="663" on="1"/>
        <pt x="182" y="663" on="1"/>
        <pt x="182" y="0" on="1"/>
        <pt x="76" y="0" on="1"/>
      </contour>
    </TTGlyph>
    <TTGlyph name="IJ" xMin="76" yMin="-10" xMax="682" yMax="663">
      <component glyphName="I" x="0" y="0" flags="0x4"/>
      <component glyphName="J" x="255" y="0" flags="0x4"/>
    </TTGlyph>
    <TTGlyph name="Iacute" xMin="10" yMin="0" xMax="263" yMax="910">
      <component glyphName="I" x="0" y="0" flags="0x204"/>
      <component glyphName="acute.cap" x="-65" y="0" flags="0x4"/>
    </TTGlyph>
    <TTGlyph name="Ibreve" xMin="-31" yMin="0" xMax="288" yMax="884">
      <component glyphName="I" x="0" y="0" flags="0x204"/>
      <component glyphName="breve.cap" x="-73" y="0" flags="0x4"/>
    </TTGlyph>
    <TTGlyph name="Icircumflex" xMin="-41" yMin="0" xMax="299" yMax="899">
      <component glyphName="I" x="0" y="0" flags="0x204"/>
      <component glyphName="circumflex.cap" x="-72" y="0" flags="0x4"/>
    </TTGlyph>
    <TTGlyph name="Idieresis" xMin="-21" yMin="0" xMax="280" yMax="855">
      <component glyphName="I" x="0" y="0" flags="0x204"/>
      <component glyphName="dieresis.cap" x="-72" y="0" flags="0x4"/>
    </TTGlyph>
    <TTGlyph name="Idotaccent" xMin="73" yMin="0" xMax="186" yMax="843">
      <component glyphName="I" x="0" y="0" flags="0x204"/>
      <component glyphName="dotaccent.cap" x="-72" y="0" flags="0x4"/>
    </TTGlyph>
    <TTGlyph name="Igrave" xMin="1" yMin="0" xMax="254" yMax="914">
      <component glyphName="I" x="0" y="0" flags="0x204"/>
      <component glyphName="grave.cap" x="-74" y="0" flags="0x4"/>
    </TTGlyph>
    <TTGlyph name="Imacron" xMin="-24" yMin="0" xMax="281" yMax="842">
      <component glyphName="I" x="0" y="0" flags="0x204"/>
      <component glyphName="macron.cap" x="-73" y="0" flags="0x4"/>
    </TTGlyph>
    <TTGlyph name="Iogonek" xMin="11" yMin="-211" xMax="234" yMax="663">
      <contour>
        <pt x="182" y="0" on="1"/>
        <pt x="148" y="-10" on="0"/>
        <pt x="97" y="-64" on="0"/>
        <pt x="97" y="-96" on="1"/>
        <pt x="97" y="-117" on="0"/>
        <pt x="124" y="-141" on="0"/>
        <pt x="150" y="-141" on="1"/>
        <pt x="158" y="-141" on="0"/>
        <pt x="182" y="-139" on="0"/>
        <pt x="193" y="-137" on="1"/>
        <pt x="217" y="-133" on="1"/>
        <pt x="234" y="-185" on="1"/>
        <pt x="210" y="-198" on="0"/>
        <pt x="158" y="-211" on="0"/>
        <pt x="134" y="-211" on="1"/>
        <pt x="78" y="-211" on="0"/>
        <pt x="11" y="-153" on="0"/>
        <pt x="11" y="-103" on="1"/>
        <pt x="11" y="-74" on="0"/>
        <pt x="46" y="-16" on="0"/>
        <pt x="76" y="2" on="1"/>
        <pt x="76" y="663" on="1"/>
        <pt x="182" y="663" on="1"/>
      </contour>
    </TTGlyph>
    <TTGlyph name="Itilde" xMin="-44" yMin="0" xMax="302" yMax="865">
      <component glyphName="I" x="0" y="0" flags="0x204"/>
      <component glyphName="tilde.cap" x="-73" y="0" flags="0x4"/>
    </TTGlyph>
    <TTGlyph name="J" xMin="24" yMin="-10" xMax="427" yMax="663">
      <contour>
        <pt x="51" y="111" on="1"/>
        <pt x="97" y="101" on="1"/>
        <pt x="137" y="92" on="0"/>
        <pt x="199" y="84" on="0"/>
        <pt x="219" y="84" on="1"/>
        <pt x="277" y="84" on="0"/>
        <pt x="301" y="112" on="1"/>
        <pt x="312" y="126" on="0"/>
        <pt x="321" y="167" on="0"/>
        <pt x="321" y="198" on="1"/>
        <pt x="321" y="663" on="1"/>
        <pt x="427" y="663" on="1"/>
        <pt x="427" y="187" on="1"/>
        <pt x="427" y="136" on="0"/>
        <pt x="404" y="66" on="0"/>
        <pt x="379" y="41" on="1"/>
        <pt x="355" y="17" on="0"/>
        <pt x="282" y="-10" on="0"/>
        <pt x="231" y="-10" on="1"/>
        <pt x="180" y="-10" on="0"/>
        <pt x="68" y="24" on="0"/>
        <pt x="24" y="50" on="1"/>
      </contour>
    </TTGlyph>
    <TTGlyph name="Jcircumflex" xMin="24" yMin="-10" xMax="544" yMax="899">
      <component glyphName="J" x="0" y="0" flags="0x204"/>
      <component glyphName="circumflex.cap" x="173" y="0" flags="0x4"/>
    </TTGlyph>
    <TTGlyph name="K" xMin="73" yMin="0" xMax="634" yMax="669">
      <contour>
        <pt x="280" y="327" on="1"/>
        <pt x="270" y="319" on="0"/>
        <pt x="244" y="298" on="0"/>
        <pt x="216" y="278" on="0"/>
        <pt x="189" y="259" on="0"/>
        <pt x="179" y="253" on="1"/>
        <pt x="179" y="0" on="1"/>
        <pt x="73" y="0" on="1"/>
        <pt x="73" y="663" on="1"/>
        <pt x="179" y="663" on="1"/>
        <pt x="179" y="349" on="1"/>
        <pt x="548" y="669" on="1"/>
        <pt x="607" y="604" on="1"/>
        <pt x="355" y="390" on="1"/>
        <pt x="634" y="0" on="1"/>
        <pt x="526" y="0" on="1"/>
        <pt x="517" y="0" on="0"/>
        <pt x="508" y="4" on="0"/>
        <pt x="503" y="10" on="1"/>
      </contour>
    </TTGlyph>
    <TTGlyph name="Kcommaaccent" xMin="73" yMin="-276" xMax="634" yMax="669">
      <component glyphName="K" x="0" y="0" flags="0x204"/>
      <component glyphName="commaaccent" x="106" y="0" flags="0x4"/>
    </TTGlyph>
    <TTGlyph name="L" xMin="73" yMin="0" xMax="505" yMax="663">
      <contour>
        <pt x="179" y="89" on="1"/>
        <pt x="505" y="89" on="1"/>
        <pt x="505" y="0" on="1"/>
        <pt x="73" y="0" on="1"/>
        <pt x="73" y="663" on="1"/>
        <pt x="179" y="663" on="1"/>
      </contour>
    </TTGlyph>
    <TTGlyph name="Lacute" xMin="38" yMin="0" xMax="505" yMax="910">
      <component glyphName="L" x="0" y="0" flags="0x204"/>
      <component glyphName="acute.cap" x="-37" y="0" flags="0x4"/>
    </TTGlyph>
    <TTGlyph name="Lcaron" xMin="73" yMin="0" xMax="505" yMax="663">
      <component glyphName="L" x="0" y="0" flags="0x204"/>
      <component glyphName="commaaccent" x="138" y="721" flags="0x4"/>
    </TTGlyph>
    <TTGlyph name="Lcommaaccent" xMin="73" yMin="-276" xMax="505" yMax="663">
      <component glyphName="L" x="0" y="0" flags="0x204"/>
      <component glyphName="commaaccent" x="86" y="0" flags="0x4"/>
    </TTGlyph>
    <TTGlyph name="Ldot" xMin="73" yMin="0" xMax="505" yMax="663">
      <component glyphName="L" x="0" y="0" flags="0x204"/>
      <component glyphName="dotaccent" x="176" y="-254" flags="0x4"/>
    </TTGlyph>
    <TTGlyph name="Lslash" xMin="3" yMin="0" xMax="564" yMax="663">
      <contour>
        <pt x="52" y="203" on="1"/>
        <pt x="3" y="274" on="1"/>
        <pt x="132" y="360" on="1"/>
        <pt x="132" y="663" on="1"/>
        <pt x="238" y="663" on="1"/>
        <pt x="238" y="417" on="1"/>
        <pt x="391" y="518" on="1"/>
        <pt x="440" y="447" on="1"/>
        <pt x="238" y="312" on="1"/>
        <pt x="238" y="89" on="1"/>
        <pt x="564" y="89" on="1"/>
        <pt x="564" y="0" on="1"/>
        <pt x="132" y="0" on="1"/>
        <pt x="132" y="255" on="1"/>
      </contour>
    </TTGlyph>
    <TTGlyph name="M" xMin="73" yMin="0" xMax="767" yMax="663">
      <contour>
        <pt x="767" y="663" on="1"/>
        <pt x="767" y="0" on="1"/>
        <pt x="664" y="0" on="1"/>
        <pt x="664" y="505" on="1"/>
        <pt x="663" y="505" on="1"/>
        <pt x="657" y="496" on="0"/>
        <pt x="638" y="470" on="0"/>
        <pt x="615" y="438" on="0"/>
        <pt x="590" y="406" on="0"/>
        <pt x="579" y="391" on="1"/>
        <pt x="458" y="237" on="1"/>
        <pt x="400" y="237" on="1"/>
        <pt x="391" y="237" on="0"/>
        <pt x="382" y="241" on="0"/>
        <pt x="377" y="247" on="1"/>
        <pt x="264" y="390" on="1"/>
        <pt x="253" y="404" on="0"/>
        <pt x="227" y="437" on="0"/>
        <pt x="203" y="469" on="0"/>
        <pt x="183" y="497" on="0"/>
        <pt x="178" y="505" on="1"/>
        <pt x="176" y="505" on="1"/>
        <pt x="176" y="0" on="1"/>
        <pt x="73" y="0" on="1"/>
        <pt x="73" y="663" on="1"/>
        <pt x="158" y="663" on="1"/>
        <pt x="169" y="663" on="0"/>
        <pt x="177" y="659" on="0"/>
        <pt x="183" y="651" on="1"/>
        <pt x="425" y="341" on="1"/>
        <pt x="664" y="651" on="1"/>
        <pt x="670" y="659" on="0"/>
        <pt x="679" y="663" on="0"/>
        <pt x="689" y="663" on="1"/>
      </contour>
    </TTGlyph>
    <TTGlyph name="N" xMin="73" yMin="0" xMax="661" yMax="663">
      <contour>
        <pt x="73" y="663" on="1"/>
        <pt x="149" y="663" on="1"/>
        <pt x="158" y="663" on="0"/>
        <pt x="167" y="660" on="0"/>
        <pt x="173" y="652" on="1"/>
        <pt x="443" y="311" on="1"/>
        <pt x="482" y="262" on="0"/>
        <pt x="541" y="185" on="0"/>
        <pt x="558" y="161" on="1"/>
        <pt x="558" y="663" on="1"/>
        <pt x="661" y="663" on="1"/>
        <pt x="661" y="0" on="1"/>
        <pt x="584" y="0" on="1"/>
        <pt x="575" y="0" on="0"/>
        <pt x="566" y="3" on="0"/>
        <pt x="560" y="11" on="1"/>
        <pt x="290" y="352" on="1"/>
        <pt x="212" y="450" on="0"/>
        <pt x="176" y="500" on="1"/>
        <pt x="176" y="0" on="1"/>
        <pt x="73" y="0" on="1"/>
      </contour>
    </TTGlyph>
    <TTGlyph name="Nacute" xMin="72" yMin="0" xMax="660" yMax="910">
      <component glyphName="N" x="-1" y="0" flags="0x4"/>
      <component glyphName="acute.cap" x="181" y="0" flags="0x4"/>
    </TTGlyph>
    <TTGlyph name="Ncaron" xMin="72" yMin="0" xMax="660" yMax="899">
      <component glyphName="N" x="-1" y="0" flags="0x4"/>
      <component glyphName="caron.cap" x="164" y="0" flags="0x4"/>
    </TTGlyph>
    <TTGlyph name="Ncommaaccent" xMin="72" yMin="-276" xMax="660" yMax="663">
      <component glyphName="N" x="-1" y="0" flags="0x4"/>
      <component glyphName="commaaccent" x="162" y="0" flags="0x4"/>
    </TTGlyph>
    <TTGlyph name="Ntilde" xMin="72" yMin="0" xMax="660" yMax="865">
      <component glyphName="N" x="-1" y="0" flags="0x4"/>
      <component glyphName="tilde.cap" x="165" y="0" flags="0x4"/>
    </TTGlyph>
    <TTGlyph name="O" xMin="38" yMin="-10" xMax="694" yMax="673">
      <contour>
        <pt x="694" y="331" on="1"/>
        <pt x="694" y="254" on="0"/>
        <pt x="640" y="128" on="0"/>
        <pt x="550" y="39" on="0"/>
        <pt x="432" y="-10" on="0"/>
        <pt x="367" y="-10" on="1"/>
        <pt x="365" y="-10" on="1"/>
        <pt x="300" y="-10" on="0"/>
        <pt x="182" y="39" on="0"/>
        <pt x="92" y="128" on="0"/>
        <pt x="38" y="254" on="0"/>
        <pt x="38" y="331" on="1"/>
        <pt x="38" y="408" on="0"/>
        <pt x="92" y="534" on="0"/>
        <pt x="182" y="624" on="0"/>
        <pt x="300" y="673" on="0"/>
        <pt x="365" y="673" on="1"/>
        <pt x="367" y="673" on="1"/>
        <pt x="432" y="673" on="0"/>
        <pt x="550" y="624" on="0"/>
        <pt x="640" y="534" on="0"/>
        <pt x="694" y="408" on="0"/>
      </contour>
      <contour>
        <pt x="584" y="331" on="1"/>
        <pt x="584" y="387" on="0"/>
        <pt x="553" y="476" on="0"/>
        <pt x="496" y="537" on="0"/>
        <pt x="416" y="570" on="0"/>
        <pt x="367" y="570" on="1"/>
        <pt x="365" y="570" on="1"/>
        <pt x="316" y="570" on="0"/>
        <pt x="236" y="538" on="0"/>
        <pt x="179" y="476" on="0"/>
        <pt x="148" y="388" on="0"/>
        <pt x="148" y="331" on="1"/>
        <pt x="148" y="275" on="0"/>
        <pt x="179" y="186" on="0"/>
        <pt x="236" y="124" on="0"/>
        <pt x="316" y="92" on="0"/>
        <pt x="365" y="92" on="1"/>
        <pt x="367" y="92" on="1"/>
        <pt x="416" y="92" on="0"/>
        <pt x="496" y="124" on="0"/>
        <pt x="553" y="186" on="0"/>
        <pt x="584" y="275" on="0"/>
      </contour>
    </TTGlyph>
    <TTGlyph name="OE" xMin="38" yMin="-10" xMax="1038" yMax="673">
      <contour>
        <pt x="1027" y="663" on="1"/>
        <pt x="1027" y="574" on="1"/>
        <pt x="684" y="574" on="1"/>
        <pt x="684" y="386" on="1"/>
        <pt x="991" y="386" on="1"/>
        <pt x="991" y="297" on="1"/>
        <pt x="684" y="297" on="1"/>
        <pt x="684" y="89" on="1"/>
        <pt x="1038" y="89" on="1"/>
        <pt x="1038" y="0" on="1"/>
        <pt x="578" y="0" on="1"/>
        <pt x="578" y="95" on="1"/>
        <pt x="546" y="50" on="0"/>
        <pt x="435" y="-10" on="0"/>
        <pt x="364" y="-10" on="1"/>
        <pt x="298" y="-10" on="0"/>
        <pt x="179" y="39" on="0"/>
        <pt x="90" y="128" on="0"/>
        <pt x="38" y="254" on="0"/>
        <pt x="38" y="331" on="1"/>
        <pt x="38" y="408" on="0"/>
        <pt x="90" y="534" on="0"/>
        <pt x="179" y="624" on="0"/>
        <pt x="298" y="673" on="0"/>
        <pt x="364" y="673" on="1"/>
        <pt x="435" y="673" on="0"/>
        <pt x="546" y="612" on="0"/>
        <pt x="578" y="568" on="1"/>
        <pt x="578" y="663" on="1"/>
      </contour>
      <contour>
        <pt x="584" y="331" on="1"/>
        <pt x="584" y="387" on="0"/>
        <pt x="553" y="476" on="0"/>
        <pt x="496" y="537" on="0"/>
        <pt x="416" y="570" on="0"/>
        <pt x="367" y="570" on="1"/>
        <pt x="365" y="570" on="1"/>
        <pt x="316" y="570" on="0"/>
        <pt x="236" y="538" on="0"/>
        <pt x="179" y="476" on="0"/>
        <pt x="148" y="388" on="0"/>
        <pt x="148" y="331" on="1"/>
        <pt x="148" y="275" on="0"/>
        <pt x="179" y="186" on="0"/>
        <pt x="236" y="124" on="0"/>
        <pt x="316" y="92" on="0"/>
        <pt x="365" y="92" on="1"/>
        <pt x="367" y="92" on="1"/>
        <pt x="416" y="92" on="0"/>
        <pt x="496" y="124" on="0"/>
        <pt x="553" y="186" on="0"/>
        <pt x="584" y="275" on="0"/>
      </contour>
    </TTGlyph>
    <TTGlyph name="Oacute" xMin="38" yMin="-10" xMax="694" yMax="910">
      <component glyphName="O" x="0" y="0" flags="0x204"/>
      <component glyphName="acute.cap" x="174" y="0" flags="0x4"/>
    </TTGlyph>
    <TTGlyph name="Obreve" xMin="38" yMin="-10" xMax="694" yMax="884">
      <component glyphName="O" x="0" y="0" flags="0x204"/>
      <component glyphName="breve.cap" x="164" y="0" flags="0x4"/>
    </TTGlyph>
    <TTGlyph name="Ocircumflex" xMin="38" yMin="-10" xMax="694" yMax="899">
      <component glyphName="O" x="0" y="0" flags="0x204"/>
      <component glyphName="circumflex.cap" x="164" y="0" flags="0x4"/>
    </TTGlyph>
    <TTGlyph name="Odieresis" xMin="38" yMin="-10" xMax="694" yMax="855">
      <component glyphName="O" x="0" y="0" flags="0x204"/>
      <component glyphName="dieresis.cap" x="164" y="0" flags="0x4"/>
    </TTGlyph>
    <TTGlyph name="Ograve" xMin="38" yMin="-10" xMax="694" yMax="914">
      <component glyphName="O" x="0" y="0" flags="0x204"/>
      <component glyphName="grave.cap" x="170" y="0" flags="0x4"/>
    </TTGlyph>
    <TTGlyph name="Ohungarumlaut" xMin="38" yMin="-10" xMax="694" yMax="950">
      <component glyphName="O" x="0" y="0" flags="0x204"/>
      <component glyphName="hungarumlaut.cap" x="179" y="0" flags="0x4"/>
    </TTGlyph>
    <TTGlyph name="Omacron" xMin="38" yMin="-10" xMax="694" yMax="842">
      <component glyphName="O" x="0" y="0" flags="0x204"/>
      <component glyphName="macron.cap" x="164" y="0" flags="0x4"/>
    </TTGlyph>
    <TTGlyph name="Omega" xMin="52" yMin="0" xMax="676" yMax="673">
      <contour>
        <pt x="364" y="574" on="1"/>
        <pt x="322" y="574" on="0"/>
        <pt x="248" y="554" on="0"/>
        <pt x="193" y="510" on="0"/>
        <pt x="160" y="441" on="0"/>
        <pt x="160" y="392" on="1"/>
        <pt x="160" y="338" on="0"/>
        <pt x="197" y="242" on="0"/>
        <pt x="230" y="190" on="1"/>
        <pt x="305" y="73" on="1"/>
        <pt x="313" y="61" on="0"/>
        <pt x="317" y="49" on="0"/>
        <pt x="317" y="37" on="1"/>
        <pt x="317" y="0" on="1"/>
        <pt x="74" y="0" on="1"/>
        <pt x="74" y="85" on="1"/>
        <pt x="207" y="85" on="1"/>
        <pt x="181" y="116" on="1"/>
        <pt x="146" y="157" on="0"/>
        <pt x="97" y="228" on="0"/>
        <pt x="66" y="294" on="0"/>
        <pt x="52" y="360" on="0"/>
        <pt x="52" y="396" on="1"/>
        <pt x="52" y="456" on="0"/>
        <pt x="102" y="557" on="0"/>
        <pt x="187" y="631" on="0"/>
        <pt x="301" y="673" on="0"/>
        <pt x="364" y="673" on="1"/>
        <pt x="427" y="673" on="0"/>
        <pt x="541" y="631" on="0"/>
        <pt x="626" y="557" on="0"/>
        <pt x="676" y="456" on="0"/>
        <pt x="676" y="396" on="1"/>
        <pt x="676" y="360" on="0"/>
        <pt x="662" y="294" on="0"/>
        <pt x="631" y="228" on="0"/>
        <pt x="582" y="157" on="0"/>
        <pt x="547" y="116" on="1"/>
        <pt x="521" y="85" on="1"/>
        <pt x="654" y="85" on="1"/>
        <pt x="654" y="0" on="1"/>
        <pt x="411" y="0" on="1"/>
        <pt x="411" y="37" on="1"/>
        <pt x="411" y="49" on="0"/>
        <pt x="415" y="61" on="0"/>
        <pt x="423" y="73" on="1"/>
        <pt x="498" y="190" on="1"/>
        <pt x="531" y="242" on="0"/>
        <pt x="568" y="338" on="0"/>
        <pt x="568" y="392" on="1"/>
        <pt x="568" y="441" on="0"/>
        <pt x="535" y="510" on="0"/>
        <pt x="480" y="554" on="0"/>
        <pt x="406" y="574" on="0"/>
      </contour>
    </TTGlyph>
    <TTGlyph name="Oslash" xMin="38" yMin="-46" xMax="694" yMax="712">
      <contour>
        <pt x="367" y="-10" on="1"/>
        <pt x="319" y="-10" on="0"/>
        <pt x="226" y="16" on="0"/>
        <pt x="187" y="42" on="1"/>
        <pt x="120" y="-46" on="1"/>
        <pt x="56" y="1" on="1"/>
        <pt x="127" y="93" on="1"/>
        <pt x="85" y="138" on="0"/>
        <pt x="38" y="258" on="0"/>
        <pt x="38" y="331" on="1"/>
        <pt x="38" y="408" on="0"/>
        <pt x="92" y="534" on="0"/>
        <pt x="182" y="624" on="0"/>
        <pt x="300" y="673" on="0"/>
        <pt x="365" y="673" on="1"/>
        <pt x="367" y="673" on="1"/>
        <pt x="412" y="673" on="0"/>
        <pt x="495" y="650" on="0"/>
        <pt x="532" y="628" on="1"/>
        <pt x="596" y="712" on="1"/>
        <pt x="659" y="667" on="1"/>
        <pt x="594" y="580" on="1"/>
        <pt x="640" y="535" on="0"/>
        <pt x="694" y="409" on="0"/>
        <pt x="694" y="331" on="1"/>
        <pt x="694" y="254" on="0"/>
        <pt x="640" y="128" on="0"/>
        <pt x="550" y="39" on="0"/>
        <pt x="432" y="-10" on="0"/>
      </contour>
      <contour>
        <pt x="584" y="331" on="1"/>
        <pt x="584" y="382" on="0"/>
        <pt x="557" y="469" on="0"/>
        <pt x="533" y="499" on="1"/>
        <pt x="247" y="123" on="1"/>
        <pt x="297" y="92" on="0"/>
        <pt x="365" y="92" on="1"/>
        <pt x="367" y="92" on="1"/>
        <pt x="416" y="92" on="0"/>
        <pt x="496" y="124" on="0"/>
        <pt x="553" y="186" on="0"/>
        <pt x="584" y="275" on="0"/>
      </contour>
      <contour>
        <pt x="148" y="331" on="1"/>
        <pt x="148" y="285" on="0"/>
        <pt x="170" y="205" on="0"/>
        <pt x="190" y="176" on="1"/>
        <pt x="471" y="547" on="1"/>
        <pt x="449" y="558" on="0"/>
        <pt x="396" y="570" on="0"/>
        <pt x="367" y="570" on="1"/>
        <pt x="365" y="570" on="1"/>
        <pt x="316" y="570" on="0"/>
        <pt x="236" y="538" on="0"/>
        <pt x="179" y="476" on="0"/>
        <pt x="148" y="388" on="0"/>
      </contour>
    </TTGlyph>
    <TTGlyph name="Oslashacute" xMin="38" yMin="-46" xMax="694" yMax="910">
      <component glyphName="Oslash" x="0" y="0" flags="0x204"/>
      <component glyphName="acute.cap" x="174" y="0" flags="0x4"/>
    </TTGlyph>
    <TTGlyph name="Otilde" xMin="38" yMin="-10" xMax="694" yMax="865">
      <component glyphName="O" x="0" y="0" flags="0x204"/>
      <component glyphName="tilde.cap" x="164" y="0" flags="0x4"/>
    </TTGlyph>
    <TTGlyph name="P" xMin="73" yMin="0" xMax="582" yMax="663">
      <contour>
        <pt x="179" y="0" on="1"/>
        <pt x="73" y="0" on="1"/>
        <pt x="73" y="663" on="1"/>
        <pt x="313" y="663" on="1"/>
        <pt x="387" y="663" on="0"/>
        <pt x="493" y="633" on="0"/>
        <pt x="527" y="599" on="1"/>
        <pt x="553" y="573" on="0"/>
        <pt x="582" y="497" on="0"/>
        <pt x="582" y="446" on="1"/>
        <pt x="582" y="395" on="0"/>
        <pt x="553" y="310" on="0"/>
        <pt x="522" y="279" on="1"/>
        <pt x="491" y="249" on="0"/>
        <pt x="415" y="223" on="0"/>
        <pt x="357" y="223" on="1"/>
        <pt x="179" y="223" on="1"/>
      </contour>
      <contour>
        <pt x="393" y="311" on="1"/>
        <pt x="416" y="311" on="0"/>
        <pt x="441" y="327" on="0"/>
        <pt x="449" y="341" on="1"/>
        <pt x="460" y="360" on="0"/>
        <pt x="473" y="413" on="0"/>
        <pt x="473" y="445" on="1"/>
        <pt x="473" y="510" on="0"/>
        <pt x="446" y="539" on="1"/>
        <pt x="428" y="558" on="0"/>
        <pt x="369" y="573" on="0"/>
        <pt x="324" y="573" on="1"/>
        <pt x="179" y="573" on="1"/>
        <pt x="179" y="311" on="1"/>
      </contour>
    </TTGlyph>
    <TTGlyph name="Q" xMin="38" yMin="-178" xMax="694" yMax="673">
      <contour>
        <pt x="694" y="331" on="1"/>
        <pt x="694" y="278" on="0"/>
        <pt x="668" y="186" on="0"/>
        <pt x="623" y="109" on="0"/>
        <pt x="559" y="49" on="0"/>
        <pt x="522" y="29" on="1"/>
        <pt x="631" y="-136" on="1"/>
        <pt x="526" y="-178" on="1"/>
        <pt x="429" y="-4" on="1"/>
        <pt x="397" y="-10" on="0"/>
        <pt x="367" y="-10" on="1"/>
        <pt x="365" y="-10" on="1"/>
        <pt x="300" y="-10" on="0"/>
        <pt x="182" y="39" on="0"/>
        <pt x="92" y="128" on="0"/>
        <pt x="38" y="254" on="0"/>
        <pt x="38" y="331" on="1"/>
        <pt x="38" y="408" on="0"/>
        <pt x="92" y="534" on="0"/>
        <pt x="182" y="624" on="0"/>
        <pt x="300" y="673" on="0"/>
        <pt x="365" y="673" on="1"/>
        <pt x="367" y="673" on="1"/>
        <pt x="432" y="673" on="0"/>
        <pt x="550" y="624" on="0"/>
        <pt x="640" y="534" on="0"/>
        <pt x="694" y="408" on="0"/>
      </contour>
      <contour>
        <pt x="584" y="331" on="1"/>
        <pt x="584" y="387" on="0"/>
        <pt x="553" y="476" on="0"/>
        <pt x="496" y="537" on="0"/>
        <pt x="416" y="570" on="0"/>
        <pt x="367" y="570" on="1"/>
        <pt x="365" y="570" on="1"/>
        <pt x="316" y="570" on="0"/>
        <pt x="236" y="538" on="0"/>
        <pt x="179" y="476" on="0"/>
        <pt x="148" y="388" on="0"/>
        <pt x="148" y="331" on="1"/>
        <pt x="148" y="275" on="0"/>
        <pt x="179" y="186" on="0"/>
        <pt x="236" y="124" on="0"/>
        <pt x="316" y="92" on="0"/>
        <pt x="365" y="92" on="1"/>
        <pt x="367" y="92" on="1"/>
        <pt x="416" y="92" on="0"/>
        <pt x="496" y="124" on="0"/>
        <pt x="553" y="186" on="0"/>
        <pt x="584" y="275" on="0"/>
      </contour>
    </TTGlyph>
    <TTGlyph name="R" xMin="73" yMin="0" xMax="619" yMax="663">
      <contour>
        <pt x="584" y="451" on="1"/>
        <pt x="584" y="387" on="0"/>
        <pt x="524" y="279" on="0"/>
        <pt x="468" y="253" on="1"/>
        <pt x="619" y="0" on="1"/>
        <pt x="518" y="0" on="1"/>
        <pt x="509" y="0" on="0"/>
        <pt x="500" y="4" on="0"/>
        <pt x="495" y="12" on="1"/>
        <pt x="372" y="225" on="1"/>
        <pt x="367" y="233" on="0"/>
        <pt x="359" y="237" on="0"/>
        <pt x="349" y="237" on="1"/>
        <pt x="179" y="237" on="1"/>
        <pt x="179" y="0" on="1"/>
        <pt x="73" y="0" on="1"/>
        <pt x="73" y="663" on="1"/>
        <pt x="315" y="663" on="1"/>
        <pt x="390" y="663" on="0"/>
        <pt x="495" y="634" on="0"/>
        <pt x="529" y="600" on="1"/>
        <pt x="555" y="574" on="0"/>
        <pt x="584" y="499" on="0"/>
      </contour>
      <contour>
        <pt x="397" y="325" on="1"/>
        <pt x="420" y="325" on="0"/>
        <pt x="444" y="340" on="0"/>
        <pt x="452" y="354" on="1"/>
        <pt x="475" y="394" on="0"/>
        <pt x="475" y="451" on="1"/>
        <pt x="475" y="480" on="0"/>
        <pt x="462" y="526" on="0"/>
        <pt x="448" y="540" on="1"/>
        <pt x="430" y="559" on="0"/>
        <pt x="371" y="573" on="0"/>
        <pt x="326" y="573" on="1"/>
        <pt x="179" y="573" on="1"/>
        <pt x="179" y="325" on="1"/>
      </contour>
    </TTGlyph>
    <TTGlyph name="Racute" xMin="73" yMin="0" xMax="619" yMax="910">
      <component glyphName="R" x="0" y="0" flags="0x204"/>
      <component glyphName="acute.cap" x="137" y="0" flags="0x4"/>
    </TTGlyph>
    <TTGlyph name="Rcaron" xMin="73" yMin="0" xMax="619" yMax="899">
      <component glyphName="R" x="0" y="0" flags="0x204"/>
      <component glyphName="caron.cap" x="125" y="0" flags="0x4"/>
    </TTGlyph>
    <TTGlyph name="Rcommaaccent" xMin="73" yMin="-276" xMax="619" yMax="663">
      <component glyphName="R" x="0" y="0" flags="0x204"/>
      <component glyphName="commaaccent" x="111" y="0" flags="0x4"/>
    </TTGlyph>
    <TTGlyph name="S" xMin="44" yMin="-10" xMax="531" yMax="673">
      <contour>
        <pt x="124" y="109" on="1"/>
        <pt x="174" y="97" on="0"/>
        <pt x="261" y="84" on="0"/>
        <pt x="296" y="84" on="1"/>
        <pt x="353" y="84" on="0"/>
        <pt x="431" y="137" on="0"/>
        <pt x="431" y="189" on="1"/>
        <pt x="431" y="210" on="0"/>
        <pt x="418" y="240" on="0"/>
        <pt x="390" y="264" on="0"/>
        <pt x="346" y="283" on="0"/>
        <pt x="314" y="294" on="1"/>
        <pt x="241" y="318" on="1"/>
        <pt x="196" y="333" on="0"/>
        <pt x="126" y="367" on="0"/>
        <pt x="77" y="411" on="0"/>
        <pt x="52" y="467" on="0"/>
        <pt x="52" y="502" on="1"/>
        <pt x="52" y="547" on="0"/>
        <pt x="91" y="612" on="0"/>
        <pt x="157" y="653" on="0"/>
        <pt x="244" y="673" on="0"/>
        <pt x="292" y="673" on="1"/>
        <pt x="341" y="673" on="0"/>
        <pt x="450" y="652" on="0"/>
        <pt x="498" y="633" on="1"/>
        <pt x="482" y="562" on="1"/>
        <pt x="450" y="566" on="1"/>
        <pt x="405" y="572" on="0"/>
        <pt x="323" y="579" on="0"/>
        <pt x="293" y="579" on="1"/>
        <pt x="223" y="579" on="0"/>
        <pt x="150" y="546" on="0"/>
        <pt x="150" y="503" on="1"/>
        <pt x="150" y="468" on="0"/>
        <pt x="208" y="430" on="0"/>
        <pt x="267" y="410" on="1"/>
        <pt x="330" y="389" on="1"/>
        <pt x="381" y="372" on="0"/>
        <pt x="456" y="336" on="0"/>
        <pt x="506" y="291" on="0"/>
        <pt x="531" y="232" on="0"/>
        <pt x="531" y="192" on="1"/>
        <pt x="531" y="148" on="0"/>
        <pt x="499" y="74" on="0"/>
        <pt x="438" y="20" on="0"/>
        <pt x="350" y="-10" on="0"/>
        <pt x="293" y="-10" on="1"/>
        <pt x="262" y="-10" on="0"/>
        <pt x="193" y="1" on="0"/>
        <pt x="127" y="19" on="0"/>
        <pt x="67" y="43" on="0"/>
        <pt x="44" y="56" on="1"/>
        <pt x="69" y="122" on="1"/>
      </contour>
    </TTGlyph>
    <TTGlyph name="Sacute" xMin="44" yMin="-10" xMax="531" yMax="910">
      <component glyphName="S" x="0" y="0" flags="0x204"/>
      <component glyphName="acute.cap" x="95" y="0" flags="0x4"/>
    </TTGlyph>
    <TTGlyph name="Scaron" xMin="44" yMin="-10" xMax="531" yMax="899">
      <component glyphName="S" x="0" y="0" flags="0x204"/>
      <component glyphName="caron.cap" x="91" y="0" flags="0x4"/>
    </TTGlyph>
    <TTGlyph name="Scedilla" xMin="44" yMin="-234" xMax="531" yMax="673">
      <contour>
        <pt x="135" y="108" on="1"/>
        <pt x="177" y="97" on="0"/>
        <pt x="262" y="84" on="0"/>
        <pt x="293" y="84" on="1"/>
        <pt x="356" y="84" on="0"/>
        <pt x="432" y="137" on="0"/>
        <pt x="432" y="189" on="1"/>
        <pt x="432" y="210" on="0"/>
        <pt x="419" y="240" on="0"/>
        <pt x="391" y="264" on="0"/>
        <pt x="346" y="283" on="0"/>
        <pt x="314" y="294" on="1"/>
        <pt x="241" y="318" on="1"/>
        <pt x="196" y="333" on="0"/>
        <pt x="126" y="367" on="0"/>
        <pt x="78" y="411" on="0"/>
        <pt x="52" y="467" on="0"/>
        <pt x="52" y="502" on="1"/>
        <pt x="52" y="547" on="0"/>
        <pt x="91" y="612" on="0"/>
        <pt x="157" y="653" on="0"/>
        <pt x="243" y="673" on="0"/>
        <pt x="291" y="673" on="1"/>
        <pt x="341" y="673" on="0"/>
        <pt x="450" y="651" on="0"/>
        <pt x="498" y="633" on="1"/>
        <pt x="482" y="562" on="1"/>
        <pt x="450" y="566" on="1"/>
        <pt x="405" y="572" on="0"/>
        <pt x="322" y="579" on="0"/>
        <pt x="292" y="579" on="1"/>
        <pt x="221" y="579" on="0"/>
        <pt x="149" y="546" on="0"/>
        <pt x="149" y="503" on="1"/>
        <pt x="149" y="468" on="0"/>
        <pt x="208" y="430" on="0"/>
        <pt x="267" y="410" on="1"/>
        <pt x="330" y="389" on="1"/>
        <pt x="380" y="372" on="0"/>
        <pt x="456" y="336" on="0"/>
        <pt x="506" y="291" on="0"/>
        <pt x="531" y="232" on="0"/>
        <pt x="531" y="192" on="1"/>
        <pt x="531" y="150" on="0"/>
        <pt x="502" y="79" on="0"/>
        <pt x="446" y="26" on="0"/>
        <pt x="364" y="-6" on="0"/>
        <pt x="310" y="-9" on="1"/>
        <pt x="300" y="-26" on="0"/>
        <pt x="300" y="-37" on="1"/>
        <pt x="300" y="-48" on="0"/>
        <pt x="335" y="-59" on="0"/>
        <pt x="376" y="-75" on="0"/>
        <pt x="411" y="-105" on="0"/>
        <pt x="411" y="-134" on="1"/>
        <pt x="411" y="-178" on="0"/>
        <pt x="322" y="-234" on="0"/>
        <pt x="233" y="-234" on="1"/>
        <pt x="222" y="-178" on="1"/>
        <pt x="283" y="-167" on="1"/>
        <pt x="306" y="-163" on="0"/>
        <pt x="322" y="-149" on="0"/>
        <pt x="322" y="-141" on="1"/>
        <pt x="322" y="-132" on="0"/>
        <pt x="290" y="-120" on="0"/>
        <pt x="253" y="-105" on="0"/>
        <pt x="221" y="-84" on="0"/>
        <pt x="221" y="-64" on="1"/>
        <pt x="221" y="-51" on="0"/>
        <pt x="237" y="-22" on="0"/>
        <pt x="250" y="-8" on="1"/>
        <pt x="194" y="-2" on="0"/>
        <pt x="82" y="35" on="0"/>
        <pt x="44" y="59" on="1"/>
        <pt x="71" y="124" on="1"/>
      </contour>
    </TTGlyph>
    <TTGlyph name="Scircumflex" xMin="44" yMin="-10" xMax="531" yMax="899">
      <component glyphName="S" x="0" y="0" flags="0x204"/>
      <component glyphName="circumflex.cap" x="91" y="0" flags="0x4"/>
    </TTGlyph>
    <TTGlyph name="Scommaaccent" xMin="44" yMin="-276" xMax="531" yMax="673">
      <component glyphName="S" x="0" y="0" flags="0x204"/>
      <component glyphName="commaaccent" x="82" y="0" flags="0x4"/>
    </TTGlyph>
    <TTGlyph name="T" xMin="20" yMin="0" xMax="572" yMax="663">
      <contour>
        <pt x="349" y="0" on="1"/>
        <pt x="243" y="0" on="1"/>
        <pt x="243" y="574" on="1"/>
        <pt x="20" y="574" on="1"/>
        <pt x="20" y="663" on="1"/>
        <pt x="572" y="663" on="1"/>
        <pt x="572" y="574" on="1"/>
        <pt x="349" y="574" on="1"/>
      </contour>
    </TTGlyph>
    <TTGlyph name="Tbar" xMin="20" yMin="0" xMax="572" yMax="663">
      <contour>
        <pt x="96" y="292" on="1"/>
        <pt x="96" y="372" on="1"/>
        <pt x="243" y="372" on="1"/>
        <pt x="243" y="574" on="1"/>
        <pt x="20" y="574" on="1"/>
        <pt x="20" y="663" on="1"/>
        <pt x="572" y="663" on="1"/>
        <pt x="572" y="574" on="1"/>
        <pt x="349" y="574" on="1"/>
        <pt x="349" y="372" on="1"/>
        <pt x="495" y="372" on="1"/>
        <pt x="495" y="292" on="1"/>
        <pt x="349" y="292" on="1"/>
        <pt x="349" y="0" on="1"/>
        <pt x="243" y="0" on="1"/>
        <pt x="243" y="292" on="1"/>
      </contour>
    </TTGlyph>
    <TTGlyph name="Tcaron" xMin="20" yMin="0" xMax="572" yMax="899">
      <component glyphName="T" x="0" y="0" flags="0x204"/>
      <component glyphName="caron.cap" x="96" y="0" flags="0x4"/>
    </TTGlyph>
    <TTGlyph name="Tcommaaccent" xMin="20" yMin="-276" xMax="572" yMax="663">
      <component glyphName="T" x="0" y="0" flags="0x204"/>
      <component glyphName="commaaccent" x="85" y="0" flags="0x4"/>
    </TTGlyph>
    <TTGlyph name="Thorn" xMin="73" yMin="0" xMax="582" yMax="663">
      <contour>
        <pt x="179" y="0" on="1"/>
        <pt x="73" y="0" on="1"/>
        <pt x="73" y="663" on="1"/>
        <pt x="179" y="663" on="1"/>
        <pt x="179" y="555" on="1"/>
        <pt x="313" y="555" on="1"/>
        <pt x="387" y="555" on="0"/>
        <pt x="493" y="525" on="0"/>
        <pt x="527" y="491" on="1"/>
        <pt x="553" y="465" on="0"/>
        <pt x="582" y="389" on="0"/>
        <pt x="582" y="338" on="1"/>
        <pt x="582" y="287" on="0"/>
        <pt x="553" y="202" on="0"/>
        <pt x="522" y="171" on="1"/>
        <pt x="491" y="141" on="0"/>
        <pt x="415" y="115" on="0"/>
        <pt x="357" y="115" on="1"/>
        <pt x="179" y="115" on="1"/>
      </contour>
      <contour>
        <pt x="393" y="205" on="1"/>
        <pt x="416" y="205" on="0"/>
        <pt x="441" y="221" on="0"/>
        <pt x="449" y="235" on="1"/>
        <pt x="460" y="254" on="0"/>
        <pt x="473" y="305" on="0"/>
        <pt x="473" y="337" on="1"/>
        <pt x="473" y="401" on="0"/>
        <pt x="446" y="430" on="1"/>
        <pt x="428" y="449" on="0"/>
        <pt x="369" y="464" on="0"/>
        <pt x="324" y="464" on="1"/>
        <pt x="179" y="464" on="1"/>
        <pt x="179" y="205" on="1"/>
      </contour>
    </TTGlyph>
    <TTGlyph name="U" xMin="67" yMin="-10" xMax="628" yMax="663">
      <contour>
        <pt x="628" y="256" on="1"/>
        <pt x="628" y="189" on="0"/>
        <pt x="591" y="93" on="0"/>
        <pt x="553" y="59" on="1"/>
        <pt x="518" y="27" on="0"/>
        <pt x="414" y="-10" on="0"/>
        <pt x="348" y="-10" on="1"/>
        <pt x="282" y="-10" on="0"/>
        <pt x="178" y="27" on="0"/>
        <pt x="143" y="59" on="1"/>
        <pt x="105" y="93" on="0"/>
        <pt x="67" y="189" on="0"/>
        <pt x="67" y="256" on="1"/>
        <pt x="67" y="663" on="1"/>
        <pt x="173" y="663" on="1"/>
        <pt x="173" y="270" on="1"/>
        <pt x="173" y="219" on="0"/>
        <pt x="194" y="153" on="0"/>
        <pt x="218" y="131" on="1"/>
        <pt x="238" y="113" on="0"/>
        <pt x="305" y="91" on="0"/>
        <pt x="348" y="91" on="1"/>
        <pt x="391" y="91" on="0"/>
        <pt x="458" y="113" on="0"/>
        <pt x="478" y="131" on="1"/>
        <pt x="502" y="153" on="0"/>
        <pt x="524" y="219" on="0"/>
        <pt x="524" y="270" on="1"/>
        <pt x="524" y="663" on="1"/>
        <pt x="628" y="663" on="1"/>
      </contour>
    </TTGlyph>
    <TTGlyph name="Uacute" xMin="67" yMin="-10" xMax="628" yMax="910">
      <component glyphName="U" x="0" y="0" flags="0x204"/>
      <component glyphName="acute.cap" x="178" y="0" flags="0x4"/>
    </TTGlyph>
    <TTGlyph name="Ubreve" xMin="67" yMin="-10" xMax="628" yMax="878">
      <component glyphName="U" x="0" y="0" flags="0x204"/>
      <component glyphName="breve.cap" x="146" y="-6" flags="0x4"/>
    </TTGlyph>
    <TTGlyph name="Ucircumflex" xMin="67" yMin="-10" xMax="628" yMax="899">
      <component glyphName="U" x="0" y="0" flags="0x204"/>
      <component glyphName="circumflex.cap" x="147" y="0" flags="0x4"/>
    </TTGlyph>
    <TTGlyph name="Udieresis" xMin="67" yMin="-10" xMax="628" yMax="855">
      <component glyphName="U" x="0" y="0" flags="0x204"/>
      <component glyphName="dieresis.cap" x="146" y="0" flags="0x4"/>
    </TTGlyph>
    <TTGlyph name="Ugrave" xMin="67" yMin="-10" xMax="628" yMax="914">
      <component glyphName="U" x="0" y="0" flags="0x204"/>
      <component glyphName="grave.cap" x="127" y="0" flags="0x4"/>
    </TTGlyph>
    <TTGlyph name="Uhungarumlaut" xMin="67" yMin="-10" xMax="628" yMax="950">
      <component glyphName="U" x="0" y="0" flags="0x204"/>
      <component glyphName="hungarumlaut.cap" x="184" y="0" flags="0x4"/>
    </TTGlyph>
    <TTGlyph name="Umacron" xMin="67" yMin="-10" xMax="628" yMax="842">
      <component glyphName="U" x="0" y="0" flags="0x204"/>
      <component glyphName="macron.cap" x="145" y="0" flags="0x4"/>
    </TTGlyph>
    <TTGlyph name="Uogonek" xMin="67" yMin="-210" xMax="628" yMax="663">
      <contour>
        <pt x="628" y="663" on="1"/>
        <pt x="628" y="256" on="1"/>
        <pt x="628" y="189" on="0"/>
        <pt x="591" y="94" on="0"/>
        <pt x="553" y="59" on="1"/>
        <pt x="528" y="36" on="0"/>
        <pt x="463" y="4" on="0"/>
        <pt x="406" y="-27" on="0"/>
        <pt x="367" y="-65" on="0"/>
        <pt x="367" y="-93" on="1"/>
        <pt x="367" y="-115" on="0"/>
        <pt x="396" y="-140" on="0"/>
        <pt x="421" y="-140" on="1"/>
        <pt x="429" y="-140" on="0"/>
        <pt x="452" y="-138" on="0"/>
        <pt x="463" y="-136" on="1"/>
        <pt x="487" y="-132" on="1"/>
        <pt x="504" y="-184" on="1"/>
        <pt x="480" y="-197" on="0"/>
        <pt x="428" y="-210" on="0"/>
        <pt x="404" y="-210" on="1"/>
        <pt x="350" y="-210" on="0"/>
        <pt x="281" y="-154" on="0"/>
        <pt x="281" y="-112" on="1"/>
        <pt x="281" y="-77" on="0"/>
        <pt x="320" y="-23" on="0"/>
        <pt x="348" y="-9" on="1"/>
        <pt x="281" y="-9" on="0"/>
        <pt x="178" y="27" on="0"/>
        <pt x="143" y="59" on="1"/>
        <pt x="105" y="93" on="0"/>
        <pt x="67" y="189" on="0"/>
        <pt x="67" y="256" on="1"/>
        <pt x="67" y="663" on="1"/>
        <pt x="173" y="663" on="1"/>
        <pt x="173" y="270" on="1"/>
        <pt x="173" y="219" on="0"/>
        <pt x="194" y="153" on="0"/>
        <pt x="218" y="131" on="1"/>
        <pt x="238" y="113" on="0"/>
        <pt x="305" y="91" on="0"/>
        <pt x="348" y="91" on="1"/>
        <pt x="391" y="91" on="0"/>
        <pt x="458" y="113" on="0"/>
        <pt x="478" y="131" on="1"/>
        <pt x="502" y="153" on="0"/>
        <pt x="524" y="219" on="0"/>
        <pt x="524" y="270" on="1"/>
        <pt x="524" y="663" on="1"/>
      </contour>
    </TTGlyph>
    <TTGlyph name="Uring" xMin="67" yMin="-10" xMax="628" yMax="948">
      <component glyphName="U" x="0" y="0" flags="0x204"/>
      <component glyphName="ring.cap" x="145" y="-6" flags="0x4"/>
    </TTGlyph>
    <TTGlyph name="Utilde" xMin="67" yMin="-10" xMax="628" yMax="865">
      <component glyphName="U" x="0" y="0" flags="0x204"/>
      <component glyphName="tilde.cap" x="148" y="0" flags="0x4"/>
    </TTGlyph>
    <TTGlyph name="V" xMin="12" yMin="0" xMax="651" yMax="663">
      <contour>
        <pt x="651" y="663" on="1"/>
        <pt x="398" y="0" on="1"/>
        <pt x="288" y="0" on="1"/>
        <pt x="279" y="0" on="0"/>
        <pt x="271" y="5" on="0"/>
        <pt x="268" y="12" on="1"/>
        <pt x="12" y="663" on="1"/>
        <pt x="112" y="663" on="1"/>
        <pt x="119" y="663" on="0"/>
        <pt x="124" y="659" on="0"/>
        <pt x="126" y="654" on="1"/>
        <pt x="255" y="324" on="1"/>
        <pt x="267" y="292" on="0"/>
        <pt x="292" y="225" on="0"/>
        <pt x="313" y="164" on="0"/>
        <pt x="330" y="110" on="0"/>
        <pt x="336" y="92" on="1"/>
        <pt x="338" y="92" on="1"/>
        <pt x="344" y="110" on="0"/>
        <pt x="361" y="163" on="0"/>
        <pt x="381" y="224" on="0"/>
        <pt x="404" y="289" on="0"/>
        <pt x="415" y="320" on="1"/>
        <pt x="539" y="654" on="1"/>
        <pt x="543" y="663" on="0"/>
        <pt x="553" y="663" on="1"/>
      </contour>
    </TTGlyph>
    <TTGlyph name="W" xMin="12" yMin="0" xMax="990" yMax="663">
      <contour>
        <pt x="668" y="0" on="1"/>
        <pt x="653" y="0" on="0"/>
        <pt x="649" y="12" on="1"/>
        <pt x="555" y="312" on="1"/>
        <pt x="546" y="342" on="0"/>
        <pt x="527" y="403" on="0"/>
        <pt x="512" y="458" on="0"/>
        <pt x="500" y="503" on="0"/>
        <pt x="497" y="517" on="1"/>
        <pt x="494" y="502" on="0"/>
        <pt x="482" y="456" on="0"/>
        <pt x="468" y="401" on="0"/>
        <pt x="451" y="340" on="0"/>
        <pt x="442" y="309" on="1"/>
        <pt x="351" y="0" on="1"/>
        <pt x="243" y="0" on="1"/>
        <pt x="228" y="0" on="0"/>
        <pt x="224" y="12" on="1"/>
        <pt x="12" y="663" on="1"/>
        <pt x="109" y="663" on="1"/>
        <pt x="116" y="663" on="0"/>
        <pt x="122" y="660" on="0"/>
        <pt x="124" y="654" on="1"/>
        <pt x="231" y="315" on="1"/>
        <pt x="240" y="287" on="0"/>
        <pt x="258" y="228" on="0"/>
        <pt x="274" y="172" on="0"/>
        <pt x="287" y="124" on="0"/>
        <pt x="292" y="106" on="1"/>
        <pt x="295" y="124" on="0"/>
        <pt x="306" y="171" on="0"/>
        <pt x="319" y="225" on="0"/>
        <pt x="334" y="283" on="0"/>
        <pt x="343" y="312" on="1"/>
        <pt x="447" y="663" on="1"/>
        <pt x="538" y="663" on="1"/>
        <pt x="546" y="663" on="0"/>
        <pt x="551" y="659" on="0"/>
        <pt x="553" y="653" on="1"/>
        <pt x="659" y="313" on="1"/>
        <pt x="667" y="287" on="0"/>
        <pt x="683" y="232" on="0"/>
        <pt x="698" y="177" on="0"/>
        <pt x="711" y="126" on="0"/>
        <pt x="716" y="106" on="1"/>
        <pt x="720" y="126" on="0"/>
        <pt x="734" y="177" on="0"/>
        <pt x="749" y="232" on="0"/>
        <pt x="765" y="287" on="0"/>
        <pt x="773" y="310" on="1"/>
        <pt x="882" y="654" on="1"/>
        <pt x="884" y="660" on="0"/>
        <pt x="890" y="663" on="0"/>
        <pt x="896" y="663" on="1"/>
        <pt x="990" y="663" on="1"/>
        <pt x="776" y="0" on="1"/>
      </contour>
    </TTGlyph>
    <TTGlyph name="Wacute" xMin="12" yMin="0" xMax="990" yMax="910">
      <component glyphName="W" x="0" y="0" flags="0x204"/>
      <component glyphName="acute.cap" x="303" y="0" flags="0x4"/>
    </TTGlyph>
    <TTGlyph name="Wcircumflex" xMin="12" yMin="0" xMax="990" yMax="899">
      <component glyphName="W" x="0" y="0" flags="0x204"/>
      <component glyphName="circumflex.cap" x="299" y="0" flags="0x4"/>
    </TTGlyph>
    <TTGlyph name="Wdieresis" xMin="12" yMin="0" xMax="990" yMax="855">
      <component glyphName="W" x="0" y="0" flags="0x204"/>
      <component glyphName="dieresis.cap" x="299" y="0" flags="0x4"/>
    </TTGlyph>
    <TTGlyph name="Wgrave" xMin="12" yMin="0" xMax="990" yMax="914">
      <component glyphName="W" x="0" y="0" flags="0x204"/>
      <component glyphName="grave.cap" x="299" y="0" flags="0x4"/>
    </TTGlyph>
    <TTGlyph name="X" xMin="8" yMin="0" xMax="647" yMax="663">
      <contour>
        <pt x="8" y="0" on="1"/>
        <pt x="258" y="348" on="1"/>
        <pt x="19" y="663" on="1"/>
        <pt x="126" y="663" on="1"/>
        <pt x="135" y="663" on="0"/>
        <pt x="142" y="660" on="0"/>
        <pt x="147" y="654" on="1"/>
        <pt x="323" y="420" on="1"/>
        <pt x="489" y="654" on="1"/>
        <pt x="494" y="660" on="0"/>
        <pt x="501" y="663" on="0"/>
        <pt x="509" y="663" on="1"/>
        <pt x="608" y="663" on="1"/>
        <pt x="382" y="348" on="1"/>
        <pt x="647" y="0" on="1"/>
        <pt x="541" y="0" on="1"/>
        <pt x="533" y="0" on="0"/>
        <pt x="525" y="3" on="0"/>
        <pt x="520" y="9" on="1"/>
        <pt x="320" y="275" on="1"/>
        <pt x="130" y="9" on="1"/>
        <pt x="125" y="3" on="0"/>
        <pt x="118" y="0" on="0"/>
        <pt x="109" y="0" on="1"/>
      </contour>
    </TTGlyph>
    <TTGlyph name="Y" xMin="2" yMin="0" xMax="632" yMax="663">
      <contour>
        <pt x="371" y="218" on="1"/>
        <pt x="371" y="0" on="1"/>
        <pt x="265" y="0" on="1"/>
        <pt x="265" y="219" on="1"/>
        <pt x="2" y="663" on="1"/>
        <pt x="107" y="663" on="1"/>
        <pt x="115" y="663" on="0"/>
        <pt x="120" y="660" on="0"/>
        <pt x="124" y="654" on="1"/>
        <pt x="224" y="479" on="1"/>
        <pt x="254" y="426" on="0"/>
        <pt x="300" y="340" on="0"/>
        <pt x="318" y="302" on="1"/>
        <pt x="320" y="302" on="1"/>
        <pt x="337" y="338" on="0"/>
        <pt x="386" y="428" on="0"/>
        <pt x="415" y="479" on="1"/>
        <pt x="514" y="654" on="1"/>
        <pt x="518" y="660" on="0"/>
        <pt x="525" y="663" on="0"/>
        <pt x="531" y="663" on="1"/>
        <pt x="632" y="663" on="1"/>
      </contour>
    </TTGlyph>
    <TTGlyph name="Yacute" xMin="2" yMin="0" xMax="632" yMax="910">
      <component glyphName="Y" x="0" y="0" flags="0x204"/>
      <component glyphName="acute.cap" x="147" y="0" flags="0x4"/>
    </TTGlyph>
    <TTGlyph name="Ycircumflex" xMin="2" yMin="0" xMax="632" yMax="899">
      <component glyphName="Y" x="0" y="0" flags="0x204"/>
      <component glyphName="circumflex.cap" x="116" y="0" flags="0x4"/>
    </TTGlyph>
    <TTGlyph name="Ydieresis" xMin="2" yMin="0" xMax="632" yMax="855">
      <component glyphName="Y" x="0" y="0" flags="0x204"/>
      <component glyphName="dieresis.cap" x="115" y="0" flags="0x4"/>
    </TTGlyph>
    <TTGlyph name="Ygrave" xMin="2" yMin="0" xMax="632" yMax="914">
      <component glyphName="Y" x="0" y="0" flags="0x204"/>
      <component glyphName="grave.cap" x="79" y="0" flags="0x4"/>
    </TTGlyph>
    <TTGlyph name="Z" xMin="42" yMin="0" xMax="539" yMax="663">
      <contour>
        <pt x="45" y="0" on="1"/>
        <pt x="45" y="55" on="1"/>
        <pt x="45" y="64" on="0"/>
        <pt x="50" y="75" on="0"/>
        <pt x="58" y="87" on="1"/>
        <pt x="299" y="425" on="1"/>
        <pt x="313" y="444" on="0"/>
        <pt x="343" y="486" on="0"/>
        <pt x="372" y="526" on="0"/>
        <pt x="398" y="561" on="0"/>
        <pt x="408" y="574" on="1"/>
        <pt x="42" y="574" on="1"/>
        <pt x="42" y="663" on="1"/>
        <pt x="536" y="663" on="1"/>
        <pt x="536" y="608" on="1"/>
        <pt x="536" y="600" on="0"/>
        <pt x="531" y="586" on="0"/>
        <pt x="523" y="576" on="1"/>
        <pt x="282" y="238" on="1"/>
        <pt x="268" y="218" on="0"/>
        <pt x="238" y="177" on="0"/>
        <pt x="208" y="137" on="0"/>
        <pt x="182" y="102" on="0"/>
        <pt x="172" y="89" on="1"/>
        <pt x="539" y="89" on="1"/>
        <pt x="539" y="0" on="1"/>
      </contour>
    </TTGlyph>
    <TTGlyph name="Zacute" xMin="42" yMin="0" xMax="539" yMax="910">
      <component glyphName="Z" x="0" y="0" flags="0x204"/>
      <component glyphName="acute.cap" x="99" y="0" flags="0x4"/>
    </TTGlyph>
    <TTGlyph name="Zcaron" xMin="42" yMin="0" xMax="539" yMax="899">
      <component glyphName="Z" x="0" y="0" flags="0x204"/>
      <component glyphName="caron.cap" x="93" y="0" flags="0x4"/>
    </TTGlyph>
    <TTGlyph name="Zdotaccent" xMin="42" yMin="0" xMax="539" yMax="843">
      <component glyphName="Z" x="0" y="0" flags="0x204"/>
      <component glyphName="dotaccent.cap" x="89" y="0" flags="0x4"/>
    </TTGlyph>
    <TTGlyph name="a" xMin="33" yMin="-8" xMax="527" yMax="496">
      <contour>
        <pt x="358" y="312" on="1"/>
        <pt x="358" y="363" on="0"/>
        <pt x="334" y="384" on="1"/>
        <pt x="309" y="406" on="0"/>
        <pt x="255" y="406" on="1"/>
        <pt x="227" y="406" on="0"/>
        <pt x="166" y="392" on="0"/>
        <pt x="134" y="381" on="1"/>
        <pt x="90" y="366" on="1"/>
        <pt x="59" y="421" on="1"/>
        <pt x="107" y="455" on="0"/>
        <pt x="214" y="496" on="0"/>
        <pt x="268" y="496" on="1"/>
        <pt x="361" y="496" on="0"/>
        <pt x="411" y="443" on="1"/>
        <pt x="434" y="419" on="0"/>
        <pt x="459" y="353" on="0"/>
        <pt x="459" y="307" on="1"/>
        <pt x="459" y="79" on="1"/>
        <pt x="527" y="68" on="1"/>
        <pt x="527" y="16" on="1"/>
        <pt x="511" y="8" on="0"/>
        <pt x="468" y="-2" on="0"/>
        <pt x="449" y="-2" on="1"/>
        <pt x="421" y="-2" on="0"/>
        <pt x="379" y="23" on="0"/>
        <pt x="368" y="42" on="1"/>
        <pt x="340" y="27" on="1"/>
        <pt x="307" y="9" on="0"/>
        <pt x="242" y="-8" on="0"/>
        <pt x="213" y="-8" on="1"/>
        <pt x="173" y="-8" on="0"/>
        <pt x="107" y="17" on="0"/>
        <pt x="59" y="61" on="0"/>
        <pt x="33" y="121" on="0"/>
        <pt x="33" y="155" on="1"/>
        <pt x="33" y="220" on="0"/>
        <pt x="121" y="289" on="0"/>
        <pt x="202" y="289" on="1"/>
        <pt x="205" y="289" on="1"/>
        <pt x="221" y="289" on="0"/>
        <pt x="261" y="287" on="0"/>
        <pt x="302" y="283" on="0"/>
        <pt x="342" y="279" on="0"/>
        <pt x="358" y="276" on="1"/>
      </contour>
      <contour>
        <pt x="350" y="107" on="1"/>
        <pt x="358" y="111" on="0"/>
        <pt x="358" y="120" on="1"/>
        <pt x="358" y="202" on="1"/>
        <pt x="358" y="212" on="0"/>
        <pt x="348" y="212" on="1"/>
        <pt x="193" y="212" on="1"/>
        <pt x="159" y="212" on="0"/>
        <pt x="145" y="198" on="1"/>
        <pt x="132" y="185" on="0"/>
        <pt x="132" y="159" on="1"/>
        <pt x="132" y="125" on="0"/>
        <pt x="178" y="78" on="0"/>
        <pt x="227" y="78" on="1"/>
        <pt x="242" y="78" on="0"/>
        <pt x="276" y="83" on="0"/>
        <pt x="309" y="91" on="0"/>
        <pt x="339" y="101" on="0"/>
      </contour>
    </TTGlyph>
    <TTGlyph name="aacute" xMin="33" yMin="-8" xMax="527" yMax="730">
      <component glyphName="a" x="0" y="0" flags="0x204"/>
      <component glyphName="acute" x="71" y="0" flags="0x4"/>
    </TTGlyph>
    <TTGlyph name="abreve" xMin="33" yMin="-8" xMax="527" yMax="704">
      <component glyphName="a" x="0" y="0" flags="0x204"/>
      <component glyphName="breve" x="65" y="0" flags="0x4"/>
    </TTGlyph>
    <TTGlyph name="acaron" xMin="33" yMin="-8" xMax="527" yMax="727">
      <component glyphName="a" x="0" y="0" flags="0x204"/>
      <component glyphName="caron" x="64" y="0" flags="0x4"/>
    </TTGlyph>
    <TTGlyph name="acircumflex" xMin="33" yMin="-8" xMax="527" yMax="719">
      <component glyphName="a" x="0" y="0" flags="0x204"/>
      <component glyphName="circumflex" x="65" y="0" flags="0x4"/>
    </TTGlyph>
    <TTGlyph name="acute" xMin="75" yMin="539" xMax="328" yMax="730">
      <contour>
        <pt x="110" y="539" on="1"/>
        <pt x="75" y="586" on="1"/>
        <pt x="261" y="724" on="1"/>
        <pt x="269" y="730" on="0"/>
        <pt x="279" y="729" on="0"/>
        <pt x="284" y="721" on="1"/>
        <pt x="328" y="657" on="1"/>
      </contour>
    </TTGlyph>
    <TTGlyph name="acute.cap" xMin="75" yMin="719" xMax="328" yMax="910">
      <contour>
        <pt x="110" y="719" on="1"/>
        <pt x="75" y="766" on="1"/>
        <pt x="261" y="904" on="1"/>
        <pt x="269" y="910" on="0"/>
        <pt x="279" y="909" on="0"/>
        <pt x="284" y="901" on="1"/>
        <pt x="328" y="837" on="1"/>
      </contour>
    </TTGlyph>
    <TTGlyph name="adieresis" xMin="33" yMin="-8" xMax="527" yMax="675">
      <component glyphName="a" x="0" y="0" flags="0x204"/>
      <component glyphName="dieresis" x="64" y="0" flags="0x4"/>
    </TTGlyph>
    <TTGlyph name="ae" xMin="35" yMin="-8" xMax="821" yMax="496">
      <contour>
        <pt x="237" y="78" on="1"/>
        <pt x="272" y="78" on="0"/>
        <pt x="352" y="102" on="0"/>
        <pt x="379" y="121" on="1"/>
        <pt x="360" y="163" on="0"/>
        <pt x="355" y="215" on="1"/>
        <pt x="191" y="215" on="1"/>
        <pt x="158" y="215" on="0"/>
        <pt x="134" y="186" on="0"/>
        <pt x="134" y="161" on="1"/>
        <pt x="134" y="126" on="0"/>
        <pt x="186" y="78" on="0"/>
      </contour>
      <contour>
        <pt x="596" y="-8" on="1"/>
        <pt x="542" y="-8" on="0"/>
        <pt x="452" y="28" on="0"/>
        <pt x="420" y="61" on="1"/>
        <pt x="377" y="31" on="0"/>
        <pt x="278" y="-8" on="0"/>
        <pt x="221" y="-8" on="1"/>
        <pt x="185" y="-8" on="0"/>
        <pt x="118" y="15" on="0"/>
        <pt x="66" y="57" on="0"/>
        <pt x="35" y="118" on="0"/>
        <pt x="35" y="157" on="1"/>
        <pt x="35" y="222" on="0"/>
        <pt x="126" y="291" on="0"/>
        <pt x="204" y="291" on="1"/>
        <pt x="212" y="291" on="1"/>
        <pt x="242" y="291" on="0"/>
        <pt x="323" y="283" on="0"/>
        <pt x="355" y="278" on="1"/>
        <pt x="355" y="314" on="1"/>
        <pt x="355" y="368" on="0"/>
        <pt x="301" y="406" on="0"/>
        <pt x="251" y="406" on="1"/>
        <pt x="224" y="406" on="0"/>
        <pt x="163" y="391" on="0"/>
        <pt x="137" y="383" on="1"/>
        <pt x="87" y="366" on="1"/>
        <pt x="56" y="421" on="1"/>
        <pt x="107" y="459" on="0"/>
        <pt x="209" y="496" on="0"/>
        <pt x="260" y="496" on="1"/>
        <pt x="307" y="496" on="0"/>
        <pt x="395" y="462" on="0"/>
        <pt x="422" y="424" on="1"/>
        <pt x="454" y="458" on="0"/>
        <pt x="539" y="496" on="0"/>
        <pt x="589" y="496" on="1"/>
        <pt x="639" y="496" on="0"/>
        <pt x="724" y="459" on="0"/>
        <pt x="786" y="395" on="0"/>
        <pt x="821" y="310" on="0"/>
        <pt x="821" y="261" on="1"/>
        <pt x="821" y="232" on="0"/>
        <pt x="809" y="214" on="0"/>
        <pt x="798" y="214" on="1"/>
        <pt x="458" y="214" on="1"/>
        <pt x="461" y="186" on="0"/>
        <pt x="480" y="138" on="0"/>
        <pt x="516" y="102" on="0"/>
        <pt x="569" y="82" on="0"/>
        <pt x="606" y="82" on="1"/>
        <pt x="635" y="82" on="0"/>
        <pt x="695" y="97" on="0"/>
        <pt x="722" y="108" on="1"/>
        <pt x="777" y="130" on="1"/>
        <pt x="812" y="79" on="1"/>
        <pt x="768" y="41" on="0"/>
        <pt x="653" y="-8" on="0"/>
        <pt x="597" y="-8" on="1"/>
      </contour>
      <contour>
        <pt x="722" y="289" on="1"/>
        <pt x="717" y="342" on="0"/>
        <pt x="646" y="405" on="0"/>
        <pt x="589" y="405" on="1"/>
        <pt x="535" y="405" on="0"/>
        <pt x="462" y="345" on="0"/>
        <pt x="457" y="289" on="1"/>
      </contour>
    </TTGlyph>
    <TTGlyph name="aeacute" xMin="35" yMin="-8" xMax="821" yMax="730">
      <component glyphName="ae" x="0" y="0" flags="0x204"/>
      <component glyphName="acute" x="278" y="0" flags="0x4"/>
    </TTGlyph>
    <TTGlyph name="agrave" xMin="33" yMin="-8" xMax="527" yMax="734">
      <component glyphName="a" x="0" y="0" flags="0x204"/>
      <component glyphName="grave" x="62" y="0" flags="0x4"/>
    </TTGlyph>
    <TTGlyph name="amacron" xMin="33" yMin="-8" xMax="527" yMax="662">
      <component glyphName="a" x="0" y="0" flags="0x204"/>
      <component glyphName="macron" x="64" y="0" flags="0x4"/>
    </TTGlyph>
    <TTGlyph name="ampersand" xMin="38" yMin="-10" xMax="708" yMax="673">
      <contour>
        <pt x="708" y="19" on="1"/>
        <pt x="693" y="11" on="0"/>
        <pt x="646" y="-4" on="0"/>
        <pt x="626" y="-4" on="1"/>
        <pt x="602" y="-4" on="0"/>
        <pt x="564" y="16" on="0"/>
        <pt x="536" y="42" on="1"/>
        <pt x="507" y="70" on="1"/>
        <pt x="463" y="32" on="0"/>
        <pt x="357" y="-10" on="0"/>
        <pt x="298" y="-10" on="1"/>
        <pt x="245" y="-10" on="0"/>
        <pt x="150" y="25" on="0"/>
        <pt x="79" y="85" on="0"/>
        <pt x="38" y="167" on="0"/>
        <pt x="38" y="215" on="1"/>
        <pt x="38" y="249" on="0"/>
        <pt x="61" y="305" on="0"/>
        <pt x="100" y="350" on="0"/>
        <pt x="150" y="387" on="0"/>
        <pt x="177" y="402" on="1"/>
        <pt x="160" y="427" on="0"/>
        <pt x="142" y="475" on="0"/>
        <pt x="142" y="503" on="1"/>
        <pt x="142" y="542" on="0"/>
        <pt x="173" y="604" on="0"/>
        <pt x="225" y="649" on="0"/>
        <pt x="293" y="673" on="0"/>
        <pt x="331" y="673" on="1"/>
        <pt x="368" y="673" on="0"/>
        <pt x="432" y="649" on="0"/>
        <pt x="480" y="606" on="0"/>
        <pt x="508" y="546" on="0"/>
        <pt x="508" y="511" on="1"/>
        <pt x="508" y="461" on="0"/>
        <pt x="446" y="370" on="0"/>
        <pt x="374" y="325" on="1"/>
        <pt x="508" y="195" on="1"/>
        <pt x="524" y="217" on="0"/>
        <pt x="557" y="271" on="0"/>
        <pt x="572" y="300" on="1"/>
        <pt x="627" y="407" on="1"/>
        <pt x="695" y="385" on="1"/>
        <pt x="684" y="351" on="0"/>
        <pt x="656" y="283" on="0"/>
        <pt x="624" y="218" on="0"/>
        <pt x="588" y="160" on="0"/>
        <pt x="570" y="136" on="1"/>
        <pt x="624" y="83" on="1"/>
        <pt x="708" y="70" on="1"/>
      </contour>
      <contour>
        <pt x="219" y="348" on="1"/>
        <pt x="202" y="332" on="1"/>
        <pt x="172" y="303" on="0"/>
        <pt x="140" y="253" on="0"/>
        <pt x="140" y="221" on="1"/>
        <pt x="140" y="191" on="0"/>
        <pt x="165" y="140" on="0"/>
        <pt x="210" y="103" on="0"/>
        <pt x="271" y="83" on="0"/>
        <pt x="308" y="83" on="1"/>
        <pt x="346" y="83" on="0"/>
        <pt x="416" y="108" on="0"/>
        <pt x="444" y="131" on="1"/>
      </contour>
      <contour>
        <pt x="363" y="406" on="1"/>
        <pt x="390" y="435" on="0"/>
        <pt x="419" y="485" on="0"/>
        <pt x="419" y="511" on="1"/>
        <pt x="419" y="547" on="0"/>
        <pt x="369" y="590" on="0"/>
        <pt x="329" y="590" on="1"/>
        <pt x="289" y="590" on="0"/>
        <pt x="235" y="546" on="0"/>
        <pt x="235" y="508" on="1"/>
        <pt x="235" y="476" on="0"/>
        <pt x="279" y="416" on="0"/>
        <pt x="329" y="370" on="1"/>
      </contour>
    </TTGlyph>
    <TTGlyph name="aogonek" xMin="33" yMin="-211" xMax="529" yMax="496">
      <contour>
        <pt x="409" y="7" on="1"/>
        <pt x="397" y="12" on="0"/>
        <pt x="377" y="28" on="0"/>
        <pt x="368" y="42" on="1"/>
        <pt x="340" y="27" on="1"/>
        <pt x="307" y="9" on="0"/>
        <pt x="242" y="-8" on="0"/>
        <pt x="213" y="-8" on="1"/>
        <pt x="173" y="-8" on="0"/>
        <pt x="107" y="17" on="0"/>
        <pt x="59" y="61" on="0"/>
        <pt x="33" y="121" on="0"/>
        <pt x="33" y="155" on="1"/>
        <pt x="33" y="220" on="0"/>
        <pt x="121" y="289" on="0"/>
        <pt x="202" y="289" on="1"/>
        <pt x="205" y="289" on="1"/>
        <pt x="221" y="289" on="0"/>
        <pt x="261" y="287" on="0"/>
        <pt x="302" y="283" on="0"/>
        <pt x="342" y="279" on="0"/>
        <pt x="358" y="276" on="1"/>
        <pt x="358" y="312" on="1"/>
        <pt x="358" y="363" on="0"/>
        <pt x="334" y="384" on="1"/>
        <pt x="309" y="406" on="0"/>
        <pt x="255" y="406" on="1"/>
        <pt x="227" y="406" on="0"/>
        <pt x="166" y="392" on="0"/>
        <pt x="134" y="381" on="1"/>
        <pt x="90" y="366" on="1"/>
        <pt x="59" y="421" on="1"/>
        <pt x="107" y="455" on="0"/>
        <pt x="214" y="496" on="0"/>
        <pt x="268" y="496" on="1"/>
        <pt x="361" y="496" on="0"/>
        <pt x="411" y="443" on="1"/>
        <pt x="434" y="419" on="0"/>
        <pt x="459" y="353" on="0"/>
        <pt x="459" y="307" on="1"/>
        <pt x="459" y="79" on="1"/>
        <pt x="527" y="68" on="1"/>
        <pt x="527" y="16" on="1"/>
        <pt x="505" y="7" on="1"/>
        <pt x="484" y="-2" on="0"/>
        <pt x="444" y="-24" on="0"/>
        <pt x="412" y="-50" on="0"/>
        <pt x="393" y="-80" on="0"/>
        <pt x="393" y="-96" on="1"/>
        <pt x="393" y="-117" on="0"/>
        <pt x="422" y="-141" on="0"/>
        <pt x="451" y="-141" on="1"/>
        <pt x="465" y="-141" on="0"/>
        <pt x="483" y="-138" on="1"/>
        <pt x="512" y="-133" on="1"/>
        <pt x="529" y="-186" on="1"/>
        <pt x="479" y="-211" on="0"/>
        <pt x="430" y="-211" on="1"/>
        <pt x="374" y="-211" on="0"/>
        <pt x="307" y="-154" on="0"/>
        <pt x="307" y="-110" on="1"/>
        <pt x="307" y="-69" on="0"/>
        <pt x="364" y="-12" on="0"/>
      </contour>
      <contour>
        <pt x="350" y="107" on="1"/>
        <pt x="358" y="111" on="0"/>
        <pt x="358" y="120" on="1"/>
        <pt x="358" y="202" on="1"/>
        <pt x="358" y="212" on="0"/>
        <pt x="348" y="212" on="1"/>
        <pt x="193" y="212" on="1"/>
        <pt x="159" y="212" on="0"/>
        <pt x="145" y="198" on="1"/>
        <pt x="132" y="185" on="0"/>
        <pt x="132" y="159" on="1"/>
        <pt x="132" y="125" on="0"/>
        <pt x="178" y="78" on="0"/>
        <pt x="227" y="78" on="1"/>
        <pt x="242" y="78" on="0"/>
        <pt x="276" y="83" on="0"/>
        <pt x="309" y="91" on="0"/>
        <pt x="339" y="101" on="0"/>
      </contour>
    </TTGlyph>
    <TTGlyph name="apple" xMin="78" yMin="0" xMax="466" yMax="650">
      <contour>
        <pt x="208" y="357" on="1"/>
        <pt x="208" y="370" on="0"/>
        <pt x="227" y="388" on="0"/>
        <pt x="239" y="388" on="1"/>
        <pt x="252" y="388" on="0"/>
        <pt x="269" y="370" on="0"/>
        <pt x="269" y="357" on="1"/>
        <pt x="269" y="344" on="0"/>
        <pt x="252" y="327" on="0"/>
        <pt x="239" y="327" on="1"/>
        <pt x="227" y="327" on="0"/>
        <pt x="208" y="344" on="0"/>
      </contour>
      <contour>
        <pt x="405" y="357" on="1"/>
        <pt x="405" y="370" on="0"/>
        <pt x="424" y="388" on="0"/>
        <pt x="436" y="388" on="1"/>
        <pt x="449" y="388" on="0"/>
        <pt x="466" y="370" on="0"/>
        <pt x="466" y="357" on="1"/>
        <pt x="466" y="344" on="0"/>
        <pt x="449" y="327" on="0"/>
        <pt x="436" y="327" on="1"/>
        <pt x="424" y="327" on="0"/>
        <pt x="405" y="344" on="0"/>
      </contour>
      <contour>
        <pt x="78" y="161" on="1"/>
        <pt x="78" y="174" on="0"/>
        <pt x="95" y="191" on="0"/>
        <pt x="108" y="191" on="1"/>
        <pt x="120" y="191" on="0"/>
        <pt x="139" y="174" on="0"/>
        <pt x="139" y="161" on="1"/>
        <pt x="139" y="148" on="0"/>
        <pt x="120" y="130" on="0"/>
        <pt x="108" y="130" on="1"/>
        <pt x="95" y="130" on="0"/>
        <pt x="78" y="148" on="0"/>
      </contour>
      <contour>
        <pt x="78" y="357" on="1"/>
        <pt x="78" y="370" on="0"/>
        <pt x="95" y="388" on="0"/>
        <pt x="108" y="388" on="1"/>
        <pt x="120" y="388" on="0"/>
        <pt x="139" y="370" on="0"/>
        <pt x="139" y="357" on="1"/>
        <pt x="139" y="344" on="0"/>
        <pt x="120" y="327" on="0"/>
        <pt x="108" y="327" on="1"/>
        <pt x="95" y="327" on="0"/>
        <pt x="78" y="344" on="0"/>
      </contour>
      <contour>
        <pt x="275" y="357" on="1"/>
        <pt x="275" y="370" on="0"/>
        <pt x="292" y="388" on="0"/>
        <pt x="305" y="388" on="1"/>
        <pt x="317" y="388" on="0"/>
        <pt x="336" y="370" on="0"/>
        <pt x="336" y="357" on="1"/>
        <pt x="336" y="344" on="0"/>
        <pt x="317" y="327" on="0"/>
        <pt x="305" y="327" on="1"/>
        <pt x="292" y="327" on="0"/>
        <pt x="275" y="344" on="0"/>
      </contour>
      <contour>
        <pt x="340" y="620" on="1"/>
        <pt x="340" y="632" on="0"/>
        <pt x="357" y="650" on="0"/>
        <pt x="371" y="650" on="1"/>
        <pt x="382" y="650" on="0"/>
        <pt x="401" y="632" on="0"/>
        <pt x="401" y="620" on="1"/>
        <pt x="401" y="606" on="0"/>
        <pt x="382" y="589" on="0"/>
        <pt x="371" y="589" on="1"/>
        <pt x="357" y="589" on="0"/>
        <pt x="340" y="606" on="0"/>
      </contour>
      <contour>
        <pt x="78" y="620" on="1"/>
        <pt x="78" y="632" on="0"/>
        <pt x="95" y="650" on="0"/>
        <pt x="108" y="650" on="1"/>
        <pt x="120" y="650" on="0"/>
        <pt x="139" y="632" on="0"/>
        <pt x="139" y="620" on="1"/>
        <pt x="139" y="606" on="0"/>
        <pt x="120" y="589" on="0"/>
        <pt x="108" y="589" on="1"/>
        <pt x="95" y="589" on="0"/>
        <pt x="78" y="606" on="0"/>
      </contour>
      <contour>
        <pt x="275" y="620" on="1"/>
        <pt x="275" y="632" on="0"/>
        <pt x="292" y="650" on="0"/>
        <pt x="305" y="650" on="1"/>
        <pt x="317" y="650" on="0"/>
        <pt x="336" y="632" on="0"/>
        <pt x="336" y="620" on="1"/>
        <pt x="336" y="606" on="0"/>
        <pt x="317" y="589" on="0"/>
        <pt x="305" y="589" on="1"/>
        <pt x="292" y="589" on="0"/>
        <pt x="275" y="606" on="0"/>
      </contour>
      <contour>
        <pt x="405" y="620" on="1"/>
        <pt x="405" y="632" on="0"/>
        <pt x="424" y="650" on="0"/>
        <pt x="436" y="650" on="1"/>
        <pt x="449" y="650" on="0"/>
        <pt x="466" y="632" on="0"/>
        <pt x="466" y="620" on="1"/>
        <pt x="466" y="606" on="0"/>
        <pt x="449" y="589" on="0"/>
        <pt x="436" y="589" on="1"/>
        <pt x="424" y="589" on="0"/>
        <pt x="405" y="606" on="0"/>
      </contour>
      <contour>
        <pt x="208" y="620" on="1"/>
        <pt x="208" y="632" on="0"/>
        <pt x="227" y="650" on="0"/>
        <pt x="239" y="650" on="1"/>
        <pt x="252" y="650" on="0"/>
        <pt x="269" y="632" on="0"/>
        <pt x="269" y="620" on="1"/>
        <pt x="269" y="606" on="0"/>
        <pt x="252" y="589" on="0"/>
        <pt x="239" y="589" on="1"/>
        <pt x="227" y="589" on="0"/>
        <pt x="208" y="606" on="0"/>
      </contour>
      <contour>
        <pt x="340" y="357" on="1"/>
        <pt x="340" y="370" on="0"/>
        <pt x="357" y="388" on="0"/>
        <pt x="371" y="388" on="1"/>
        <pt x="382" y="388" on="0"/>
        <pt x="401" y="370" on="0"/>
        <pt x="401" y="357" on="1"/>
        <pt x="401" y="344" on="0"/>
        <pt x="382" y="327" on="0"/>
        <pt x="371" y="327" on="1"/>
        <pt x="357" y="327" on="0"/>
        <pt x="340" y="344" on="0"/>
      </contour>
      <contour>
        <pt x="208" y="30" on="1"/>
        <pt x="208" y="42" on="0"/>
        <pt x="227" y="61" on="0"/>
        <pt x="239" y="61" on="1"/>
        <pt x="252" y="61" on="0"/>
        <pt x="269" y="42" on="0"/>
        <pt x="269" y="30" on="1"/>
        <pt x="269" y="17" on="0"/>
        <pt x="252" y="0" on="0"/>
        <pt x="239" y="0" on="1"/>
        <pt x="227" y="0" on="0"/>
        <pt x="208" y="17" on="0"/>
      </contour>
      <contour>
        <pt x="78" y="30" on="1"/>
        <pt x="78" y="42" on="0"/>
        <pt x="95" y="61" on="0"/>
        <pt x="108" y="61" on="1"/>
        <pt x="120" y="61" on="0"/>
        <pt x="139" y="42" on="0"/>
        <pt x="139" y="30" on="1"/>
        <pt x="139" y="17" on="0"/>
        <pt x="120" y="0" on="0"/>
        <pt x="108" y="0" on="1"/>
        <pt x="95" y="0" on="0"/>
        <pt x="78" y="17" on="0"/>
      </contour>
      <contour>
        <pt x="208" y="95" on="1"/>
        <pt x="208" y="109" on="0"/>
        <pt x="227" y="125" on="0"/>
        <pt x="239" y="125" on="1"/>
        <pt x="252" y="125" on="0"/>
        <pt x="269" y="109" on="0"/>
        <pt x="269" y="95" on="1"/>
        <pt x="269" y="82" on="0"/>
        <pt x="252" y="65" on="0"/>
        <pt x="239" y="65" on="1"/>
        <pt x="227" y="65" on="0"/>
        <pt x="208" y="82" on="0"/>
      </contour>
      <contour>
        <pt x="78" y="95" on="1"/>
        <pt x="78" y="109" on="0"/>
        <pt x="95" y="125" on="0"/>
        <pt x="108" y="125" on="1"/>
        <pt x="120" y="125" on="0"/>
        <pt x="139" y="109" on="0"/>
        <pt x="139" y="95" on="1"/>
        <pt x="139" y="82" on="0"/>
        <pt x="120" y="65" on="0"/>
        <pt x="108" y="65" on="1"/>
        <pt x="95" y="65" on="0"/>
        <pt x="78" y="82" on="0"/>
      </contour>
      <contour>
        <pt x="144" y="620" on="1"/>
        <pt x="144" y="632" on="0"/>
        <pt x="162" y="650" on="0"/>
        <pt x="174" y="650" on="1"/>
        <pt x="187" y="650" on="0"/>
        <pt x="204" y="632" on="0"/>
        <pt x="204" y="620" on="1"/>
        <pt x="204" y="606" on="0"/>
        <pt x="187" y="589" on="0"/>
        <pt x="174" y="589" on="1"/>
        <pt x="162" y="589" on="0"/>
        <pt x="144" y="606" on="0"/>
      </contour>
      <contour>
        <pt x="78" y="489" on="1"/>
        <pt x="78" y="501" on="0"/>
        <pt x="95" y="518" on="0"/>
        <pt x="108" y="518" on="1"/>
        <pt x="120" y="518" on="0"/>
        <pt x="139" y="501" on="0"/>
        <pt x="139" y="489" on="1"/>
        <pt x="139" y="476" on="0"/>
        <pt x="120" y="458" on="0"/>
        <pt x="108" y="458" on="1"/>
        <pt x="95" y="458" on="0"/>
        <pt x="78" y="476" on="0"/>
      </contour>
      <contour>
        <pt x="275" y="489" on="1"/>
        <pt x="275" y="501" on="0"/>
        <pt x="292" y="518" on="0"/>
        <pt x="305" y="518" on="1"/>
        <pt x="317" y="518" on="0"/>
        <pt x="336" y="501" on="0"/>
        <pt x="336" y="489" on="1"/>
        <pt x="336" y="476" on="0"/>
        <pt x="317" y="458" on="0"/>
        <pt x="305" y="458" on="1"/>
        <pt x="292" y="458" on="0"/>
        <pt x="275" y="476" on="0"/>
      </contour>
      <contour>
        <pt x="208" y="489" on="1"/>
        <pt x="208" y="501" on="0"/>
        <pt x="227" y="518" on="0"/>
        <pt x="239" y="518" on="1"/>
        <pt x="252" y="518" on="0"/>
        <pt x="269" y="501" on="0"/>
        <pt x="269" y="489" on="1"/>
        <pt x="269" y="476" on="0"/>
        <pt x="252" y="458" on="0"/>
        <pt x="239" y="458" on="1"/>
        <pt x="227" y="458" on="0"/>
        <pt x="208" y="476" on="0"/>
      </contour>
      <contour>
        <pt x="405" y="489" on="1"/>
        <pt x="405" y="501" on="0"/>
        <pt x="424" y="518" on="0"/>
        <pt x="436" y="518" on="1"/>
        <pt x="449" y="518" on="0"/>
        <pt x="466" y="501" on="0"/>
        <pt x="466" y="489" on="1"/>
        <pt x="466" y="476" on="0"/>
        <pt x="449" y="458" on="0"/>
        <pt x="436" y="458" on="1"/>
        <pt x="424" y="458" on="0"/>
        <pt x="405" y="476" on="0"/>
      </contour>
      <contour>
        <pt x="340" y="489" on="1"/>
        <pt x="340" y="501" on="0"/>
        <pt x="357" y="518" on="0"/>
        <pt x="371" y="518" on="1"/>
        <pt x="382" y="518" on="0"/>
        <pt x="401" y="501" on="0"/>
        <pt x="401" y="489" on="1"/>
        <pt x="401" y="476" on="0"/>
        <pt x="382" y="458" on="0"/>
        <pt x="371" y="458" on="1"/>
        <pt x="357" y="458" on="0"/>
        <pt x="340" y="476" on="0"/>
      </contour>
      <contour>
        <pt x="144" y="30" on="1"/>
        <pt x="144" y="42" on="0"/>
        <pt x="162" y="61" on="0"/>
        <pt x="174" y="61" on="1"/>
        <pt x="187" y="61" on="0"/>
        <pt x="204" y="42" on="0"/>
        <pt x="204" y="30" on="1"/>
        <pt x="204" y="17" on="0"/>
        <pt x="187" y="0" on="0"/>
        <pt x="174" y="0" on="1"/>
        <pt x="162" y="0" on="0"/>
        <pt x="144" y="17" on="0"/>
      </contour>
      <contour>
        <pt x="78" y="292" on="1"/>
        <pt x="78" y="304" on="0"/>
        <pt x="95" y="322" on="0"/>
        <pt x="108" y="322" on="1"/>
        <pt x="120" y="322" on="0"/>
        <pt x="139" y="304" on="0"/>
        <pt x="139" y="292" on="1"/>
        <pt x="139" y="279" on="0"/>
        <pt x="120" y="262" on="0"/>
        <pt x="108" y="262" on="1"/>
        <pt x="95" y="262" on="0"/>
        <pt x="78" y="279" on="0"/>
      </contour>
      <contour>
        <pt x="78" y="554" on="1"/>
        <pt x="78" y="566" on="0"/>
        <pt x="95" y="584" on="0"/>
        <pt x="108" y="584" on="1"/>
        <pt x="120" y="584" on="0"/>
        <pt x="139" y="566" on="0"/>
        <pt x="139" y="554" on="1"/>
        <pt x="139" y="541" on="0"/>
        <pt x="120" y="524" on="0"/>
        <pt x="108" y="524" on="1"/>
        <pt x="95" y="524" on="0"/>
        <pt x="78" y="541" on="0"/>
      </contour>
      <contour>
        <pt x="405" y="292" on="1"/>
        <pt x="405" y="304" on="0"/>
        <pt x="424" y="322" on="0"/>
        <pt x="436" y="322" on="1"/>
        <pt x="449" y="322" on="0"/>
        <pt x="466" y="304" on="0"/>
        <pt x="466" y="292" on="1"/>
        <pt x="466" y="279" on="0"/>
        <pt x="449" y="262" on="0"/>
        <pt x="436" y="262" on="1"/>
        <pt x="424" y="262" on="0"/>
        <pt x="405" y="279" on="0"/>
      </contour>
      <contour>
        <pt x="78" y="423" on="1"/>
        <pt x="78" y="436" on="0"/>
        <pt x="95" y="453" on="0"/>
        <pt x="108" y="453" on="1"/>
        <pt x="120" y="453" on="0"/>
        <pt x="139" y="436" on="0"/>
        <pt x="139" y="423" on="1"/>
        <pt x="139" y="410" on="0"/>
        <pt x="120" y="394" on="0"/>
        <pt x="108" y="394" on="1"/>
        <pt x="95" y="394" on="0"/>
        <pt x="78" y="410" on="0"/>
      </contour>
      <contour>
        <pt x="208" y="423" on="1"/>
        <pt x="208" y="436" on="0"/>
        <pt x="227" y="453" on="0"/>
        <pt x="239" y="453" on="1"/>
        <pt x="252" y="453" on="0"/>
        <pt x="269" y="436" on="0"/>
        <pt x="269" y="423" on="1"/>
        <pt x="269" y="410" on="0"/>
        <pt x="252" y="394" on="0"/>
        <pt x="239" y="394" on="1"/>
        <pt x="227" y="394" on="0"/>
        <pt x="208" y="410" on="0"/>
      </contour>
      <contour>
        <pt x="208" y="227" on="1"/>
        <pt x="208" y="239" on="0"/>
        <pt x="227" y="256" on="0"/>
        <pt x="239" y="256" on="1"/>
        <pt x="252" y="256" on="0"/>
        <pt x="269" y="239" on="0"/>
        <pt x="269" y="227" on="1"/>
        <pt x="269" y="214" on="0"/>
        <pt x="252" y="197" on="0"/>
        <pt x="239" y="197" on="1"/>
        <pt x="227" y="197" on="0"/>
        <pt x="208" y="214" on="0"/>
      </contour>
      <contour>
        <pt x="405" y="227" on="1"/>
        <pt x="405" y="239" on="0"/>
        <pt x="424" y="256" on="0"/>
        <pt x="436" y="256" on="1"/>
        <pt x="449" y="256" on="0"/>
        <pt x="466" y="239" on="0"/>
        <pt x="466" y="227" on="1"/>
        <pt x="466" y="214" on="0"/>
        <pt x="449" y="197" on="0"/>
        <pt x="436" y="197" on="1"/>
        <pt x="424" y="197" on="0"/>
        <pt x="405" y="214" on="0"/>
      </contour>
      <contour>
        <pt x="78" y="227" on="1"/>
        <pt x="78" y="239" on="0"/>
        <pt x="95" y="256" on="0"/>
        <pt x="108" y="256" on="1"/>
        <pt x="120" y="256" on="0"/>
        <pt x="139" y="239" on="0"/>
        <pt x="139" y="227" on="1"/>
        <pt x="139" y="214" on="0"/>
        <pt x="120" y="197" on="0"/>
        <pt x="108" y="197" on="1"/>
        <pt x="95" y="197" on="0"/>
        <pt x="78" y="214" on="0"/>
      </contour>
      <contour>
        <pt x="275" y="227" on="1"/>
        <pt x="275" y="239" on="0"/>
        <pt x="292" y="256" on="0"/>
        <pt x="305" y="256" on="1"/>
        <pt x="317" y="256" on="0"/>
        <pt x="336" y="239" on="0"/>
        <pt x="336" y="227" on="1"/>
        <pt x="336" y="214" on="0"/>
        <pt x="317" y="197" on="0"/>
        <pt x="305" y="197" on="1"/>
        <pt x="292" y="197" on="0"/>
        <pt x="275" y="214" on="0"/>
      </contour>
      <contour>
        <pt x="340" y="227" on="1"/>
        <pt x="340" y="239" on="0"/>
        <pt x="357" y="256" on="0"/>
        <pt x="371" y="256" on="1"/>
        <pt x="382" y="256" on="0"/>
        <pt x="401" y="239" on="0"/>
        <pt x="401" y="227" on="1"/>
        <pt x="401" y="214" on="0"/>
        <pt x="382" y="197" on="0"/>
        <pt x="371" y="197" on="1"/>
        <pt x="357" y="197" on="0"/>
        <pt x="340" y="214" on="0"/>
      </contour>
    </TTGlyph>
    <TTGlyph name="approxequal" xMin="61" yMin="77" xMax="478" yMax="412">
      <contour>
        <pt x="478" y="392" on="1"/>
        <pt x="472" y="368" on="0"/>
        <pt x="447" y="327" on="0"/>
        <pt x="413" y="296" on="0"/>
        <pt x="371" y="279" on="0"/>
        <pt x="348" y="279" on="1"/>
        <pt x="325" y="279" on="0"/>
        <pt x="283" y="293" on="0"/>
        <pt x="244" y="310" on="0"/>
        <pt x="207" y="324" on="0"/>
        <pt x="190" y="324" on="1"/>
        <pt x="165" y="324" on="0"/>
        <pt x="133" y="301" on="0"/>
        <pt x="118" y="276" on="1"/>
        <pt x="61" y="296" on="1"/>
        <pt x="67" y="320" on="0"/>
        <pt x="91" y="362" on="0"/>
        <pt x="126" y="392" on="0"/>
        <pt x="168" y="409" on="0"/>
        <pt x="191" y="409" on="1"/>
        <pt x="214" y="409" on="0"/>
        <pt x="256" y="395" on="0"/>
        <pt x="295" y="379" on="0"/>
        <pt x="332" y="365" on="0"/>
        <pt x="349" y="365" on="1"/>
        <pt x="374" y="365" on="0"/>
        <pt x="406" y="387" on="0"/>
        <pt x="421" y="412" on="1"/>
      </contour>
      <contour>
        <pt x="478" y="193" on="1"/>
        <pt x="472" y="169" on="0"/>
        <pt x="447" y="127" on="0"/>
        <pt x="413" y="97" on="0"/>
        <pt x="371" y="80" on="0"/>
        <pt x="348" y="80" on="1"/>
        <pt x="325" y="80" on="0"/>
        <pt x="283" y="94" on="0"/>
        <pt x="244" y="111" on="0"/>
        <pt x="207" y="125" on="0"/>
        <pt x="190" y="125" on="1"/>
        <pt x="165" y="125" on="0"/>
        <pt x="133" y="102" on="0"/>
        <pt x="118" y="77" on="1"/>
        <pt x="61" y="97" on="1"/>
        <pt x="67" y="121" on="0"/>
        <pt x="91" y="163" on="0"/>
        <pt x="126" y="193" on="0"/>
        <pt x="168" y="210" on="0"/>
        <pt x="191" y="210" on="1"/>
        <pt x="214" y="210" on="0"/>
        <pt x="256" y="196" on="0"/>
        <pt x="295" y="179" on="0"/>
        <pt x="332" y="165" on="0"/>
        <pt x="349" y="165" on="1"/>
        <pt x="374" y="165" on="0"/>
        <pt x="406" y="188" on="0"/>
        <pt x="421" y="213" on="1"/>
      </contour>
    </TTGlyph>
    <TTGlyph name="aring" xMin="33" yMin="-8" xMax="527" yMax="774">
      <component glyphName="a" x="0" y="0" flags="0x204"/>
      <component glyphName="ring" x="63" y="0" flags="0x4"/>
    </TTGlyph>
    <TTGlyph name="aringacute" xMin="33" yMin="-8" xMax="527" yMax="962">
      <component glyphName="a" x="0" y="0" flags="0x204"/>
      <component glyphName="ring" x="64" y="-16" flags="0x4"/>
      <component glyphName="acute" x="63" y="232" flags="0x4"/>
    </TTGlyph>
    <TTGlyph name="arrowdown" xMin="161" yMin="-85" xMax="621" yMax="573">
      <contour>
        <pt x="356" y="-77" on="1"/>
        <pt x="161" y="118" on="1"/>
        <pt x="205" y="161" on="1"/>
        <pt x="347" y="34" on="1"/>
        <pt x="347" y="573" on="1"/>
        <pt x="432" y="573" on="1"/>
        <pt x="432" y="32" on="1"/>
        <pt x="578" y="161" on="1"/>
        <pt x="621" y="118" on="1"/>
        <pt x="419" y="-85" on="1"/>
        <pt x="376" y="-85" on="1"/>
        <pt x="369" y="-85" on="0"/>
        <pt x="361" y="-82" on="0"/>
      </contour>
    </TTGlyph>
    <TTGlyph name="arrowdown.cap" xMin="161" yMin="1" xMax="621" yMax="659">
      <contour>
        <pt x="356" y="9" on="1"/>
        <pt x="161" y="204" on="1"/>
        <pt x="205" y="247" on="1"/>
        <pt x="347" y="120" on="1"/>
        <pt x="347" y="659" on="1"/>
        <pt x="432" y="659" on="1"/>
        <pt x="432" y="118" on="1"/>
        <pt x="578" y="247" on="1"/>
        <pt x="621" y="204" on="1"/>
        <pt x="419" y="1" on="1"/>
        <pt x="376" y="1" on="1"/>
        <pt x="369" y="1" on="0"/>
        <pt x="361" y="4" on="0"/>
      </contour>
    </TTGlyph>
    <TTGlyph name="arrowleft" xMin="62" yMin="14" xMax="720" yMax="473">
      <contour>
        <pt x="265" y="473" on="1"/>
        <pt x="308" y="430" on="1"/>
        <pt x="181" y="285" on="1"/>
        <pt x="720" y="285" on="1"/>
        <pt x="720" y="205" on="1"/>
        <pt x="180" y="205" on="1"/>
        <pt x="308" y="57" on="1"/>
        <pt x="265" y="14" on="1"/>
        <pt x="62" y="216" on="1"/>
        <pt x="62" y="259" on="1"/>
        <pt x="62" y="267" on="0"/>
        <pt x="65" y="274" on="0"/>
        <pt x="70" y="279" on="1"/>
      </contour>
    </TTGlyph>
    <TTGlyph name="arrowleft.cap" xMin="62" yMin="100" xMax="720" yMax="559">
      <contour>
        <pt x="265" y="559" on="1"/>
        <pt x="308" y="516" on="1"/>
        <pt x="181" y="371" on="1"/>
        <pt x="720" y="371" on="1"/>
        <pt x="720" y="291" on="1"/>
        <pt x="180" y="291" on="1"/>
        <pt x="308" y="143" on="1"/>
        <pt x="265" y="100" on="1"/>
        <pt x="62" y="302" on="1"/>
        <pt x="62" y="345" on="1"/>
        <pt x="62" y="353" on="0"/>
        <pt x="65" y="360" on="0"/>
        <pt x="70" y="365" on="1"/>
      </contour>
    </TTGlyph>
    <TTGlyph name="arrowright" xMin="62" yMin="17" xMax="720" yMax="476">
      <contour>
        <pt x="517" y="17" on="1"/>
        <pt x="474" y="60" on="1"/>
        <pt x="601" y="205" on="1"/>
        <pt x="62" y="205" on="1"/>
        <pt x="62" y="285" on="1"/>
        <pt x="602" y="285" on="1"/>
        <pt x="474" y="433" on="1"/>
        <pt x="517" y="476" on="1"/>
        <pt x="720" y="274" on="1"/>
        <pt x="720" y="231" on="1"/>
        <pt x="720" y="223" on="0"/>
        <pt x="717" y="216" on="0"/>
        <pt x="712" y="211" on="1"/>
      </contour>
    </TTGlyph>
    <TTGlyph name="arrowright.cap" xMin="62" yMin="103" xMax="720" yMax="562">
      <contour>
        <pt x="517" y="103" on="1"/>
        <pt x="474" y="146" on="1"/>
        <pt x="601" y="291" on="1"/>
        <pt x="62" y="291" on="1"/>
        <pt x="62" y="371" on="1"/>
        <pt x="602" y="371" on="1"/>
        <pt x="474" y="519" on="1"/>
        <pt x="517" y="562" on="1"/>
        <pt x="720" y="360" on="1"/>
        <pt x="720" y="317" on="1"/>
        <pt x="720" y="309" on="0"/>
        <pt x="717" y="302" on="0"/>
        <pt x="712" y="297" on="1"/>
      </contour>
    </TTGlyph>
    <TTGlyph name="arrowup" xMin="161" yMin="-85" xMax="621" yMax="573">
      <contour>
        <pt x="427" y="565" on="1"/>
        <pt x="621" y="370" on="1"/>
        <pt x="578" y="326" on="1"/>
        <pt x="436" y="454" on="1"/>
        <pt x="436" y="-85" on="1"/>
        <pt x="350" y="-85" on="1"/>
        <pt x="350" y="455" on="1"/>
        <pt x="205" y="326" on="1"/>
        <pt x="161" y="369" on="1"/>
        <pt x="364" y="573" on="1"/>
        <pt x="406" y="573" on="1"/>
        <pt x="414" y="573" on="0"/>
        <pt x="422" y="570" on="0"/>
      </contour>
    </TTGlyph>
    <TTGlyph name="arrowup.cap" xMin="161" yMin="1" xMax="621" yMax="659">
      <contour>
        <pt x="427" y="651" on="1"/>
        <pt x="621" y="456" on="1"/>
        <pt x="578" y="412" on="1"/>
        <pt x="436" y="540" on="1"/>
        <pt x="436" y="1" on="1"/>
        <pt x="350" y="1" on="1"/>
        <pt x="350" y="541" on="1"/>
        <pt x="205" y="412" on="1"/>
        <pt x="161" y="455" on="1"/>
        <pt x="364" y="659" on="1"/>
        <pt x="406" y="659" on="1"/>
        <pt x="414" y="659" on="0"/>
        <pt x="422" y="656" on="0"/>
      </contour>
    </TTGlyph>
    <TTGlyph name="asciicircum" xMin="65" yMin="403" xMax="474" yMax="673">
      <contour>
        <pt x="306" y="673" on="1"/>
        <pt x="474" y="451" on="1"/>
        <pt x="403" y="403" on="1"/>
        <pt x="270" y="576" on="1"/>
        <pt x="269" y="576" on="1"/>
        <pt x="136" y="403" on="1"/>
        <pt x="65" y="451" on="1"/>
        <pt x="233" y="673" on="1"/>
      </contour>
    </TTGlyph>
    <TTGlyph name="asciitilde" xMin="61" yMin="276" xMax="478" yMax="412">
      <contour>
        <pt x="478" y="392" on="1"/>
        <pt x="472" y="368" on="0"/>
        <pt x="447" y="327" on="0"/>
        <pt x="413" y="296" on="0"/>
        <pt x="371" y="279" on="0"/>
        <pt x="348" y="279" on="1"/>
        <pt x="325" y="279" on="0"/>
        <pt x="283" y="293" on="0"/>
        <pt x="244" y="310" on="0"/>
        <pt x="207" y="324" on="0"/>
        <pt x="190" y="324" on="1"/>
        <pt x="165" y="324" on="0"/>
        <pt x="133" y="301" on="0"/>
        <pt x="118" y="276" on="1"/>
        <pt x="61" y="296" on="1"/>
        <pt x="67" y="320" on="0"/>
        <pt x="91" y="362" on="0"/>
        <pt x="126" y="392" on="0"/>
        <pt x="168" y="409" on="0"/>
        <pt x="191" y="409" on="1"/>
        <pt x="214" y="409" on="0"/>
        <pt x="256" y="395" on="0"/>
        <pt x="295" y="379" on="0"/>
        <pt x="332" y="365" on="0"/>
        <pt x="349" y="365" on="1"/>
        <pt x="374" y="365" on="0"/>
        <pt x="406" y="387" on="0"/>
        <pt x="421" y="412" on="1"/>
      </contour>
    </TTGlyph>
    <TTGlyph name="asterisk" xMin="40" yMin="305" xMax="404" yMax="663">
      <contour>
        <pt x="314" y="313" on="1"/>
        <pt x="302" y="305" on="0"/>
        <pt x="293" y="318" on="1"/>
        <pt x="221" y="437" on="1"/>
        <pt x="141" y="306" on="1"/>
        <pt x="80" y="345" on="1"/>
        <pt x="72" y="350" on="0"/>
        <pt x="74" y="360" on="0"/>
        <pt x="81" y="368" on="1"/>
        <pt x="178" y="472" on="1"/>
        <pt x="40" y="508" on="1"/>
        <pt x="62" y="566" on="1"/>
        <pt x="66" y="575" on="0"/>
        <pt x="76" y="579" on="0"/>
        <pt x="87" y="574" on="1"/>
        <pt x="195" y="516" on="1"/>
        <pt x="177" y="663" on="1"/>
        <pt x="251" y="663" on="1"/>
        <pt x="265" y="663" on="0"/>
        <pt x="264" y="649" on="1"/>
        <pt x="248" y="516" on="1"/>
        <pt x="373" y="581" on="1"/>
        <pt x="397" y="522" on="1"/>
        <pt x="404" y="506" on="0"/>
        <pt x="385" y="502" on="1"/>
        <pt x="265" y="472" on="1"/>
        <pt x="374" y="353" on="1"/>
      </contour>
    </TTGlyph>
    <TTGlyph name="at" xMin="40" yMin="-99" xMax="722" yMax="584">
      <contour>
        <pt x="690" y="1" on="1"/>
        <pt x="662" y="-20" on="0"/>
        <pt x="592" y="-57" on="0"/>
        <pt x="514" y="-84" on="0"/>
        <pt x="431" y="-99" on="0"/>
        <pt x="391" y="-99" on="1"/>
        <pt x="313" y="-99" on="0"/>
        <pt x="184" y="-47" on="0"/>
        <pt x="91" y="45" on="0"/>
        <pt x="40" y="170" on="0"/>
        <pt x="40" y="243" on="1"/>
        <pt x="40" y="318" on="0"/>
        <pt x="96" y="444" on="0"/>
        <pt x="193" y="534" on="0"/>
        <pt x="321" y="584" on="0"/>
        <pt x="393" y="584" on="1"/>
        <pt x="465" y="584" on="0"/>
        <pt x="586" y="534" on="0"/>
        <pt x="673" y="450" on="0"/>
        <pt x="722" y="338" on="0"/>
        <pt x="722" y="275" on="1"/>
        <pt x="722" y="227" on="0"/>
        <pt x="696" y="152" on="0"/>
        <pt x="651" y="101" on="0"/>
        <pt x="590" y="74" on="0"/>
        <pt x="556" y="74" on="1"/>
        <pt x="524" y="74" on="0"/>
        <pt x="479" y="98" on="0"/>
        <pt x="467" y="113" on="1"/>
        <pt x="442" y="100" on="1"/>
        <pt x="420" y="89" on="0"/>
        <pt x="378" y="75" on="0"/>
        <pt x="356" y="75" on="1"/>
        <pt x="330" y="75" on="0"/>
        <pt x="285" y="92" on="0"/>
        <pt x="252" y="122" on="0"/>
        <pt x="234" y="163" on="0"/>
        <pt x="234" y="187" on="1"/>
        <pt x="234" y="232" on="0"/>
        <pt x="294" y="276" on="0"/>
        <pt x="347" y="276" on="1"/>
        <pt x="357" y="276" on="0"/>
        <pt x="383" y="274" on="0"/>
        <pt x="410" y="272" on="0"/>
        <pt x="435" y="268" on="0"/>
        <pt x="445" y="267" on="1"/>
        <pt x="445" y="292" on="1"/>
        <pt x="445" y="321" on="0"/>
        <pt x="419" y="346" on="0"/>
        <pt x="386" y="346" on="1"/>
        <pt x="353" y="346" on="0"/>
        <pt x="304" y="331" on="1"/>
        <pt x="277" y="323" on="1"/>
        <pt x="256" y="368" on="1"/>
        <pt x="290" y="389" on="0"/>
        <pt x="358" y="414" on="0"/>
        <pt x="393" y="414" on="1"/>
        <pt x="458" y="414" on="0"/>
        <pt x="493" y="379" on="1"/>
        <pt x="509" y="363" on="0"/>
        <pt x="524" y="321" on="0"/>
        <pt x="524" y="290" on="1"/>
        <pt x="524" y="185" on="1"/>
        <pt x="524" y="164" on="0"/>
        <pt x="542" y="140" on="0"/>
        <pt x="565" y="140" on="1"/>
        <pt x="600" y="140" on="0"/>
        <pt x="649" y="201" on="0"/>
        <pt x="649" y="272" on="1"/>
        <pt x="649" y="324" on="0"/>
        <pt x="611" y="410" on="0"/>
        <pt x="544" y="473" on="0"/>
        <pt x="449" y="508" on="0"/>
        <pt x="392" y="508" on="1"/>
        <pt x="336" y="508" on="0"/>
        <pt x="239" y="473" on="0"/>
        <pt x="167" y="407" on="0"/>
        <pt x="125" y="310" on="0"/>
        <pt x="125" y="247" on="1"/>
        <pt x="125" y="183" on="0"/>
        <pt x="166" y="82" on="0"/>
        <pt x="239" y="13" on="0"/>
        <pt x="340" y="-24" on="0"/>
        <pt x="400" y="-24" on="1"/>
        <pt x="448" y="-24" on="0"/>
        <pt x="549" y="0" on="0"/>
        <pt x="597" y="20" on="1"/>
        <pt x="663" y="47" on="1"/>
      </contour>
      <contour>
        <pt x="343" y="219" on="1"/>
        <pt x="328" y="219" on="0"/>
        <pt x="310" y="206" on="0"/>
        <pt x="310" y="188" on="1"/>
        <pt x="310" y="168" on="0"/>
        <pt x="341" y="141" on="0"/>
        <pt x="370" y="141" on="1"/>
        <pt x="388" y="141" on="0"/>
        <pt x="426" y="151" on="0"/>
        <pt x="437" y="157" on="1"/>
        <pt x="442" y="161" on="0"/>
        <pt x="445" y="166" on="0"/>
        <pt x="445" y="170" on="1"/>
        <pt x="445" y="213" on="1"/>
        <pt x="445" y="219" on="0"/>
        <pt x="438" y="219" on="1"/>
      </contour>
    </TTGlyph>
    <TTGlyph name="at.cap" xMin="40" yMin="-10" xMax="722" yMax="673">
      <component glyphName="at" x="0" y="89" flags="0x204"/>
    </TTGlyph>
    <TTGlyph name="atilde" xMin="33" yMin="-8" xMax="527" yMax="685">
      <component glyphName="a" x="0" y="0" flags="0x204"/>
      <component glyphName="tilde" x="64" y="0" flags="0x4"/>
    </TTGlyph>
    <TTGlyph name="b" xMin="64" yMin="-8" xMax="533" yMax="709">
      <contour>
        <pt x="64" y="0" on="1"/>
        <pt x="64" y="709" on="1"/>
        <pt x="165" y="709" on="1"/>
        <pt x="165" y="444" on="1"/>
        <pt x="187" y="456" on="1"/>
        <pt x="226" y="477" on="0"/>
        <pt x="288" y="496" on="0"/>
        <pt x="321" y="496" on="1"/>
        <pt x="366" y="496" on="0"/>
        <pt x="443" y="460" on="0"/>
        <pt x="500" y="394" on="0"/>
        <pt x="533" y="301" on="0"/>
        <pt x="533" y="244" on="1"/>
        <pt x="533" y="187" on="0"/>
        <pt x="502" y="94" on="0"/>
        <pt x="445" y="28" on="0"/>
        <pt x="365" y="-8" on="0"/>
        <pt x="317" y="-8" on="1"/>
        <pt x="285" y="-8" on="0"/>
        <pt x="218" y="12" on="0"/>
        <pt x="182" y="32" on="1"/>
        <pt x="156" y="46" on="1"/>
        <pt x="139" y="0" on="1"/>
      </contour>
      <contour>
        <pt x="165" y="131" on="1"/>
        <pt x="165" y="122" on="0"/>
        <pt x="173" y="117" on="1"/>
        <pt x="194" y="105" on="0"/>
        <pt x="265" y="85" on="0"/>
        <pt x="299" y="85" on="1"/>
        <pt x="328" y="85" on="0"/>
        <pt x="376" y="100" on="0"/>
        <pt x="411" y="137" on="0"/>
        <pt x="430" y="198" on="0"/>
        <pt x="430" y="244" on="1"/>
        <pt x="430" y="331" on="0"/>
        <pt x="359" y="401" on="0"/>
        <pt x="300" y="401" on="1"/>
        <pt x="265" y="401" on="0"/>
        <pt x="193" y="380" on="0"/>
        <pt x="173" y="369" on="1"/>
        <pt x="165" y="365" on="0"/>
        <pt x="165" y="356" on="1"/>
      </contour>
    </TTGlyph>
    <TTGlyph name="backslash" xMin="8" yMin="0" xMax="448" yMax="663">
      <contour>
        <pt x="343" y="0" on="1"/>
        <pt x="8" y="663" on="1"/>
        <pt x="113" y="663" on="1"/>
        <pt x="448" y="0" on="1"/>
      </contour>
    </TTGlyph>
    <TTGlyph name="bar" xMin="80" yMin="-229" xMax="173" yMax="709">
      <contour>
        <pt x="80" y="709" on="1"/>
        <pt x="173" y="709" on="1"/>
        <pt x="173" y="-229" on="1"/>
        <pt x="80" y="-229" on="1"/>
      </contour>
    </TTGlyph>
    <TTGlyph name="braceleft" xMin="42" yMin="-239" xMax="347" yMax="673">
      <contour>
        <pt x="134" y="217" on="1"/>
        <pt x="167" y="205" on="0"/>
        <pt x="209" y="178" on="0"/>
        <pt x="234" y="147" on="0"/>
        <pt x="244" y="109" on="0"/>
        <pt x="244" y="87" on="1"/>
        <pt x="244" y="64" on="0"/>
        <pt x="236" y="5" on="0"/>
        <pt x="226" y="-53" on="0"/>
        <pt x="218" y="-104" on="0"/>
        <pt x="218" y="-119" on="1"/>
        <pt x="218" y="-134" on="0"/>
        <pt x="229" y="-146" on="0"/>
        <pt x="246" y="-149" on="1"/>
        <pt x="347" y="-167" on="1"/>
        <pt x="347" y="-224" on="1"/>
        <pt x="324" y="-230" on="0"/>
        <pt x="275" y="-239" on="0"/>
        <pt x="252" y="-239" on="1"/>
        <pt x="193" y="-239" on="0"/>
        <pt x="121" y="-179" on="0"/>
        <pt x="121" y="-121" on="1"/>
        <pt x="121" y="-100" on="0"/>
        <pt x="129" y="-45" on="0"/>
        <pt x="139" y="12" on="0"/>
        <pt x="147" y="67" on="0"/>
        <pt x="147" y="87" on="1"/>
        <pt x="147" y="128" on="0"/>
        <pt x="99" y="170" on="0"/>
        <pt x="42" y="183" on="1"/>
        <pt x="42" y="251" on="1"/>
        <pt x="99" y="264" on="0"/>
        <pt x="147" y="306" on="0"/>
        <pt x="147" y="347" on="1"/>
        <pt x="147" y="367" on="0"/>
        <pt x="139" y="422" on="0"/>
        <pt x="129" y="479" on="0"/>
        <pt x="121" y="534" on="0"/>
        <pt x="121" y="555" on="1"/>
        <pt x="121" y="613" on="0"/>
        <pt x="193" y="673" on="0"/>
        <pt x="252" y="673" on="1"/>
        <pt x="275" y="673" on="0"/>
        <pt x="324" y="664" on="0"/>
        <pt x="347" y="658" on="1"/>
        <pt x="347" y="601" on="1"/>
        <pt x="246" y="583" on="1"/>
        <pt x="229" y="580" on="0"/>
        <pt x="218" y="568" on="0"/>
        <pt x="218" y="553" on="1"/>
        <pt x="218" y="538" on="0"/>
        <pt x="226" y="487" on="0"/>
        <pt x="236" y="429" on="0"/>
        <pt x="244" y="369" on="0"/>
        <pt x="244" y="347" on="1"/>
        <pt x="244" y="324" on="0"/>
        <pt x="234" y="287" on="0"/>
        <pt x="209" y="256" on="0"/>
        <pt x="167" y="229" on="0"/>
      </contour>
    </TTGlyph>
    <TTGlyph name="braceleft.cap" xMin="42" yMin="-125" xMax="347" yMax="787">
      <component glyphName="braceleft" x="0" y="114" flags="0x204"/>
    </TTGlyph>
    <TTGlyph name="braceright" xMin="6" yMin="-239" xMax="311" yMax="673">
      <contour>
        <pt x="219" y="217" on="1"/>
        <pt x="186" y="229" on="0"/>
        <pt x="144" y="256" on="0"/>
        <pt x="119" y="287" on="0"/>
        <pt x="109" y="324" on="0"/>
        <pt x="109" y="347" on="1"/>
        <pt x="109" y="369" on="0"/>
        <pt x="117" y="429" on="0"/>
        <pt x="127" y="487" on="0"/>
        <pt x="135" y="538" on="0"/>
        <pt x="135" y="553" on="1"/>
        <pt x="135" y="568" on="0"/>
        <pt x="124" y="580" on="0"/>
        <pt x="107" y="583" on="1"/>
        <pt x="6" y="601" on="1"/>
        <pt x="6" y="658" on="1"/>
        <pt x="29" y="664" on="0"/>
        <pt x="78" y="673" on="0"/>
        <pt x="101" y="673" on="1"/>
        <pt x="160" y="673" on="0"/>
        <pt x="232" y="613" on="0"/>
        <pt x="232" y="555" on="1"/>
        <pt x="232" y="534" on="0"/>
        <pt x="224" y="479" on="0"/>
        <pt x="214" y="422" on="0"/>
        <pt x="206" y="367" on="0"/>
        <pt x="206" y="347" on="1"/>
        <pt x="206" y="306" on="0"/>
        <pt x="254" y="264" on="0"/>
        <pt x="311" y="251" on="1"/>
        <pt x="311" y="183" on="1"/>
        <pt x="254" y="170" on="0"/>
        <pt x="206" y="128" on="0"/>
        <pt x="206" y="87" on="1"/>
        <pt x="206" y="67" on="0"/>
        <pt x="214" y="12" on="0"/>
        <pt x="224" y="-45" on="0"/>
        <pt x="232" y="-100" on="0"/>
        <pt x="232" y="-121" on="1"/>
        <pt x="232" y="-179" on="0"/>
        <pt x="160" y="-239" on="0"/>
        <pt x="101" y="-239" on="1"/>
        <pt x="78" y="-239" on="0"/>
        <pt x="29" y="-230" on="0"/>
        <pt x="6" y="-224" on="1"/>
        <pt x="6" y="-167" on="1"/>
        <pt x="107" y="-149" on="1"/>
        <pt x="124" y="-146" on="0"/>
        <pt x="135" y="-134" on="0"/>
        <pt x="135" y="-119" on="1"/>
        <pt x="135" y="-104" on="0"/>
        <pt x="127" y="-53" on="0"/>
        <pt x="117" y="5" on="0"/>
        <pt x="109" y="64" on="0"/>
        <pt x="109" y="87" on="1"/>
        <pt x="109" y="109" on="0"/>
        <pt x="119" y="147" on="0"/>
        <pt x="144" y="178" on="0"/>
        <pt x="186" y="205" on="0"/>
      </contour>
    </TTGlyph>
    <TTGlyph name="braceright.cap" xMin="6" yMin="-125" xMax="311" yMax="787">
      <component glyphName="braceright" x="0" y="114" flags="0x204"/>
    </TTGlyph>
    <TTGlyph name="bracketleft" xMin="78" yMin="-229" xMax="309" yMax="663">
      <contour>
        <pt x="78" y="663" on="1"/>
        <pt x="309" y="663" on="1"/>
        <pt x="309" y="574" on="1"/>
        <pt x="176" y="574" on="1"/>
        <pt x="176" y="-140" on="1"/>
        <pt x="309" y="-140" on="1"/>
        <pt x="309" y="-229" on="1"/>
        <pt x="78" y="-229" on="1"/>
      </contour>
    </TTGlyph>
    <TTGlyph name="bracketleft.cap" xMin="78" yMin="-115" xMax="309" yMax="777">
      <component glyphName="bracketleft" x="0" y="114" flags="0x204"/>
    </TTGlyph>
    <TTGlyph name="bracketright" xMin="15" yMin="-229" xMax="246" yMax="663">
      <contour>
        <pt x="246" y="-229" on="1"/>
        <pt x="15" y="-229" on="1"/>
        <pt x="15" y="-140" on="1"/>
        <pt x="148" y="-140" on="1"/>
        <pt x="148" y="574" on="1"/>
        <pt x="15" y="574" on="1"/>
        <pt x="15" y="663" on="1"/>
        <pt x="246" y="663" on="1"/>
      </contour>
    </TTGlyph>
    <TTGlyph name="bracketright.cap" xMin="15" yMin="-115" xMax="246" yMax="777">
      <component glyphName="bracketright" x="0" y="114" flags="0x204"/>
    </TTGlyph>
    <TTGlyph name="breve" xMin="42" yMin="553" xMax="361" yMax="704">
      <contour>
        <pt x="202" y="553" on="1"/>
        <pt x="136" y="553" on="0"/>
        <pt x="53" y="630" on="0"/>
        <pt x="42" y="694" on="1"/>
        <pt x="105" y="704" on="1"/>
        <pt x="118" y="669" on="0"/>
        <pt x="166" y="629" on="0"/>
        <pt x="202" y="629" on="1"/>
        <pt x="237" y="629" on="0"/>
        <pt x="285" y="669" on="0"/>
        <pt x="298" y="704" on="1"/>
        <pt x="361" y="694" on="1"/>
        <pt x="350" y="630" on="0"/>
        <pt x="268" y="553" on="0"/>
      </contour>
    </TTGlyph>
    <TTGlyph name="breve.cap" xMin="42" yMin="733" xMax="361" yMax="884">
      <contour>
        <pt x="202" y="733" on="1"/>
        <pt x="136" y="733" on="0"/>
        <pt x="53" y="810" on="0"/>
        <pt x="42" y="874" on="1"/>
        <pt x="105" y="884" on="1"/>
        <pt x="118" y="849" on="0"/>
        <pt x="166" y="809" on="0"/>
        <pt x="202" y="809" on="1"/>
        <pt x="237" y="809" on="0"/>
        <pt x="285" y="849" on="0"/>
        <pt x="298" y="884" on="1"/>
        <pt x="361" y="874" on="1"/>
        <pt x="350" y="810" on="0"/>
        <pt x="268" y="733" on="0"/>
      </contour>
    </TTGlyph>
    <TTGlyph name="brokenbar" xMin="80" yMin="-229" xMax="173" yMax="709">
      <contour>
        <pt x="80" y="709" on="1"/>
        <pt x="173" y="709" on="1"/>
        <pt x="173" y="291" on="1"/>
        <pt x="80" y="291" on="1"/>
      </contour>
      <contour>
        <pt x="80" y="189" on="1"/>
        <pt x="173" y="189" on="1"/>
        <pt x="173" y="-229" on="1"/>
        <pt x="80" y="-229" on="1"/>
      </contour>
    </TTGlyph>
    <TTGlyph name="bullet" xMin="70" yMin="180" xMax="281" yMax="382">
      <contour>
        <pt x="281" y="180" on="1"/>
        <pt x="70" y="180" on="1"/>
        <pt x="70" y="382" on="1"/>
        <pt x="256" y="382" on="1"/>
        <pt x="271" y="382" on="0"/>
        <pt x="281" y="374" on="0"/>
        <pt x="281" y="360" on="1"/>
      </contour>
    </TTGlyph>
    <TTGlyph name="bullet.cap" xMin="70" yMin="230" xMax="281" yMax="432">
      <component glyphName="bullet" x="0" y="50" flags="0x204"/>
    </TTGlyph>
    <TTGlyph name="c" xMin="34" yMin="-8" xMax="485" yMax="496">
      <contour>
        <pt x="485" y="81" on="1"/>
        <pt x="437" y="38" on="0"/>
        <pt x="328" y="-8" on="0"/>
        <pt x="271" y="-8" on="1"/>
        <pt x="220" y="-8" on="0"/>
        <pt x="133" y="27" on="0"/>
        <pt x="70" y="93" on="0"/>
        <pt x="34" y="187" on="0"/>
        <pt x="34" y="246" on="1"/>
        <pt x="34" y="301" on="0"/>
        <pt x="72" y="393" on="0"/>
        <pt x="137" y="459" on="0"/>
        <pt x="224" y="496" on="0"/>
        <pt x="273" y="496" on="1"/>
        <pt x="349" y="496" on="0"/>
        <pt x="455" y="412" on="0"/>
        <pt x="481" y="344" on="1"/>
        <pt x="417" y="311" on="1"/>
        <pt x="377" y="347" on="1"/>
        <pt x="360" y="362" on="0"/>
        <pt x="332" y="385" on="0"/>
        <pt x="306" y="400" on="0"/>
        <pt x="280" y="407" on="0"/>
        <pt x="264" y="407" on="1"/>
        <pt x="209" y="407" on="0"/>
        <pt x="137" y="323" on="0"/>
        <pt x="137" y="248" on="1"/>
        <pt x="137" y="163" on="0"/>
        <pt x="211" y="83" on="0"/>
        <pt x="277" y="83" on="1"/>
        <pt x="305" y="83" on="0"/>
        <pt x="360" y="97" on="0"/>
        <pt x="397" y="112" on="1"/>
        <pt x="450" y="134" on="1"/>
      </contour>
    </TTGlyph>
    <TTGlyph name="cacute" xMin="34" yMin="-8" xMax="485" yMax="730">
      <component glyphName="c" x="0" y="0" flags="0x204"/>
      <component glyphName="acute" x="87" y="0" flags="0x4"/>
    </TTGlyph>
    <TTGlyph name="caron" xMin="31" yMin="549" xMax="371" yMax="727">
      <contour>
        <pt x="330" y="727" on="1"/>
        <pt x="371" y="687" on="1"/>
        <pt x="244" y="561" on="1"/>
        <pt x="236" y="553" on="0"/>
        <pt x="227" y="549" on="0"/>
        <pt x="216" y="549" on="1"/>
        <pt x="187" y="549" on="1"/>
        <pt x="176" y="549" on="0"/>
        <pt x="166" y="553" on="0"/>
        <pt x="158" y="561" on="1"/>
        <pt x="31" y="687" on="1"/>
        <pt x="73" y="727" on="1"/>
        <pt x="201" y="628" on="1"/>
        <pt x="203" y="628" on="1"/>
      </contour>
    </TTGlyph>
    <TTGlyph name="caron.cap" xMin="31" yMin="721" xMax="371" yMax="899">
      <contour>
        <pt x="330" y="899" on="1"/>
        <pt x="371" y="859" on="1"/>
        <pt x="244" y="733" on="1"/>
        <pt x="236" y="725" on="0"/>
        <pt x="227" y="721" on="0"/>
        <pt x="216" y="721" on="1"/>
        <pt x="187" y="721" on="1"/>
        <pt x="176" y="721" on="0"/>
        <pt x="166" y="725" on="0"/>
        <pt x="158" y="733" on="1"/>
        <pt x="31" y="859" on="1"/>
        <pt x="73" y="899" on="1"/>
        <pt x="201" y="800" on="1"/>
        <pt x="203" y="800" on="1"/>
      </contour>
    </TTGlyph>
    <TTGlyph name="ccaron" xMin="34" yMin="-8" xMax="485" yMax="727">
      <component glyphName="c" x="0" y="0" flags="0x204"/>
      <component glyphName="caron" x="74" y="0" flags="0x4"/>
    </TTGlyph>
    <TTGlyph name="ccedilla" xMin="34" yMin="-234" xMax="485" yMax="496">
      <contour>
        <pt x="485" y="82" on="1"/>
        <pt x="440" y="42" on="0"/>
        <pt x="340" y="-4" on="0"/>
        <pt x="288" y="-7" on="1"/>
        <pt x="275" y="-25" on="0"/>
        <pt x="275" y="-37" on="1"/>
        <pt x="275" y="-48" on="0"/>
        <pt x="310" y="-59" on="0"/>
        <pt x="351" y="-75" on="0"/>
        <pt x="386" y="-105" on="0"/>
        <pt x="386" y="-134" on="1"/>
        <pt x="386" y="-178" on="0"/>
        <pt x="297" y="-234" on="0"/>
        <pt x="208" y="-234" on="1"/>
        <pt x="197" y="-178" on="1"/>
        <pt x="258" y="-167" on="1"/>
        <pt x="281" y="-163" on="0"/>
        <pt x="297" y="-149" on="0"/>
        <pt x="297" y="-141" on="1"/>
        <pt x="297" y="-132" on="0"/>
        <pt x="265" y="-120" on="0"/>
        <pt x="228" y="-105" on="0"/>
        <pt x="196" y="-84" on="0"/>
        <pt x="196" y="-64" on="1"/>
        <pt x="196" y="-50" on="0"/>
        <pt x="214" y="-20" on="0"/>
        <pt x="228" y="-4" on="1"/>
        <pt x="186" y="2" on="0"/>
        <pt x="114" y="43" on="0"/>
        <pt x="63" y="107" on="0"/>
        <pt x="34" y="194" on="0"/>
        <pt x="34" y="246" on="1"/>
        <pt x="34" y="301" on="0"/>
        <pt x="72" y="393" on="0"/>
        <pt x="137" y="459" on="0"/>
        <pt x="224" y="496" on="0"/>
        <pt x="273" y="496" on="1"/>
        <pt x="349" y="496" on="0"/>
        <pt x="455" y="412" on="0"/>
        <pt x="481" y="344" on="1"/>
        <pt x="417" y="311" on="1"/>
        <pt x="377" y="347" on="1"/>
        <pt x="360" y="362" on="0"/>
        <pt x="332" y="385" on="0"/>
        <pt x="306" y="400" on="0"/>
        <pt x="280" y="407" on="0"/>
        <pt x="264" y="407" on="1"/>
        <pt x="209" y="407" on="0"/>
        <pt x="137" y="323" on="0"/>
        <pt x="137" y="248" on="1"/>
        <pt x="137" y="163" on="0"/>
        <pt x="211" y="84" on="0"/>
        <pt x="277" y="84" on="1"/>
        <pt x="305" y="84" on="0"/>
        <pt x="360" y="98" on="0"/>
        <pt x="397" y="113" on="1"/>
        <pt x="450" y="135" on="1"/>
      </contour>
    </TTGlyph>
    <TTGlyph name="ccircumflex" xMin="34" yMin="-8" xMax="485" yMax="719">
      <component glyphName="c" x="0" y="0" flags="0x204"/>
      <component glyphName="circumflex" x="75" y="0" flags="0x4"/>
    </TTGlyph>
    <TTGlyph name="cdotaccent" xMin="34" yMin="-8" xMax="485" yMax="663">
      <component glyphName="c" x="0" y="0" flags="0x204"/>
      <component glyphName="dotaccent" x="75" y="0" flags="0x4"/>
    </TTGlyph>
    <TTGlyph name="cedilla" xMin="107" yMin="-234" xMax="297" yMax="13">
      <contour>
        <pt x="208" y="6" on="1"/>
        <pt x="198" y="-7" on="0"/>
        <pt x="186" y="-28" on="0"/>
        <pt x="186" y="-37" on="1"/>
        <pt x="186" y="-48" on="0"/>
        <pt x="221" y="-59" on="0"/>
        <pt x="262" y="-75" on="0"/>
        <pt x="297" y="-105" on="0"/>
        <pt x="297" y="-134" on="1"/>
        <pt x="297" y="-178" on="0"/>
        <pt x="208" y="-234" on="0"/>
        <pt x="119" y="-234" on="1"/>
        <pt x="108" y="-178" on="1"/>
        <pt x="169" y="-167" on="1"/>
        <pt x="192" y="-163" on="0"/>
        <pt x="208" y="-149" on="0"/>
        <pt x="208" y="-141" on="1"/>
        <pt x="208" y="-132" on="0"/>
        <pt x="176" y="-120" on="0"/>
        <pt x="139" y="-105" on="0"/>
        <pt x="107" y="-84" on="0"/>
        <pt x="107" y="-64" on="1"/>
        <pt x="107" y="-47" on="0"/>
        <pt x="136" y="-6" on="0"/>
        <pt x="155" y="13" on="1"/>
      </contour>
    </TTGlyph>
    <TTGlyph name="cent" xMin="85" yMin="-116" xMax="539" yMax="609">
      <contour>
        <pt x="539" y="82" on="1"/>
        <pt x="501" y="48" on="0"/>
        <pt x="405" y="0" on="0"/>
        <pt x="356" y="-6" on="1"/>
        <pt x="347" y="-116" on="1"/>
        <pt x="300" y="-116" on="1"/>
        <pt x="300" y="-7" on="1"/>
        <pt x="250" y="-3" on="0"/>
        <pt x="171" y="37" on="0"/>
        <pt x="115" y="104" on="0"/>
        <pt x="85" y="193" on="0"/>
        <pt x="85" y="246" on="1"/>
        <pt x="85" y="298" on="0"/>
        <pt x="118" y="386" on="0"/>
        <pt x="176" y="452" on="0"/>
        <pt x="254" y="492" on="0"/>
        <pt x="300" y="496" on="1"/>
        <pt x="309" y="609" on="1"/>
        <pt x="356" y="609" on="1"/>
        <pt x="356" y="494" on="1"/>
        <pt x="419" y="483" on="0"/>
        <pt x="511" y="402" on="0"/>
        <pt x="529" y="345" on="1"/>
        <pt x="465" y="312" on="1"/>
        <pt x="429" y="348" on="1"/>
        <pt x="408" y="369" on="0"/>
        <pt x="373" y="393" on="0"/>
        <pt x="356" y="400" on="1"/>
        <pt x="356" y="84" on="1"/>
        <pt x="398" y="89" on="0"/>
        <pt x="451" y="112" on="1"/>
        <pt x="506" y="136" on="1"/>
      </contour>
      <contour>
        <pt x="188" y="248" on="1"/>
        <pt x="188" y="105" on="0"/>
        <pt x="300" y="85" on="1"/>
        <pt x="300" y="406" on="1"/>
        <pt x="251" y="401" on="0"/>
        <pt x="188" y="320" on="0"/>
      </contour>
    </TTGlyph>
    <TTGlyph name="cent.lprop" xMin="47" yMin="-116" xMax="501" yMax="609">
      <component glyphName="cent" x="-38" y="0" flags="0x4"/>
    </TTGlyph>
    <TTGlyph name="cent.oprop" xMin="52" yMin="-116" xMax="463" yMax="542">
      <component glyphName="cent.otab" x="-55" y="0" flags="0x4"/>
    </TTGlyph>
    <TTGlyph name="cent.otab" xMin="107" yMin="-116" xMax="518" yMax="542">
      <contour>
        <pt x="518" y="71" on="1"/>
        <pt x="485" y="40" on="0"/>
        <pt x="398" y="-2" on="0"/>
        <pt x="354" y="-8" on="1"/>
        <pt x="347" y="-116" on="1"/>
        <pt x="305" y="-116" on="1"/>
        <pt x="305" y="-9" on="1"/>
        <pt x="260" y="-5" on="0"/>
        <pt x="187" y="31" on="0"/>
        <pt x="135" y="90" on="0"/>
        <pt x="107" y="169" on="0"/>
        <pt x="107" y="216" on="1"/>
        <pt x="107" y="262" on="0"/>
        <pt x="138" y="341" on="0"/>
        <pt x="192" y="399" on="0"/>
        <pt x="264" y="435" on="0"/>
        <pt x="305" y="438" on="1"/>
        <pt x="312" y="542" on="1"/>
        <pt x="354" y="542" on="1"/>
        <pt x="354" y="437" on="1"/>
        <pt x="410" y="428" on="0"/>
        <pt x="494" y="353" on="0"/>
        <pt x="510" y="305" on="1"/>
        <pt x="453" y="270" on="1"/>
        <pt x="422" y="301" on="1"/>
        <pt x="401" y="322" on="0"/>
        <pt x="370" y="343" on="0"/>
        <pt x="354" y="349" on="1"/>
        <pt x="354" y="77" on="1"/>
        <pt x="391" y="81" on="0"/>
        <pt x="439" y="103" on="1"/>
        <pt x="488" y="125" on="1"/>
      </contour>
      <contour>
        <pt x="206" y="218" on="1"/>
        <pt x="206" y="158" on="0"/>
        <pt x="255" y="87" on="0"/>
        <pt x="305" y="79" on="1"/>
        <pt x="305" y="353" on="1"/>
        <pt x="260" y="348" on="0"/>
        <pt x="206" y="279" on="0"/>
      </contour>
    </TTGlyph>
    <TTGlyph name="circumflex" xMin="31" yMin="541" xMax="371" yMax="719">
      <contour>
        <pt x="203" y="640" on="1"/>
        <pt x="201" y="640" on="1"/>
        <pt x="73" y="541" on="1"/>
        <pt x="31" y="581" on="1"/>
        <pt x="158" y="707" on="1"/>
        <pt x="166" y="715" on="0"/>
        <pt x="176" y="719" on="0"/>
        <pt x="187" y="719" on="1"/>
        <pt x="216" y="719" on="1"/>
        <pt x="227" y="719" on="0"/>
        <pt x="236" y="715" on="0"/>
        <pt x="244" y="707" on="1"/>
        <pt x="371" y="581" on="1"/>
        <pt x="330" y="541" on="1"/>
      </contour>
    </TTGlyph>
    <TTGlyph name="circumflex.cap" xMin="31" yMin="721" xMax="371" yMax="899">
      <contour>
        <pt x="203" y="820" on="1"/>
        <pt x="201" y="820" on="1"/>
        <pt x="73" y="721" on="1"/>
        <pt x="31" y="761" on="1"/>
        <pt x="158" y="887" on="1"/>
        <pt x="166" y="895" on="0"/>
        <pt x="176" y="899" on="0"/>
        <pt x="187" y="899" on="1"/>
        <pt x="216" y="899" on="1"/>
        <pt x="227" y="899" on="0"/>
        <pt x="236" y="895" on="0"/>
        <pt x="244" y="887" on="1"/>
        <pt x="371" y="761" on="1"/>
        <pt x="330" y="721" on="1"/>
      </contour>
    </TTGlyph>
    <TTGlyph name="colon" xMin="57" yMin="0" xMax="168" yMax="431">
      <contour>
        <pt x="168" y="0" on="1"/>
        <pt x="57" y="0" on="1"/>
        <pt x="57" y="112" on="1"/>
        <pt x="148" y="112" on="1"/>
        <pt x="160" y="112" on="0"/>
        <pt x="168" y="104" on="0"/>
        <pt x="168" y="94" on="1"/>
      </contour>
      <contour>
        <pt x="168" y="319" on="1"/>
        <pt x="57" y="319" on="1"/>
        <pt x="57" y="431" on="1"/>
        <pt x="148" y="431" on="1"/>
        <pt x="160" y="431" on="0"/>
        <pt x="168" y="423" on="0"/>
        <pt x="168" y="413" on="1"/>
      </contour>
    </TTGlyph>
    <TTGlyph name="comma" xMin="24" yMin="-152" xMax="167" yMax="112">
      <contour>
        <pt x="86" y="-16" on="1"/>
        <pt x="89" y="-11" on="0"/>
        <pt x="88" y="-5" on="0"/>
        <pt x="82" y="0" on="1"/>
        <pt x="69" y="9" on="1"/>
        <pt x="60" y="15" on="0"/>
        <pt x="55" y="24" on="0"/>
        <pt x="55" y="33" on="1"/>
        <pt x="55" y="112" on="1"/>
        <pt x="147" y="112" on="1"/>
        <pt x="159" y="112" on="0"/>
        <pt x="167" y="104" on="0"/>
        <pt x="167" y="94" on="1"/>
        <pt x="167" y="33" on="1"/>
        <pt x="167" y="11" on="0"/>
        <pt x="160" y="-26" on="0"/>
        <pt x="137" y="-67" on="0"/>
        <pt x="94" y="-117" on="0"/>
        <pt x="59" y="-152" on="1"/>
        <pt x="24" y="-124" on="1"/>
      </contour>
    </TTGlyph>
    <TTGlyph name="commaaccent" xMin="143" yMin="-276" xMax="260" yMax="-58">
      <contour>
        <pt x="143" y="-265" on="1"/>
        <pt x="167" y="-58" on="1"/>
        <pt x="238" y="-58" on="1"/>
        <pt x="253" y="-58" on="0"/>
        <pt x="257" y="-68" on="1"/>
        <pt x="260" y="-76" on="0"/>
        <pt x="260" y="-92" on="1"/>
        <pt x="260" y="-110" on="0"/>
        <pt x="247" y="-153" on="0"/>
        <pt x="233" y="-183" on="1"/>
        <pt x="191" y="-276" on="1"/>
      </contour>
    </TTGlyph>
    <TTGlyph name="copyright" xMin="40" yMin="-10" xMax="718" yMax="673">
      <contour>
        <pt x="512" y="246" on="1"/>
        <pt x="489" y="220" on="0"/>
        <pt x="417" y="185" on="0"/>
        <pt x="378" y="185" on="1"/>
        <pt x="347" y="185" on="0"/>
        <pt x="294" y="207" on="0"/>
        <pt x="256" y="247" on="0"/>
        <pt x="234" y="301" on="0"/>
        <pt x="234" y="334" on="1"/>
        <pt x="234" y="369" on="0"/>
        <pt x="258" y="424" on="0"/>
        <pt x="298" y="463" on="0"/>
        <pt x="350" y="483" on="0"/>
        <pt x="378" y="483" on="1"/>
        <pt x="420" y="483" on="0"/>
        <pt x="490" y="435" on="0"/>
        <pt x="504" y="395" on="1"/>
        <pt x="463" y="367" on="1"/>
        <pt x="432" y="395" on="1"/>
        <pt x="417" y="409" on="0"/>
        <pt x="392" y="420" on="0"/>
        <pt x="377" y="420" on="1"/>
        <pt x="343" y="420" on="0"/>
        <pt x="304" y="370" on="0"/>
        <pt x="304" y="334" on="1"/>
        <pt x="304" y="296" on="0"/>
        <pt x="344" y="248" on="0"/>
        <pt x="382" y="248" on="1"/>
        <pt x="396" y="248" on="0"/>
        <pt x="429" y="256" on="0"/>
        <pt x="443" y="263" on="1"/>
        <pt x="484" y="283" on="1"/>
      </contour>
      <contour>
        <pt x="123" y="332" on="1"/>
        <pt x="123" y="273" on="0"/>
        <pt x="160" y="176" on="0"/>
        <pt x="227" y="107" on="0"/>
        <pt x="322" y="68" on="0"/>
        <pt x="379" y="68" on="1"/>
        <pt x="436" y="68" on="0"/>
        <pt x="530" y="107" on="0"/>
        <pt x="597" y="176" on="0"/>
        <pt x="634" y="273" on="0"/>
        <pt x="634" y="332" on="1"/>
        <pt x="634" y="390" on="0"/>
        <pt x="597" y="487" on="0"/>
        <pt x="530" y="557" on="0"/>
        <pt x="436" y="595" on="0"/>
        <pt x="379" y="595" on="1"/>
        <pt x="322" y="595" on="0"/>
        <pt x="227" y="557" on="0"/>
        <pt x="160" y="487" on="0"/>
        <pt x="123" y="390" on="0"/>
      </contour>
      <contour>
        <pt x="718" y="332" on="1"/>
        <pt x="718" y="261" on="0"/>
        <pt x="666" y="137" on="0"/>
        <pt x="575" y="44" on="0"/>
        <pt x="451" y="-10" on="0"/>
        <pt x="379" y="-10" on="1"/>
        <pt x="307" y="-10" on="0"/>
        <pt x="183" y="44" on="0"/>
        <pt x="92" y="137" on="0"/>
        <pt x="40" y="261" on="0"/>
        <pt x="40" y="332" on="1"/>
        <pt x="40" y="402" on="0"/>
        <pt x="92" y="526" on="0"/>
        <pt x="183" y="619" on="0"/>
        <pt x="307" y="673" on="0"/>
        <pt x="379" y="673" on="1"/>
        <pt x="451" y="673" on="0"/>
        <pt x="575" y="619" on="0"/>
        <pt x="666" y="526" on="0"/>
        <pt x="718" y="402" on="0"/>
      </contour>
    </TTGlyph>
    <TTGlyph name="currency" xMin="63" yMin="88" xMax="563" yMax="574">
      <contour>
        <pt x="513" y="331" on="1"/>
        <pt x="513" y="270" on="0"/>
        <pt x="489" y="227" on="1"/>
        <pt x="563" y="153" on="1"/>
        <pt x="498" y="88" on="1"/>
        <pt x="427" y="159" on="1"/>
        <pt x="403" y="142" on="0"/>
        <pt x="344" y="125" on="0"/>
        <pt x="313" y="125" on="1"/>
        <pt x="282" y="125" on="0"/>
        <pt x="223" y="142" on="0"/>
        <pt x="199" y="159" on="1"/>
        <pt x="128" y="88" on="1"/>
        <pt x="63" y="153" on="1"/>
        <pt x="137" y="227" on="1"/>
        <pt x="113" y="270" on="0"/>
        <pt x="113" y="331" on="1"/>
        <pt x="113" y="391" on="0"/>
        <pt x="137" y="435" on="1"/>
        <pt x="63" y="509" on="1"/>
        <pt x="128" y="574" on="1"/>
        <pt x="199" y="503" on="1"/>
        <pt x="223" y="520" on="0"/>
        <pt x="282" y="537" on="0"/>
        <pt x="313" y="537" on="1"/>
        <pt x="344" y="537" on="0"/>
        <pt x="403" y="520" on="0"/>
        <pt x="427" y="503" on="1"/>
        <pt x="498" y="574" on="1"/>
        <pt x="563" y="509" on="1"/>
        <pt x="489" y="435" on="1"/>
        <pt x="513" y="391" on="0"/>
      </contour>
      <contour>
        <pt x="422" y="331" on="1"/>
        <pt x="422" y="390" on="0"/>
        <pt x="367" y="452" on="0"/>
        <pt x="313" y="452" on="1"/>
        <pt x="259" y="452" on="0"/>
        <pt x="204" y="390" on="0"/>
        <pt x="204" y="331" on="1"/>
        <pt x="204" y="272" on="0"/>
        <pt x="259" y="210" on="0"/>
        <pt x="313" y="210" on="1"/>
        <pt x="367" y="210" on="0"/>
        <pt x="422" y="272" on="0"/>
      </contour>
    </TTGlyph>
    <TTGlyph name="d" xMin="35" yMin="-8" xMax="505" yMax="709">
      <contour>
        <pt x="430" y="0" on="1"/>
        <pt x="413" y="46" on="1"/>
        <pt x="387" y="32" on="1"/>
        <pt x="313" y="-8" on="0"/>
        <pt x="250" y="-8" on="1"/>
        <pt x="202" y="-8" on="0"/>
        <pt x="122" y="28" on="0"/>
        <pt x="66" y="94" on="0"/>
        <pt x="35" y="186" on="0"/>
        <pt x="35" y="243" on="1"/>
        <pt x="35" y="299" on="0"/>
        <pt x="71" y="392" on="0"/>
        <pt x="133" y="459" on="0"/>
        <pt x="215" y="496" on="0"/>
        <pt x="262" y="496" on="1"/>
        <pt x="296" y="496" on="0"/>
        <pt x="359" y="475" on="0"/>
        <pt x="394" y="454" on="1"/>
        <pt x="404" y="448" on="1"/>
        <pt x="404" y="709" on="1"/>
        <pt x="505" y="709" on="1"/>
        <pt x="505" y="0" on="1"/>
      </contour>
      <contour>
        <pt x="404" y="358" on="1"/>
        <pt x="404" y="364" on="0"/>
        <pt x="401" y="369" on="0"/>
        <pt x="396" y="371" on="1"/>
        <pt x="371" y="385" on="0"/>
        <pt x="307" y="402" on="0"/>
        <pt x="276" y="402" on="1"/>
        <pt x="210" y="402" on="0"/>
        <pt x="138" y="324" on="0"/>
        <pt x="138" y="244" on="1"/>
        <pt x="138" y="199" on="0"/>
        <pt x="157" y="139" on="0"/>
        <pt x="191" y="101" on="0"/>
        <pt x="238" y="85" on="0"/>
        <pt x="267" y="85" on="1"/>
        <pt x="301" y="85" on="0"/>
        <pt x="375" y="105" on="0"/>
        <pt x="396" y="117" on="1"/>
        <pt x="404" y="122" on="0"/>
        <pt x="404" y="131" on="1"/>
      </contour>
    </TTGlyph>
    <TTGlyph name="dagger" xMin="42" yMin="-229" xMax="517" yMax="663">
      <contour>
        <pt x="239" y="-100" on="1"/>
        <pt x="236" y="-68" on="0"/>
        <pt x="233" y="-7" on="0"/>
        <pt x="233" y="19" on="1"/>
        <pt x="233" y="159" on="1"/>
        <pt x="233" y="186" on="0"/>
        <pt x="235" y="242" on="0"/>
        <pt x="238" y="280" on="1"/>
        <pt x="243" y="344" on="1"/>
        <pt x="162" y="337" on="1"/>
        <pt x="136" y="335" on="0"/>
        <pt x="90" y="332" on="0"/>
        <pt x="70" y="332" on="1"/>
        <pt x="42" y="332" on="1"/>
        <pt x="42" y="419" on="1"/>
        <pt x="70" y="419" on="1"/>
        <pt x="90" y="419" on="0"/>
        <pt x="136" y="416" on="0"/>
        <pt x="162" y="414" on="1"/>
        <pt x="243" y="407" on="1"/>
        <pt x="238" y="485" on="1"/>
        <pt x="236" y="516" on="0"/>
        <pt x="233" y="567" on="0"/>
        <pt x="233" y="587" on="1"/>
        <pt x="233" y="663" on="1"/>
        <pt x="326" y="663" on="1"/>
        <pt x="326" y="587" on="1"/>
        <pt x="326" y="567" on="0"/>
        <pt x="323" y="516" on="0"/>
        <pt x="321" y="485" on="1"/>
        <pt x="316" y="407" on="1"/>
        <pt x="397" y="414" on="1"/>
        <pt x="423" y="416" on="0"/>
        <pt x="469" y="419" on="0"/>
        <pt x="489" y="419" on="1"/>
        <pt x="517" y="419" on="1"/>
        <pt x="517" y="332" on="1"/>
        <pt x="489" y="332" on="1"/>
        <pt x="469" y="332" on="0"/>
        <pt x="423" y="335" on="0"/>
        <pt x="397" y="337" on="1"/>
        <pt x="316" y="344" on="1"/>
        <pt x="321" y="280" on="1"/>
        <pt x="324" y="242" on="0"/>
        <pt x="326" y="186" on="0"/>
        <pt x="326" y="159" on="1"/>
        <pt x="326" y="19" on="1"/>
        <pt x="326" y="-7" on="0"/>
        <pt x="323" y="-68" on="0"/>
        <pt x="320" y="-100" on="1"/>
        <pt x="307" y="-229" on="1"/>
        <pt x="252" y="-229" on="1"/>
      </contour>
    </TTGlyph>
    <TTGlyph name="daggerdbl" xMin="42" yMin="-229" xMax="517" yMax="663">
      <contour>
        <pt x="325" y="217" on="1"/>
        <pt x="325" y="198" on="0"/>
        <pt x="322" y="152" on="0"/>
        <pt x="320" y="129" on="1"/>
        <pt x="316" y="90" on="1"/>
        <pt x="397" y="97" on="1"/>
        <pt x="423" y="99" on="0"/>
        <pt x="469" y="102" on="0"/>
        <pt x="489" y="102" on="1"/>
        <pt x="517" y="102" on="1"/>
        <pt x="517" y="15" on="1"/>
        <pt x="489" y="15" on="1"/>
        <pt x="469" y="15" on="0"/>
        <pt x="423" y="18" on="0"/>
        <pt x="397" y="20" on="1"/>
        <pt x="316" y="27" on="1"/>
        <pt x="321" y="-51" on="1"/>
        <pt x="323" y="-82" on="0"/>
        <pt x="326" y="-133" on="0"/>
        <pt x="326" y="-153" on="1"/>
        <pt x="326" y="-229" on="1"/>
        <pt x="233" y="-229" on="1"/>
        <pt x="233" y="-153" on="1"/>
        <pt x="233" y="-133" on="0"/>
        <pt x="236" y="-82" on="0"/>
        <pt x="238" y="-51" on="1"/>
        <pt x="243" y="27" on="1"/>
        <pt x="162" y="20" on="1"/>
        <pt x="136" y="18" on="0"/>
        <pt x="90" y="15" on="0"/>
        <pt x="70" y="15" on="1"/>
        <pt x="42" y="15" on="1"/>
        <pt x="42" y="102" on="1"/>
        <pt x="70" y="102" on="1"/>
        <pt x="90" y="102" on="0"/>
        <pt x="136" y="99" on="0"/>
        <pt x="162" y="97" on="1"/>
        <pt x="243" y="90" on="1"/>
        <pt x="239" y="129" on="1"/>
        <pt x="237" y="153" on="0"/>
        <pt x="234" y="198" on="0"/>
        <pt x="234" y="217" on="1"/>
        <pt x="234" y="236" on="0"/>
        <pt x="237" y="282" on="0"/>
        <pt x="239" y="305" on="1"/>
        <pt x="243" y="344" on="1"/>
        <pt x="162" y="337" on="1"/>
        <pt x="136" y="335" on="0"/>
        <pt x="90" y="332" on="0"/>
        <pt x="70" y="332" on="1"/>
        <pt x="42" y="332" on="1"/>
        <pt x="42" y="419" on="1"/>
        <pt x="70" y="419" on="1"/>
        <pt x="90" y="419" on="0"/>
        <pt x="136" y="416" on="0"/>
        <pt x="162" y="414" on="1"/>
        <pt x="243" y="407" on="1"/>
        <pt x="238" y="485" on="1"/>
        <pt x="236" y="516" on="0"/>
        <pt x="233" y="567" on="0"/>
        <pt x="233" y="587" on="1"/>
        <pt x="233" y="663" on="1"/>
        <pt x="326" y="663" on="1"/>
        <pt x="326" y="587" on="1"/>
        <pt x="326" y="567" on="0"/>
        <pt x="323" y="516" on="0"/>
        <pt x="321" y="485" on="1"/>
        <pt x="316" y="407" on="1"/>
        <pt x="397" y="414" on="1"/>
        <pt x="423" y="416" on="0"/>
        <pt x="469" y="419" on="0"/>
        <pt x="489" y="419" on="1"/>
        <pt x="517" y="419" on="1"/>
        <pt x="517" y="332" on="1"/>
        <pt x="489" y="332" on="1"/>
        <pt x="469" y="332" on="0"/>
        <pt x="423" y="335" on="0"/>
        <pt x="397" y="337" on="1"/>
        <pt x="316" y="344" on="1"/>
        <pt x="320" y="305" on="1"/>
        <pt x="322" y="285" on="0"/>
        <pt x="325" y="236" on="0"/>
      </contour>
    </TTGlyph>
    <TTGlyph name="dcaron" xMin="35" yMin="-8" xMax="678" yMax="709">
      <component glyphName="d" x="0" y="0" flags="0x4"/>
      <component glyphName="commaaccent" x="418" y="767" flags="0x4"/>
    </TTGlyph>
    <TTGlyph name="dcroat" xMin="35" yMin="-8" xMax="583" yMax="709">
      <contour>
        <pt x="430" y="0" on="1"/>
        <pt x="413" y="46" on="1"/>
        <pt x="387" y="32" on="1"/>
        <pt x="313" y="-8" on="0"/>
        <pt x="250" y="-8" on="1"/>
        <pt x="202" y="-8" on="0"/>
        <pt x="122" y="28" on="0"/>
        <pt x="66" y="94" on="0"/>
        <pt x="35" y="186" on="0"/>
        <pt x="35" y="243" on="1"/>
        <pt x="35" y="299" on="0"/>
        <pt x="71" y="392" on="0"/>
        <pt x="133" y="459" on="0"/>
        <pt x="215" y="496" on="0"/>
        <pt x="262" y="496" on="1"/>
        <pt x="296" y="496" on="0"/>
        <pt x="359" y="475" on="0"/>
        <pt x="394" y="454" on="1"/>
        <pt x="404" y="448" on="1"/>
        <pt x="404" y="566" on="1"/>
        <pt x="228" y="566" on="1"/>
        <pt x="228" y="634" on="1"/>
        <pt x="404" y="634" on="1"/>
        <pt x="404" y="709" on="1"/>
        <pt x="505" y="709" on="1"/>
        <pt x="505" y="633" on="1"/>
        <pt x="583" y="619" on="1"/>
        <pt x="583" y="566" on="1"/>
        <pt x="505" y="566" on="1"/>
        <pt x="505" y="0" on="1"/>
      </contour>
      <contour>
        <pt x="404" y="358" on="1"/>
        <pt x="404" y="364" on="0"/>
        <pt x="401" y="369" on="0"/>
        <pt x="396" y="371" on="1"/>
        <pt x="371" y="385" on="0"/>
        <pt x="307" y="402" on="0"/>
        <pt x="276" y="402" on="1"/>
        <pt x="210" y="402" on="0"/>
        <pt x="138" y="324" on="0"/>
        <pt x="138" y="244" on="1"/>
        <pt x="138" y="199" on="0"/>
        <pt x="157" y="139" on="0"/>
        <pt x="191" y="101" on="0"/>
        <pt x="238" y="85" on="0"/>
        <pt x="267" y="85" on="1"/>
        <pt x="301" y="85" on="0"/>
        <pt x="375" y="105" on="0"/>
        <pt x="396" y="117" on="1"/>
        <pt x="404" y="122" on="0"/>
        <pt x="404" y="131" on="1"/>
      </contour>
    </TTGlyph>
    <TTGlyph name="degree" xMin="54" yMin="335" xMax="398" yMax="673">
      <contour>
        <pt x="398" y="504" on="1"/>
        <pt x="398" y="465" on="0"/>
        <pt x="370" y="402" on="0"/>
        <pt x="322" y="359" on="0"/>
        <pt x="260" y="335" on="0"/>
        <pt x="226" y="335" on="1"/>
        <pt x="192" y="335" on="0"/>
        <pt x="130" y="359" on="0"/>
        <pt x="82" y="402" on="0"/>
        <pt x="54" y="465" on="0"/>
        <pt x="54" y="504" on="1"/>
        <pt x="54" y="543" on="0"/>
        <pt x="82" y="606" on="0"/>
        <pt x="130" y="649" on="0"/>
        <pt x="192" y="673" on="0"/>
        <pt x="226" y="673" on="1"/>
        <pt x="260" y="673" on="0"/>
        <pt x="322" y="649" on="0"/>
        <pt x="370" y="606" on="0"/>
        <pt x="398" y="543" on="0"/>
      </contour>
      <contour>
        <pt x="314" y="504" on="1"/>
        <pt x="314" y="548" on="0"/>
        <pt x="268" y="594" on="0"/>
        <pt x="226" y="594" on="1"/>
        <pt x="184" y="594" on="0"/>
        <pt x="138" y="548" on="0"/>
        <pt x="138" y="504" on="1"/>
        <pt x="138" y="460" on="0"/>
        <pt x="184" y="414" on="0"/>
        <pt x="226" y="414" on="1"/>
        <pt x="268" y="414" on="0"/>
        <pt x="314" y="460" on="0"/>
      </contour>
    </TTGlyph>
    <TTGlyph name="dieresis" xMin="51" yMin="571" xMax="352" yMax="675">
      <contour>
        <pt x="159" y="571" on="1"/>
        <pt x="51" y="571" on="1"/>
        <pt x="51" y="675" on="1"/>
        <pt x="140" y="675" on="1"/>
        <pt x="151" y="675" on="0"/>
        <pt x="159" y="668" on="0"/>
        <pt x="159" y="658" on="1"/>
      </contour>
      <contour>
        <pt x="352" y="571" on="1"/>
        <pt x="244" y="571" on="1"/>
        <pt x="244" y="675" on="1"/>
        <pt x="333" y="675" on="1"/>
        <pt x="344" y="675" on="0"/>
        <pt x="352" y="668" on="0"/>
        <pt x="352" y="658" on="1"/>
      </contour>
    </TTGlyph>
    <TTGlyph name="dieresis.cap" xMin="51" yMin="751" xMax="352" yMax="855">
      <contour>
        <pt x="159" y="751" on="1"/>
        <pt x="51" y="751" on="1"/>
        <pt x="51" y="855" on="1"/>
        <pt x="140" y="855" on="1"/>
        <pt x="151" y="855" on="0"/>
        <pt x="159" y="848" on="0"/>
        <pt x="159" y="838" on="1"/>
      </contour>
      <contour>
        <pt x="352" y="751" on="1"/>
        <pt x="244" y="751" on="1"/>
        <pt x="244" y="855" on="1"/>
        <pt x="333" y="855" on="1"/>
        <pt x="344" y="855" on="0"/>
        <pt x="352" y="848" on="0"/>
        <pt x="352" y="838" on="1"/>
      </contour>
    </TTGlyph>
    <TTGlyph name="divide" xMin="75" yMin="35" xMax="465" yMax="456">
      <contour>
        <pt x="75" y="203" on="1"/>
        <pt x="75" y="287" on="1"/>
        <pt x="465" y="287" on="1"/>
        <pt x="465" y="203" on="1"/>
      </contour>
      <contour>
        <pt x="322" y="35" on="1"/>
        <pt x="218" y="35" on="1"/>
        <pt x="218" y="136" on="1"/>
        <pt x="304" y="136" on="1"/>
        <pt x="315" y="136" on="0"/>
        <pt x="322" y="128" on="0"/>
        <pt x="322" y="120" on="1"/>
      </contour>
      <contour>
        <pt x="322" y="354" on="1"/>
        <pt x="218" y="354" on="1"/>
        <pt x="218" y="456" on="1"/>
        <pt x="304" y="456" on="1"/>
        <pt x="315" y="456" on="0"/>
        <pt x="322" y="448" on="0"/>
        <pt x="322" y="439" on="1"/>
      </contour>
    </TTGlyph>
    <TTGlyph name="dollar" xMin="68" yMin="-116" xMax="555" yMax="783">
      <contour>
        <pt x="159" y="108" on="1"/>
        <pt x="193" y="99" on="0"/>
        <pt x="262" y="87" on="0"/>
        <pt x="291" y="85" on="1"/>
        <pt x="291" y="308" on="1"/>
        <pt x="265" y="317" on="1"/>
        <pt x="220" y="332" on="0"/>
        <pt x="150" y="367" on="0"/>
        <pt x="102" y="411" on="0"/>
        <pt x="76" y="467" on="0"/>
        <pt x="76" y="502" on="1"/>
        <pt x="76" y="544" on="0"/>
        <pt x="110" y="606" on="0"/>
        <pt x="169" y="648" on="0"/>
        <pt x="247" y="670" on="0"/>
        <pt x="291" y="672" on="1"/>
        <pt x="300" y="783" on="1"/>
        <pt x="351" y="783" on="1"/>
        <pt x="351" y="671" on="1"/>
        <pt x="394" y="668" on="0"/>
        <pt x="483" y="648" on="0"/>
        <pt x="522" y="633" on="1"/>
        <pt x="506" y="562" on="1"/>
        <pt x="474" y="566" on="1"/>
        <pt x="440" y="571" on="0"/>
        <pt x="377" y="576" on="0"/>
        <pt x="351" y="578" on="1"/>
        <pt x="351" y="390" on="1"/>
        <pt x="402" y="373" on="0"/>
        <pt x="479" y="337" on="0"/>
        <pt x="530" y="291" on="0"/>
        <pt x="555" y="232" on="0"/>
        <pt x="555" y="192" on="1"/>
        <pt x="555" y="111" on="0"/>
        <pt x="451" y="1" on="0"/>
        <pt x="351" y="-8" on="1"/>
        <pt x="342" y="-116" on="1"/>
        <pt x="291" y="-116" on="1"/>
        <pt x="291" y="-9" on="1"/>
        <pt x="262" y="-7" on="0"/>
        <pt x="200" y="5" on="0"/>
        <pt x="141" y="23" on="0"/>
        <pt x="88" y="46" on="0"/>
        <pt x="68" y="59" on="1"/>
        <pt x="95" y="124" on="1"/>
      </contour>
      <contour>
        <pt x="455" y="189" on="1"/>
        <pt x="455" y="208" on="0"/>
        <pt x="444" y="237" on="0"/>
        <pt x="419" y="260" on="0"/>
        <pt x="379" y="279" on="0"/>
        <pt x="351" y="289" on="1"/>
        <pt x="351" y="86" on="1"/>
        <pt x="399" y="93" on="0"/>
        <pt x="455" y="144" on="0"/>
      </contour>
      <contour>
        <pt x="174" y="503" on="1"/>
        <pt x="174" y="468" on="0"/>
        <pt x="232" y="430" on="0"/>
        <pt x="291" y="410" on="1"/>
        <pt x="291" y="578" on="1"/>
        <pt x="232" y="576" on="0"/>
        <pt x="174" y="541" on="0"/>
      </contour>
    </TTGlyph>
    <TTGlyph name="dollar.lprop" xMin="51" yMin="-116" xMax="538" yMax="783">
      <component glyphName="dollar" x="-17" y="0" flags="0x4"/>
    </TTGlyph>
    <TTGlyph name="dollar.oprop" xMin="64" yMin="-116" xMax="459" yMax="604">
      <component glyphName="dollar.otab" x="-53" y="0" flags="0x4"/>
    </TTGlyph>
    <TTGlyph name="dollar.otab" xMin="117" yMin="-116" xMax="512" yMax="604">
      <contour>
        <pt x="477" y="397" on="1"/>
        <pt x="429" y="403" on="1"/>
        <pt x="406" y="406" on="0"/>
        <pt x="365" y="409" on="0"/>
        <pt x="345" y="410" on="1"/>
        <pt x="345" y="296" on="1"/>
        <pt x="352" y="294" on="1"/>
        <pt x="391" y="283" on="0"/>
        <pt x="451" y="258" on="0"/>
        <pt x="491" y="224" on="0"/>
        <pt x="512" y="177" on="0"/>
        <pt x="512" y="144" on="1"/>
        <pt x="512" y="77" on="0"/>
        <pt x="420" y="-2" on="0"/>
        <pt x="345" y="-7" on="1"/>
        <pt x="338" y="-116" on="1"/>
        <pt x="295" y="-116" on="1"/>
        <pt x="295" y="-6" on="1"/>
        <pt x="249" y="-2" on="0"/>
        <pt x="155" y="25" on="0"/>
        <pt x="117" y="45" on="1"/>
        <pt x="140" y="105" on="1"/>
        <pt x="185" y="96" on="1"/>
        <pt x="221" y="88" on="0"/>
        <pt x="274" y="80" on="0"/>
        <pt x="295" y="78" on="1"/>
        <pt x="295" y="218" on="1"/>
        <pt x="273" y="224" on="1"/>
        <pt x="198" y="244" on="0"/>
        <pt x="125" y="307" on="0"/>
        <pt x="125" y="363" on="1"/>
        <pt x="125" y="397" on="0"/>
        <pt x="155" y="445" on="0"/>
        <pt x="204" y="477" on="0"/>
        <pt x="265" y="493" on="0"/>
        <pt x="295" y="495" on="1"/>
        <pt x="302" y="604" on="1"/>
        <pt x="345" y="604" on="1"/>
        <pt x="345" y="495" on="1"/>
        <pt x="385" y="493" on="0"/>
        <pt x="461" y="475" on="0"/>
        <pt x="493" y="461" on="1"/>
      </contour>
      <contour>
        <pt x="420" y="143" on="1"/>
        <pt x="420" y="166" on="0"/>
        <pt x="389" y="194" on="0"/>
        <pt x="345" y="205" on="1"/>
        <pt x="345" y="78" on="1"/>
        <pt x="420" y="86" on="0"/>
      </contour>
      <contour>
        <pt x="216" y="363" on="1"/>
        <pt x="216" y="340" on="0"/>
        <pt x="259" y="319" on="0"/>
        <pt x="295" y="309" on="1"/>
        <pt x="295" y="410" on="1"/>
        <pt x="259" y="408" on="0"/>
        <pt x="216" y="388" on="0"/>
      </contour>
    </TTGlyph>
    <TTGlyph name="dotaccent" xMin="145" yMin="555" xMax="258" yMax="663">
      <contour>
        <pt x="258" y="555" on="1"/>
        <pt x="145" y="555" on="1"/>
        <pt x="145" y="663" on="1"/>
        <pt x="239" y="663" on="1"/>
        <pt x="251" y="663" on="0"/>
        <pt x="258" y="655" on="0"/>
        <pt x="258" y="645" on="1"/>
      </contour>
    </TTGlyph>
    <TTGlyph name="dotaccent.cap" xMin="145" yMin="735" xMax="258" yMax="843">
      <contour>
        <pt x="258" y="735" on="1"/>
        <pt x="145" y="735" on="1"/>
        <pt x="145" y="843" on="1"/>
        <pt x="239" y="843" on="1"/>
        <pt x="251" y="843" on="0"/>
        <pt x="258" y="835" on="0"/>
        <pt x="258" y="825" on="1"/>
      </contour>
    </TTGlyph>
    <TTGlyph name="dotlessi" xMin="66" yMin="0" xMax="167" yMax="488">
      <contour>
        <pt x="66" y="488" on="1"/>
        <pt x="167" y="488" on="1"/>
        <pt x="167" y="0" on="1"/>
        <pt x="66" y="0" on="1"/>
      </contour>
    </TTGlyph>
    <TTGlyph name="e" xMin="34" yMin="-8" xMax="501" yMax="496">
      <contour>
        <pt x="492" y="78" on="1"/>
        <pt x="448" y="40" on="0"/>
        <pt x="333" y="-8" on="0"/>
        <pt x="277" y="-8" on="1"/>
        <pt x="221" y="-8" on="0"/>
        <pt x="131" y="32" on="0"/>
        <pt x="68" y="100" on="0"/>
        <pt x="34" y="192" on="0"/>
        <pt x="34" y="244" on="1"/>
        <pt x="34" y="301" on="0"/>
        <pt x="72" y="394" on="0"/>
        <pt x="136" y="460" on="0"/>
        <pt x="221" y="496" on="0"/>
        <pt x="269" y="496" on="1"/>
        <pt x="319" y="496" on="0"/>
        <pt x="404" y="460" on="0"/>
        <pt x="466" y="397" on="0"/>
        <pt x="501" y="311" on="0"/>
        <pt x="501" y="262" on="1"/>
        <pt x="501" y="233" on="0"/>
        <pt x="489" y="214" on="0"/>
        <pt x="478" y="214" on="1"/>
        <pt x="137" y="214" on="1"/>
        <pt x="140" y="186" on="0"/>
        <pt x="159" y="138" on="0"/>
        <pt x="195" y="102" on="0"/>
        <pt x="249" y="82" on="0"/>
        <pt x="286" y="82" on="1"/>
        <pt x="315" y="82" on="0"/>
        <pt x="375" y="97" on="0"/>
        <pt x="402" y="108" on="1"/>
        <pt x="457" y="130" on="1"/>
      </contour>
      <contour>
        <pt x="402" y="289" on="1"/>
        <pt x="397" y="342" on="0"/>
        <pt x="326" y="405" on="0"/>
        <pt x="269" y="405" on="1"/>
        <pt x="215" y="405" on="0"/>
        <pt x="142" y="345" on="0"/>
        <pt x="137" y="289" on="1"/>
      </contour>
    </TTGlyph>
    <TTGlyph name="eacute" xMin="34" yMin="-8" xMax="501" yMax="730">
      <component glyphName="e" x="0" y="0" flags="0x204"/>
      <component glyphName="acute" x="78" y="0" flags="0x4"/>
    </TTGlyph>
    <TTGlyph name="ebreve" xMin="34" yMin="-8" xMax="501" yMax="704">
      <component glyphName="e" x="0" y="0" flags="0x204"/>
      <component glyphName="breve" x="73" y="0" flags="0x4"/>
    </TTGlyph>
    <TTGlyph name="ecaron" xMin="34" yMin="-8" xMax="501" yMax="727">
      <component glyphName="e" x="0" y="0" flags="0x204"/>
      <component glyphName="caron" x="71" y="0" flags="0x4"/>
    </TTGlyph>
    <TTGlyph name="ecircumflex" xMin="34" yMin="-8" xMax="501" yMax="719">
      <component glyphName="e" x="0" y="0" flags="0x204"/>
      <component glyphName="circumflex" x="73" y="0" flags="0x4"/>
    </TTGlyph>
    <TTGlyph name="edieresis" xMin="34" yMin="-8" xMax="501" yMax="675">
      <component glyphName="e" x="0" y="0" flags="0x204"/>
      <component glyphName="dieresis" x="73" y="0" flags="0x4"/>
    </TTGlyph>
    <TTGlyph name="edotaccent" xMin="34" yMin="-8" xMax="501" yMax="663">
      <component glyphName="e" x="0" y="0" flags="0x204"/>
      <component glyphName="dotaccent" x="72" y="0" flags="0x4"/>
    </TTGlyph>
    <TTGlyph name="egrave" xMin="34" yMin="-8" xMax="501" yMax="734">
      <component glyphName="e" x="0" y="0" flags="0x204"/>
      <component glyphName="grave" x="77" y="0" flags="0x4"/>
    </TTGlyph>
    <TTGlyph name="eight" xMin="53" yMin="-10" xMax="570" yMax="673">
      <contour>
        <pt x="53" y="194" on="1"/>
        <pt x="53" y="247" on="0"/>
        <pt x="115" y="329" on="0"/>
        <pt x="159" y="359" on="1"/>
        <pt x="126" y="383" on="0"/>
        <pt x="86" y="447" on="0"/>
        <pt x="86" y="493" on="1"/>
        <pt x="86" y="533" on="0"/>
        <pt x="123" y="600" on="0"/>
        <pt x="186" y="647" on="0"/>
        <pt x="269" y="673" on="0"/>
        <pt x="314" y="673" on="1"/>
        <pt x="357" y="673" on="0"/>
        <pt x="439" y="651" on="0"/>
        <pt x="503" y="607" on="0"/>
        <pt x="543" y="541" on="0"/>
        <pt x="543" y="497" on="1"/>
        <pt x="543" y="453" on="0"/>
        <pt x="492" y="374" on="0"/>
        <pt x="452" y="343" on="1"/>
        <pt x="503" y="319" on="0"/>
        <pt x="570" y="247" on="0"/>
        <pt x="570" y="189" on="1"/>
        <pt x="570" y="148" on="0"/>
        <pt x="531" y="76" on="0"/>
        <pt x="463" y="22" on="0"/>
        <pt x="368" y="-10" on="0"/>
        <pt x="313" y="-10" on="1"/>
        <pt x="259" y="-10" on="0"/>
        <pt x="164" y="19" on="0"/>
        <pt x="94" y="72" on="0"/>
        <pt x="53" y="147" on="0"/>
      </contour>
      <contour>
        <pt x="183" y="496" on="1"/>
        <pt x="183" y="473" on="0"/>
        <pt x="205" y="441" on="0"/>
        <pt x="248" y="415" on="0"/>
        <pt x="311" y="393" on="0"/>
        <pt x="352" y="380" on="1"/>
        <pt x="371" y="374" on="0"/>
        <pt x="386" y="376" on="0"/>
        <pt x="399" y="387" on="1"/>
        <pt x="419" y="405" on="0"/>
        <pt x="446" y="459" on="0"/>
        <pt x="446" y="483" on="1"/>
        <pt x="446" y="509" on="0"/>
        <pt x="425" y="547" on="0"/>
        <pt x="389" y="571" on="0"/>
        <pt x="340" y="582" on="0"/>
        <pt x="312" y="582" on="1"/>
        <pt x="286" y="582" on="0"/>
        <pt x="239" y="571" on="0"/>
        <pt x="204" y="550" on="0"/>
        <pt x="183" y="518" on="0"/>
      </contour>
      <contour>
        <pt x="210" y="312" on="1"/>
        <pt x="184" y="289" on="0"/>
        <pt x="155" y="236" on="0"/>
        <pt x="155" y="204" on="1"/>
        <pt x="155" y="177" on="0"/>
        <pt x="179" y="132" on="0"/>
        <pt x="221" y="99" on="0"/>
        <pt x="280" y="81" on="0"/>
        <pt x="315" y="81" on="1"/>
        <pt x="346" y="81" on="0"/>
        <pt x="402" y="96" on="0"/>
        <pt x="442" y="124" on="0"/>
        <pt x="466" y="163" on="0"/>
        <pt x="466" y="187" on="1"/>
        <pt x="466" y="206" on="0"/>
        <pt x="448" y="235" on="0"/>
        <pt x="407" y="261" on="0"/>
        <pt x="342" y="287" on="0"/>
        <pt x="294" y="303" on="1"/>
        <pt x="247" y="319" on="1"/>
        <pt x="236" y="323" on="0"/>
        <pt x="221" y="320" on="0"/>
      </contour>
    </TTGlyph>
    <TTGlyph name="eight.lprop" xMin="46" yMin="-10" xMax="563" yMax="673">
      <component glyphName="eight" x="-7" y="0" flags="0x4"/>
    </TTGlyph>
    <TTGlyph name="eight.oprop" xMin="46" yMin="-8" xMax="548" yMax="671">
      <component glyphName="eight.otab" x="-15" y="0" flags="0x4"/>
    </TTGlyph>
    <TTGlyph name="eight.otab" xMin="61" yMin="-8" xMax="563" yMax="671">
      <contour>
        <pt x="223" y="318" on="1"/>
        <pt x="161" y="267" on="0"/>
        <pt x="161" y="202" on="1"/>
        <pt x="161" y="148" on="0"/>
        <pt x="243" y="78" on="0"/>
        <pt x="314" y="78" on="1"/>
        <pt x="347" y="78" on="0"/>
        <pt x="402" y="95" on="0"/>
        <pt x="441" y="125" on="0"/>
        <pt x="463" y="164" on="0"/>
        <pt x="463" y="186" on="1"/>
        <pt x="463" y="207" on="0"/>
        <pt x="439" y="239" on="0"/>
        <pt x="394" y="267" on="0"/>
        <pt x="326" y="294" on="0"/>
        <pt x="283" y="310" on="1"/>
        <pt x="248" y="323" on="1"/>
        <pt x="234" y="328" on="0"/>
      </contour>
      <contour>
        <pt x="383" y="381" on="1"/>
        <pt x="408" y="406" on="0"/>
        <pt x="443" y="462" on="0"/>
        <pt x="443" y="492" on="1"/>
        <pt x="443" y="537" on="0"/>
        <pt x="371" y="584" on="0"/>
        <pt x="314" y="584" on="1"/>
        <pt x="259" y="584" on="0"/>
        <pt x="188" y="536" on="0"/>
        <pt x="188" y="497" on="1"/>
        <pt x="188" y="475" on="0"/>
        <pt x="211" y="442" on="0"/>
        <pt x="250" y="416" on="0"/>
        <pt x="303" y="395" on="0"/>
        <pt x="333" y="384" on="1"/>
        <pt x="355" y="376" on="1"/>
        <pt x="366" y="372" on="0"/>
        <pt x="377" y="375" on="0"/>
      </contour>
      <contour>
        <pt x="61" y="194" on="1"/>
        <pt x="61" y="222" on="0"/>
        <pt x="80" y="272" on="0"/>
        <pt x="112" y="314" on="0"/>
        <pt x="152" y="348" on="0"/>
        <pt x="172" y="360" on="1"/>
        <pt x="139" y="383" on="0"/>
        <pt x="91" y="444" on="0"/>
        <pt x="91" y="493" on="1"/>
        <pt x="91" y="533" on="0"/>
        <pt x="129" y="599" on="0"/>
        <pt x="192" y="645" on="0"/>
        <pt x="273" y="671" on="0"/>
        <pt x="317" y="671" on="1"/>
        <pt x="360" y="671" on="0"/>
        <pt x="440" y="647" on="0"/>
        <pt x="501" y="602" on="0"/>
        <pt x="537" y="537" on="0"/>
        <pt x="537" y="497" on="1"/>
        <pt x="537" y="453" on="0"/>
        <pt x="484" y="374" on="0"/>
        <pt x="441" y="343" on="1"/>
        <pt x="492" y="320" on="0"/>
        <pt x="563" y="250" on="0"/>
        <pt x="563" y="194" on="1"/>
        <pt x="563" y="152" on="0"/>
        <pt x="526" y="79" on="0"/>
        <pt x="460" y="24" on="0"/>
        <pt x="368" y="-8" on="0"/>
        <pt x="313" y="-8" on="1"/>
        <pt x="260" y="-8" on="0"/>
        <pt x="168" y="22" on="0"/>
        <pt x="100" y="76" on="0"/>
        <pt x="61" y="150" on="0"/>
      </contour>
    </TTGlyph>
    <TTGlyph name="ellipsis" xMin="57" yMin="0" xMax="606" yMax="112">
      <contour>
        <pt x="168" y="0" on="1"/>
        <pt x="57" y="0" on="1"/>
        <pt x="57" y="112" on="1"/>
        <pt x="148" y="112" on="1"/>
        <pt x="160" y="112" on="0"/>
        <pt x="168" y="104" on="0"/>
        <pt x="168" y="94" on="1"/>
      </contour>
      <contour>
        <pt x="387" y="0" on="1"/>
        <pt x="276" y="0" on="1"/>
        <pt x="276" y="112" on="1"/>
        <pt x="367" y="112" on="1"/>
        <pt x="379" y="112" on="0"/>
        <pt x="387" y="104" on="0"/>
        <pt x="387" y="94" on="1"/>
      </contour>
      <contour>
        <pt x="606" y="0" on="1"/>
        <pt x="495" y="0" on="1"/>
        <pt x="495" y="112" on="1"/>
        <pt x="586" y="112" on="1"/>
        <pt x="598" y="112" on="0"/>
        <pt x="606" y="104" on="0"/>
        <pt x="606" y="94" on="1"/>
      </contour>
    </TTGlyph>
    <TTGlyph name="emacron" xMin="34" yMin="-8" xMax="501" yMax="662">
      <component glyphName="e" x="0" y="0" flags="0x204"/>
      <component glyphName="macron" x="71" y="0" flags="0x4"/>
    </TTGlyph>
    <TTGlyph name="emdash" xMin="55" yMin="201" xMax="1055" yMax="287">
      <contour>
        <pt x="55" y="201" on="1"/>
        <pt x="55" y="287" on="1"/>
        <pt x="1055" y="287" on="1"/>
        <pt x="1055" y="201" on="1"/>
      </contour>
    </TTGlyph>
    <TTGlyph name="emdash.cap" xMin="55" yMin="288" xMax="1055" yMax="374">
      <component glyphName="emdash" x="0" y="87" flags="0x204"/>
    </TTGlyph>
    <TTGlyph name="endash" xMin="55" yMin="201" xMax="555" yMax="287">
      <contour>
        <pt x="55" y="201" on="1"/>
        <pt x="55" y="287" on="1"/>
        <pt x="555" y="287" on="1"/>
        <pt x="555" y="201" on="1"/>
      </contour>
    </TTGlyph>
    <TTGlyph name="endash.cap" xMin="55" yMin="288" xMax="555" yMax="374">
      <component glyphName="endash" x="0" y="87" flags="0x204"/>
    </TTGlyph>
    <TTGlyph name="eng" xMin="64" yMin="-199" xMax="500" yMax="496">
      <contour>
        <pt x="399" y="301" on="1"/>
        <pt x="399" y="331" on="0"/>
        <pt x="389" y="365" on="0"/>
        <pt x="377" y="377" on="1"/>
        <pt x="353" y="401" on="0"/>
        <pt x="290" y="401" on="1"/>
        <pt x="260" y="401" on="0"/>
        <pt x="196" y="387" on="0"/>
        <pt x="173" y="376" on="1"/>
        <pt x="165" y="372" on="0"/>
        <pt x="165" y="363" on="1"/>
        <pt x="165" y="0" on="1"/>
        <pt x="64" y="0" on="1"/>
        <pt x="64" y="488" on="1"/>
        <pt x="139" y="488" on="1"/>
        <pt x="153" y="445" on="1"/>
        <pt x="184" y="461" on="1"/>
        <pt x="251" y="496" on="0"/>
        <pt x="313" y="496" on="1"/>
        <pt x="354" y="496" on="0"/>
        <pt x="427" y="469" on="0"/>
        <pt x="453" y="443" on="1"/>
        <pt x="476" y="420" on="0"/>
        <pt x="500" y="354" on="0"/>
        <pt x="500" y="306" on="1"/>
        <pt x="500" y="-27" on="1"/>
        <pt x="500" y="-73" on="0"/>
        <pt x="480" y="-143" on="0"/>
        <pt x="457" y="-165" on="1"/>
        <pt x="421" y="-199" on="0"/>
        <pt x="355" y="-199" on="1"/>
        <pt x="335" y="-199" on="0"/>
        <pt x="291" y="-193" on="0"/>
        <pt x="277" y="-188" on="1"/>
        <pt x="277" y="-134" on="1"/>
        <pt x="324" y="-124" on="1"/>
        <pt x="351" y="-118" on="0"/>
        <pt x="381" y="-106" on="0"/>
        <pt x="396" y="-82" on="0"/>
        <pt x="399" y="-42" on="0"/>
        <pt x="399" y="-9" on="1"/>
      </contour>
    </TTGlyph>
    <TTGlyph name="eogonek" xMin="34" yMin="-211" xMax="501" yMax="496">
      <contour>
        <pt x="402" y="289" on="1"/>
        <pt x="397" y="342" on="0"/>
        <pt x="326" y="405" on="0"/>
        <pt x="269" y="405" on="1"/>
        <pt x="215" y="405" on="0"/>
        <pt x="142" y="345" on="0"/>
        <pt x="137" y="289" on="1"/>
      </contour>
      <contour>
        <pt x="325" y="-3" on="1"/>
        <pt x="302" y="-8" on="0"/>
        <pt x="277" y="-8" on="1"/>
        <pt x="221" y="-8" on="0"/>
        <pt x="131" y="32" on="0"/>
        <pt x="68" y="100" on="0"/>
        <pt x="34" y="192" on="0"/>
        <pt x="34" y="244" on="1"/>
        <pt x="34" y="301" on="0"/>
        <pt x="72" y="394" on="0"/>
        <pt x="136" y="460" on="0"/>
        <pt x="221" y="496" on="0"/>
        <pt x="269" y="496" on="1"/>
        <pt x="319" y="496" on="0"/>
        <pt x="404" y="460" on="0"/>
        <pt x="466" y="397" on="0"/>
        <pt x="501" y="311" on="0"/>
        <pt x="501" y="262" on="1"/>
        <pt x="501" y="233" on="0"/>
        <pt x="489" y="214" on="0"/>
        <pt x="478" y="214" on="1"/>
        <pt x="137" y="214" on="1"/>
        <pt x="140" y="186" on="0"/>
        <pt x="159" y="138" on="0"/>
        <pt x="195" y="102" on="0"/>
        <pt x="249" y="82" on="0"/>
        <pt x="286" y="82" on="1"/>
        <pt x="315" y="82" on="0"/>
        <pt x="375" y="97" on="0"/>
        <pt x="402" y="108" on="1"/>
        <pt x="457" y="130" on="1"/>
        <pt x="492" y="78" on="1"/>
        <pt x="463" y="57" on="0"/>
        <pt x="411" y="13" on="0"/>
        <pt x="372" y="-30" on="0"/>
        <pt x="350" y="-73" on="0"/>
        <pt x="350" y="-94" on="1"/>
        <pt x="350" y="-117" on="0"/>
        <pt x="378" y="-141" on="0"/>
        <pt x="404" y="-141" on="1"/>
        <pt x="412" y="-141" on="0"/>
        <pt x="435" y="-139" on="0"/>
        <pt x="446" y="-137" on="1"/>
        <pt x="470" y="-133" on="1"/>
        <pt x="487" y="-186" on="1"/>
        <pt x="437" y="-211" on="0"/>
        <pt x="387" y="-211" on="1"/>
        <pt x="330" y="-211" on="0"/>
        <pt x="264" y="-156" on="0"/>
        <pt x="264" y="-113" on="1"/>
        <pt x="264" y="-81" on="0"/>
        <pt x="301" y="-22" on="0"/>
      </contour>
    </TTGlyph>
    <TTGlyph name="equal" xMin="75" yMin="107" xMax="465" yMax="383">
      <contour>
        <pt x="75" y="299" on="1"/>
        <pt x="75" y="383" on="1"/>
        <pt x="465" y="383" on="1"/>
        <pt x="465" y="299" on="1"/>
      </contour>
      <contour>
        <pt x="75" y="107" on="1"/>
        <pt x="75" y="191" on="1"/>
        <pt x="465" y="191" on="1"/>
        <pt x="465" y="107" on="1"/>
      </contour>
    </TTGlyph>
    <TTGlyph name="estimated" xMin="54" yMin="-10" xMax="817" yMax="673">
      <contour>
        <pt x="200" y="323" on="1"/>
        <pt x="192" y="323" on="0"/>
        <pt x="192" y="317" on="1"/>
        <pt x="192" y="130" on="1"/>
        <pt x="192" y="123" on="0"/>
        <pt x="198" y="115" on="0"/>
        <pt x="204" y="109" on="1"/>
        <pt x="248" y="64" on="0"/>
        <pt x="369" y="11" on="0"/>
        <pt x="438" y="11" on="1"/>
        <pt x="512" y="11" on="0"/>
        <pt x="637" y="71" on="0"/>
        <pt x="682" y="121" on="1"/>
        <pt x="738" y="121" on="1"/>
        <pt x="684" y="61" on="0"/>
        <pt x="528" y="-10" on="0"/>
        <pt x="437" y="-10" on="1"/>
        <pt x="358" y="-10" on="0"/>
        <pt x="218" y="43" on="0"/>
        <pt x="114" y="135" on="0"/>
        <pt x="54" y="260" on="0"/>
        <pt x="54" y="331" on="1"/>
        <pt x="54" y="402" on="0"/>
        <pt x="114" y="527" on="0"/>
        <pt x="218" y="620" on="0"/>
        <pt x="358" y="673" on="0"/>
        <pt x="437" y="673" on="1"/>
        <pt x="515" y="673" on="0"/>
        <pt x="653" y="620" on="0"/>
        <pt x="756" y="527" on="0"/>
        <pt x="817" y="402" on="0"/>
        <pt x="817" y="331" on="1"/>
        <pt x="817" y="323" on="1"/>
      </contour>
      <contour>
        <pt x="678" y="537" on="1"/>
        <pt x="678" y="543" on="0"/>
        <pt x="671" y="553" on="0"/>
        <pt x="665" y="559" on="1"/>
        <pt x="623" y="603" on="0"/>
        <pt x="504" y="653" on="0"/>
        <pt x="438" y="653" on="1"/>
        <pt x="369" y="653" on="0"/>
        <pt x="249" y="601" on="0"/>
        <pt x="204" y="556" on="1"/>
        <pt x="198" y="550" on="0"/>
        <pt x="192" y="540" on="0"/>
        <pt x="192" y="532" on="1"/>
        <pt x="192" y="347" on="1"/>
        <pt x="192" y="342" on="0"/>
        <pt x="200" y="342" on="1"/>
        <pt x="670" y="342" on="1"/>
        <pt x="678" y="342" on="0"/>
        <pt x="678" y="347" on="1"/>
      </contour>
    </TTGlyph>
    <TTGlyph name="eth" xMin="35" yMin="-9" xMax="518" yMax="728">
      <contour>
        <pt x="122" y="571" on="1"/>
        <pt x="229" y="620" on="1"/>
        <pt x="206" y="634" on="0"/>
        <pt x="159" y="661" on="0"/>
        <pt x="136" y="675" on="1"/>
        <pt x="167" y="728" on="1"/>
        <pt x="250" y="699" on="0"/>
        <pt x="312" y="658" on="1"/>
        <pt x="436" y="715" on="1"/>
        <pt x="471" y="654" on="1"/>
        <pt x="376" y="610" on="1"/>
        <pt x="450" y="541" on="0"/>
        <pt x="518" y="370" on="0"/>
        <pt x="518" y="277" on="1"/>
        <pt x="518" y="211" on="0"/>
        <pt x="484" y="106" on="0"/>
        <pt x="420" y="31" on="0"/>
        <pt x="330" y="-9" on="0"/>
        <pt x="273" y="-9" on="1"/>
        <pt x="269" y="-9" on="1"/>
        <pt x="216" y="-9" on="0"/>
        <pt x="130" y="28" on="0"/>
        <pt x="69" y="94" on="0"/>
        <pt x="35" y="184" on="0"/>
        <pt x="35" y="236" on="1"/>
        <pt x="35" y="289" on="0"/>
        <pt x="71" y="375" on="0"/>
        <pt x="132" y="435" on="0"/>
        <pt x="213" y="467" on="0"/>
        <pt x="258" y="467" on="1"/>
        <pt x="290" y="467" on="0"/>
        <pt x="358" y="449" on="0"/>
        <pt x="389" y="433" on="1"/>
        <pt x="376" y="474" on="0"/>
        <pt x="324" y="547" on="0"/>
        <pt x="293" y="572" on="1"/>
        <pt x="157" y="510" on="1"/>
      </contour>
      <contour>
        <pt x="417" y="266" on="1"/>
        <pt x="417" y="287" on="0"/>
        <pt x="416" y="323" on="0"/>
        <pt x="412" y="342" on="1"/>
        <pt x="410" y="350" on="0"/>
        <pt x="402" y="359" on="0"/>
        <pt x="391" y="363" on="1"/>
        <pt x="369" y="371" on="0"/>
        <pt x="315" y="382" on="0"/>
        <pt x="281" y="382" on="1"/>
        <pt x="277" y="382" on="1"/>
        <pt x="212" y="382" on="0"/>
        <pt x="136" y="313" on="0"/>
        <pt x="136" y="233" on="1"/>
        <pt x="136" y="167" on="0"/>
        <pt x="206" y="80" on="0"/>
        <pt x="277" y="80" on="1"/>
        <pt x="351" y="80" on="0"/>
        <pt x="417" y="180" on="0"/>
      </contour>
    </TTGlyph>
    <TTGlyph name="exclam" xMin="75" yMin="0" xMax="185" yMax="663">
      <contour>
        <pt x="185" y="0" on="1"/>
        <pt x="75" y="0" on="1"/>
        <pt x="75" y="106" on="1"/>
        <pt x="165" y="106" on="1"/>
        <pt x="177" y="106" on="0"/>
        <pt x="185" y="98" on="0"/>
        <pt x="185" y="88" on="1"/>
      </contour>
      <contour>
        <pt x="181" y="424" on="1"/>
        <pt x="181" y="404" on="0"/>
        <pt x="178" y="346" on="0"/>
        <pt x="175" y="313" on="1"/>
        <pt x="162" y="179" on="1"/>
        <pt x="98" y="179" on="1"/>
        <pt x="85" y="313" on="1"/>
        <pt x="82" y="346" on="0"/>
        <pt x="79" y="404" on="0"/>
        <pt x="79" y="424" on="1"/>
        <pt x="79" y="663" on="1"/>
        <pt x="181" y="663" on="1"/>
      </contour>
    </TTGlyph>
    <TTGlyph name="exclamdown" xMin="75" yMin="-175" xMax="185" yMax="488">
      <component glyphName="exclam" x="260" y="488" scale="-0.99994" flags="0x4"/>
    </TTGlyph>
    <TTGlyph name="exclamdown.cap" xMin="75" yMin="0" xMax="185" yMax="663">
      <component glyphName="exclam" x="260" y="663" scale="-0.99994" flags="0x4"/>
    </TTGlyph>
    <TTGlyph name="f" xMin="2" yMin="0" xMax="405" yMax="717">
      <contour>
        <pt x="2" y="470" on="1"/>
        <pt x="89" y="486" on="1"/>
        <pt x="84" y="500" on="0"/>
        <pt x="78" y="543" on="0"/>
        <pt x="78" y="562" on="1"/>
        <pt x="78" y="598" on="0"/>
        <pt x="105" y="655" on="0"/>
        <pt x="151" y="695" on="0"/>
        <pt x="212" y="717" on="0"/>
        <pt x="247" y="717" on="1"/>
        <pt x="285" y="717" on="0"/>
        <pt x="370" y="691" on="0"/>
        <pt x="405" y="670" on="1"/>
        <pt x="382" y="610" on="1"/>
        <pt x="338" y="619" on="1"/>
        <pt x="315" y="624" on="0"/>
        <pt x="277" y="629" on="0"/>
        <pt x="259" y="629" on="1"/>
        <pt x="219" y="629" on="0"/>
        <pt x="178" y="594" on="0"/>
        <pt x="178" y="553" on="1"/>
        <pt x="178" y="538" on="0"/>
        <pt x="184" y="499" on="0"/>
        <pt x="188" y="488" on="1"/>
        <pt x="363" y="488" on="1"/>
        <pt x="363" y="410" on="1"/>
        <pt x="193" y="410" on="1"/>
        <pt x="193" y="0" on="1"/>
        <pt x="92" y="0" on="1"/>
        <pt x="92" y="410" on="1"/>
        <pt x="2" y="410" on="1"/>
      </contour>
    </TTGlyph>
</ttFont>
